<?xml version="1.0" encoding="UTF-8"?> <svg xmlns="http://www.w3.org/2000/svg" width="70" height="70" viewBox="0 0 70 70" fill="none"><g clip-path="url(#clip0_361_9372)"><path fill-rule="evenodd" clip-rule="evenodd" d="M21.4737 63.9802V56.0702H14.2637C13.7737 56.0702 13.2837 56.0002 12.7937 55.9302C9.78371 55.3002 7.89372 52.2202 8.59372 49.2102L7.40372 47.9502C6.91372 47.3202 6.91372 46.4802 7.26372 45.7802L8.03372 44.8702L6.84372 43.5402C6.49372 42.9802 6.49372 42.8402 6.91372 42.3502L9.50372 38.9902L5.93372 36.7502C5.30372 36.3302 5.09372 35.4902 5.58372 34.8602L11.1837 27.6502C11.1837 27.6502 7.40372 12.1102 26.2337 8.7502C45.0637 5.3902 51.5737 18.8302 51.5737 18.8302C51.5737 18.8302 59.0637 28.5602 47.5137 45.1502C43.8037 50.5402 42.7537 57.4002 44.9237 63.5602C44.9937 63.7002 44.9937 63.8402 45.0637 63.9802H21.4737Z" fill="#FFB81C"></path><path d="M23.5737 28.35C25.8159 28.35 27.6337 26.5323 27.6337 24.29C27.6337 22.0477 25.8159 20.23 23.5737 20.23C21.3314 20.23 19.5137 22.0477 19.5137 24.29C19.5137 26.5323 21.3314 28.35 23.5737 28.35Z" fill="white"></path><path d="M15.4534 31.3598C17.1157 31.3598 18.4634 30.0122 18.4634 28.3498C18.4634 26.6875 17.1157 25.3398 15.4534 25.3398C13.791 25.3398 12.4434 26.6875 12.4434 28.3498C12.4434 30.0122 13.791 31.3598 15.4534 31.3598Z" fill="#84239B"></path><path d="M50.1033 31.36C56.8302 31.36 62.2833 25.9068 62.2833 19.18C62.2833 12.4532 56.8302 7 50.1033 7C43.3765 7 37.9233 12.4532 37.9233 19.18C37.9233 25.9068 43.3765 31.36 50.1033 31.36Z" fill="#FF5848"></path><path d="M13.7736 24.7102C17.021 24.7102 19.6536 22.0776 19.6536 18.8302C19.6536 15.5828 17.021 12.9502 13.7736 12.9502C10.5261 12.9502 7.89355 15.5828 7.89355 18.8302C7.89355 22.0776 10.5261 24.7102 13.7736 24.7102Z" fill="#06A6EA"></path><path d="M23.2935 65.38V56.63H15.3135C14.7535 56.63 14.1935 56.56 13.7035 56.49C10.3435 55.79 9.29347 52.43 10.0635 49.07L7.89347 47.6C7.40347 46.9 7.33347 45.92 7.75347 45.15L8.38347 44.17L7.40347 42.7C6.98347 42.07 7.05347 41.86 7.54347 41.37L10.0635 37.66L6.00347 35.21C5.30347 34.79 5.09347 33.81 5.65347 33.11L11.8835 25.13C11.8835 25.13 9.43347 8.19005 30.4335 4.48005C35.7535 3.57005 40.0935 3.71005 43.5935 4.55005M58.6435 31.85C57.5935 35.56 55.6335 39.76 52.4135 44.45C48.2835 50.4 47.1635 58.03 49.5435 64.89C49.6135 65.03 49.6835 65.17 49.6835 65.38" stroke="black" stroke-width="2"></path></g><defs><clipPath id="clip0_361_9372"><rect width="70" height="70" fill="white"></rect></clipPath></defs></svg> 