<?xml version="1.0" encoding="UTF-8"?> <svg xmlns="http://www.w3.org/2000/svg" width="276" height="275" viewBox="0 0 276 275" fill="none"><circle cx="138" cy="137.5" r="137.5" fill="#302F2F"></circle><mask id="mask0_555_813" style="mask-type:alpha" maskUnits="userSpaceOnUse" x="0" y="0" width="276" height="275"><circle cx="138" cy="137.5" r="137.5" fill="#302F2F"></circle></mask><g mask="url(#mask0_555_813)"><path d="M15.4678 70.491C13.9722 69.9596 13.4906 68.8715 12.4005 67.9099C11.4626 67.0748 10.2712 66.4675 9.05445 66.1892C7.76164 65.8855 6.72233 66.2145 5.45487 66.2145C3.73112 66.2145 1.95668 64.9492 1.17086 63.4563C0.537128 62.267 0.739921 60.8752 0.232937 59.61C-0.274047 58.37 -1.08522 57.2819 -2.14989 56.4722C-3.01176 55.8143 -4.10177 55.5865 -4.91295 54.8527C-6.25645 53.6634 -6.94088 51.4366 -6.3832 49.7159C-6.00296 48.5012 -5.31853 47.6156 -5.19179 46.2997C-5.06504 44.9839 -5.24249 43.6174 -5.77482 42.4281C-6.07901 41.7702 -6.56064 41.2388 -6.83948 40.5556C-7.19437 39.6699 -7.24507 38.7083 -7.04228 37.7974C-6.66204 35.8995 -5.67342 35.1404 -4.17782 34.1788C-1.94709 32.7111 -0.983824 30.2566 -0.933125 27.7008C-0.907776 26.0813 0.106192 24.6137 1.4497 23.7533C2.8439 22.8676 4.13671 23.2472 5.68301 23.0195C6.89977 22.8423 8.06583 22.3615 9.0798 21.6277C10.1952 20.818 10.6514 19.6539 11.5894 18.7177C12.7047 17.6043 14.5299 17.1488 16.0508 17.4018C17.4957 17.6296 18.5097 18.8189 19.8785 19.2744C21.07 19.6793 22.3881 19.7552 23.6302 19.5527C25.2526 19.2744 26.3933 18.2875 28.117 18.5658C29.638 18.8189 31.1589 19.7046 31.8434 21.1216C32.4771 22.4375 32.9334 23.5256 34.0994 24.5124C35.0374 25.2969 36.1527 25.9295 37.3441 26.1572C39.1186 26.5115 40.4114 26.9164 41.4254 28.5612C42.2872 29.9529 42.1351 31.0916 41.9577 32.6099C41.7802 33.9258 42.0084 35.2416 42.5407 36.4562C43.0224 37.5696 43.7068 38.4047 44.6193 39.1891C45.9882 40.4037 46.4952 42.251 46.1149 44.0476C45.7854 45.5153 44.7207 46.1479 43.9603 47.3625C43.2758 48.4253 42.8956 49.6906 42.7942 50.9558C42.6928 52.4488 43.4533 53.7646 43.3519 55.1817C43.1998 57.1554 41.7549 59.1039 39.8284 59.6353C38.3327 60.0401 37.0906 60.5715 35.9499 61.7103C34.7585 62.8996 34.4797 64.1901 33.8713 65.6325C33.1108 67.4038 30.8547 68.6184 28.9536 68.4413C28.1424 68.3654 27.4073 67.9352 26.6214 67.8087C25.9117 67.6822 25.1765 67.6821 24.4668 67.7581C23.0979 67.9099 21.729 68.416 20.639 69.327C19.0927 70.6681 17.5464 71.073 15.4678 70.491C14.2003 70.1367 13.6427 72.1105 14.9101 72.4647C16.5071 72.9202 18.2309 72.9708 19.8025 72.3382C21.2474 71.7815 22.1346 70.491 23.6302 70.0102C25.2272 69.5041 26.3426 69.9343 27.8635 70.3391C29.5366 70.7693 31.3617 70.3644 32.832 69.5294C34.1248 68.7956 35.2402 67.6822 35.8232 66.2904C36.5076 64.6456 36.8372 63.3298 38.4848 62.2923C39.727 61.5331 41.1719 61.5331 42.3886 60.6728C43.8082 59.6606 44.8728 58.0411 45.2531 56.3457C45.5826 54.8527 45.1517 53.714 44.8982 52.2716C44.6447 50.804 45.101 49.0326 46.1149 47.9192C47.0275 46.8817 47.788 45.9961 48.1175 44.6043C48.4978 42.9342 48.3203 41.1123 47.5345 39.5687C46.8754 38.2782 45.608 37.6202 44.8475 36.4562C43.8589 34.9379 43.9603 33.5209 44.2138 31.8508C44.67 28.8648 42.5154 25.6258 39.7523 24.563C38.2821 24.0063 36.8878 24.1329 35.5697 23.0701C34.2515 22.0073 34.0487 20.4637 33.0601 19.1985C31.1589 16.7186 27.5593 15.757 24.6949 17.0223C23.3007 17.6296 21.9065 17.8067 20.4109 17.3006C19.6504 17.0223 19.1181 16.5162 18.4336 16.1113C17.7239 15.6811 16.938 15.4534 16.1269 15.3522C14.5552 15.1497 12.9075 15.4534 11.5387 16.2125C10.1698 16.9717 9.63748 18.1357 8.64886 19.2491C7.68559 20.3372 6.11395 21.0457 4.66904 21.0204C3.09739 20.9951 1.77924 21.0963 0.410382 21.9567C-0.907775 22.7917 -1.99779 24.0316 -2.58082 25.4993C-3.1385 26.9417 -2.73292 28.46 -3.2906 29.877C-3.89898 31.4459 -4.96364 32.1544 -6.30715 33.0148C-7.62531 33.8752 -8.48718 35.2922 -8.91812 36.7852C-9.34905 38.3035 -9.3237 40.0242 -8.68997 41.4665C-8.43648 42.0486 -8.00555 42.5293 -7.7267 43.1113C-7.32112 43.9717 -7.16902 44.9586 -7.24507 45.8949C-7.37182 47.6409 -8.58858 48.9314 -8.63927 50.728C-8.68997 52.4994 -8.05624 54.3213 -6.94088 55.6878C-5.85086 57.0036 -4.32991 57.2313 -3.1385 58.3194C-2.47942 58.9267 -1.94709 59.6859 -1.6429 60.4956C-1.31336 61.356 -1.41476 62.2417 -1.18662 63.1273C-0.350095 66.341 3.17344 68.6184 6.44349 68.1376C8.11653 67.8846 9.76423 68.2642 11.057 69.4282C11.6654 69.9849 12.0457 70.7187 12.7047 71.2501C13.3638 71.7815 14.1243 72.1358 14.9101 72.4141C16.1776 72.9202 16.7099 70.9211 15.4678 70.491Z" fill="#FF5848"></path><path d="M16.4501 64.2646C15.308 63.8595 14.902 62.9226 14.0137 62.1883C13.227 61.5299 12.2373 61.0741 11.2221 60.8969C10.2324 60.7196 9.34412 61.0235 8.40512 60.9475C7.11083 60.8462 5.68964 59.7321 5.30897 58.466C5.02981 57.5291 5.10594 56.6175 4.67451 55.6806C4.2177 54.7184 3.48173 53.8322 2.59348 53.2244C1.90827 52.7687 1.1723 52.642 0.588594 52.0343C-0.42654 50.9708 -0.680325 49.3249 -0.071244 48.0082C0.740863 46.2863 0.969268 44.3872 0.131783 42.5894C-0.45192 41.374 -1.11176 40.5384 -0.75646 39.0697C-0.426541 37.7023 0.385567 37.2466 1.45146 36.4869C2.97416 35.3981 3.91316 33.5749 3.96391 31.7011C3.98929 30.4351 4.42073 29.3969 5.51199 28.6119C6.60326 27.8523 7.59302 28.1308 8.81118 27.9789C10.8161 27.7003 12.0596 26.5609 13.2016 25.0163C13.963 23.9781 15.3334 23.4463 16.6023 23.5983C17.7951 23.7249 18.658 24.7377 19.8 25.0922C20.6882 25.3708 21.6272 25.4467 22.5409 25.3201C23.7083 25.1429 24.6726 24.4085 25.8654 24.5098C27.1597 24.6364 28.3525 25.3454 28.8855 26.5356C29.3169 27.4978 29.7737 28.3334 30.5858 29.0424C31.2964 29.6501 32.1593 30.1565 33.0983 30.3844C34.4179 30.7136 35.3823 30.8402 36.2198 32.081C37.0065 33.2711 36.702 34.208 36.6259 35.4994C36.5497 36.4616 36.7781 37.4491 37.1588 38.3354C37.5395 39.1963 38.0978 39.804 38.783 40.4371C39.8489 41.3993 40.2296 42.8679 39.7981 44.2353C39.519 45.1722 38.7069 45.6786 38.2247 46.4889C37.6917 47.3245 37.4126 48.2867 37.3111 49.249C37.2096 50.4897 37.8694 51.6292 37.6917 52.8446C37.4633 54.4905 36.3213 55.5287 34.7986 55.9338C33.682 56.2377 32.6668 56.8707 31.9055 57.7063C31.0172 58.6939 30.9157 59.808 30.2813 60.8715C29.5199 62.1883 27.7688 62.9226 26.3222 62.5428C25.231 62.2642 24.3174 61.9857 23.1753 62.1376C22.1602 62.2895 21.1704 62.6694 20.3583 63.3024C19.1148 64.3153 18.0235 64.6951 16.4501 64.2646C15.1811 63.9101 14.6228 65.8852 15.8917 66.2397C16.9576 66.5436 18.0743 66.6195 19.1402 66.3663C20.4091 66.0625 21.0689 65.1509 22.1856 64.5938C23.353 64.0114 24.4189 64.1633 25.5863 64.5178C26.8298 64.8977 28.1495 64.7711 29.3423 64.2393C30.3828 63.7835 31.3218 63.0492 31.9562 62.087C32.7683 60.8209 32.7683 59.4282 34.1134 58.4913C35.0778 57.8076 36.3213 57.8076 37.3111 57.124C38.3262 56.415 39.1129 55.3008 39.519 54.136C39.925 52.9459 39.7981 51.933 39.4936 50.7683C39.1637 49.4515 39.4936 48.0842 40.3819 47.0713C41.9299 45.2988 42.5136 43.0452 41.5493 40.7916C41.0671 39.7027 40.255 39.2216 39.5444 38.3607C38.6307 37.2466 38.6815 36.0564 38.8591 34.765C39.1637 32.3595 37.7933 29.9033 35.5853 28.8905C34.4941 28.384 33.3267 28.536 32.3115 27.8016C31.1188 26.9407 30.9919 25.6999 30.1544 24.6364C28.6824 22.788 25.8908 21.9524 23.6829 22.8639C22.4901 23.345 21.4242 23.5983 20.1553 23.0918C19.0387 22.636 18.3281 21.8511 17.0591 21.6485C15.8664 21.4712 14.5974 21.6485 13.5062 22.1803C12.288 22.788 11.8312 23.6742 11.0191 24.6618C10.2577 25.5987 9.01421 26.0291 7.8468 26.0038C6.60326 25.9785 5.56275 26.1557 4.49686 26.8647C3.55786 27.4978 2.77113 28.384 2.31432 29.4222C1.80675 30.5617 2.11129 31.7011 1.73062 32.8153C1.29919 34.0814 0.436323 34.6384 -0.604189 35.3474C-1.56857 35.9805 -2.25378 37.044 -2.60908 38.1328C-2.98975 39.2976 -3.04051 40.6143 -2.63446 41.7791C-2.20303 43.0452 -1.31478 43.8302 -1.36554 45.2735C-1.4163 46.6408 -2.3553 47.6537 -2.45681 49.0211C-2.55832 50.4391 -2.10151 51.8824 -1.26403 52.9965C-0.629568 53.8322 0.131783 54.2626 1.02003 54.7184C2.49197 55.4781 2.99954 56.7695 3.20256 58.3141C3.53248 60.9222 6.19721 63.0998 8.83656 63.0239C10.3593 62.9732 11.6282 62.7453 12.8717 63.8848C13.3031 64.29 13.5823 64.8217 14.0391 65.2268C14.5974 65.708 15.2319 66.0118 15.9171 66.265C17.1353 66.6955 17.6682 64.7204 16.4501 64.2646Z" fill="#FF5848"></path><path d="M14.9251 77.6239C13.9205 77.2733 13.0163 76.7474 12.3633 75.8959C11.861 75.2448 11.3838 74.6437 10.756 74.1178C9.52531 73.1411 8.04351 72.4399 6.48636 72.1895C4.80363 71.8889 3.14602 72.5651 1.48841 72.2145C-0.571048 71.7637 -2.55516 70.1609 -3.30862 68.1825C-3.88627 66.6798 -3.68535 65.052 -4.38858 63.5494C-5.0918 62.0468 -6.22199 60.6944 -7.62845 59.7678C-9.00979 58.8412 -10.3911 58.6158 -11.3958 57.1382C-12.5511 55.4603 -13.1538 52.9559 -12.2748 51.0275C-11.5716 49.4999 -10.9437 48.1976 -10.9186 46.4445C-10.8934 44.8668 -11.2451 43.1889 -12.0487 41.8115C-12.5259 41.0101 -13.0282 40.3589 -13.2543 39.4323C-13.5054 38.3053 -13.405 37.0532 -13.0785 35.9512C-12.7771 35.0246 -12.325 34.123 -11.6469 33.4218C-11.019 32.7456 -10.2153 32.4702 -9.46187 31.9442C-8.13076 31.0176 -7.07591 29.6903 -6.42292 28.2127C-5.7448 26.7352 -5.7448 25.3828 -5.66946 23.805C-5.569 21.7515 -4.03696 19.8982 -2.32912 18.8965C-0.596163 17.8947 0.910757 18.3706 2.74417 18.0951C4.37667 17.8697 5.93382 17.1685 7.23982 16.1417C8.59604 15.0648 9.17369 13.3618 10.5299 12.3601C12.1875 11.1329 14.6237 10.6821 16.6078 11.3333C18.1901 11.8592 19.2952 13.1364 20.9779 13.5872C22.4346 13.9879 24.0168 14.038 25.4986 13.7124C26.227 13.5622 26.8549 13.2616 27.5079 12.9611C28.5376 12.4853 29.6176 12.3601 30.7477 12.5604C32.7319 12.886 34.7913 14.063 35.6452 15.9413C36.3736 17.5692 37.0015 18.9215 38.433 20.0735C39.6888 21.1003 41.1706 21.8767 42.778 22.1021C44.9128 22.3776 46.5202 23.3793 47.6252 25.2576C48.1527 26.1591 48.5294 27.1859 48.5545 28.2628C48.5796 29.1393 48.228 29.9658 48.1778 30.8423C48.0773 32.4702 48.4792 34.098 49.2075 35.5505C49.5591 36.2267 49.9861 36.8778 50.5135 37.4288C51.1163 38.105 51.92 38.5307 52.4474 39.282C53.5776 40.8598 53.8287 43.0887 53.3264 44.9419C52.8492 46.6699 51.4177 47.5465 50.5386 49.024C49.7349 50.3764 49.308 51.9792 49.2829 53.5319C49.2326 55.2599 50.1619 56.8126 49.9861 58.5406C49.76 60.5942 48.4541 62.7229 46.5955 63.6996C45.8169 64.1254 44.963 64.1504 44.1342 64.451C43.3054 64.7515 42.5268 65.1772 41.8236 65.7031C40.4674 66.7299 39.3121 68.1073 38.7093 69.7101C38.4079 70.5366 38.3075 71.338 37.8052 72.1143C37.2275 73.0159 36.3736 73.7171 35.4443 74.243C34.4899 74.769 33.41 75.0945 32.3049 75.0945C31.3756 75.0945 30.6222 74.769 29.7683 74.4935C28.2362 74.0176 26.5033 74.0677 24.9712 74.4684C23.2885 74.8942 22.1834 75.8208 20.8774 76.8476C19.1696 78.1749 16.8339 78.1749 14.9251 77.6239C13.6693 77.2483 13.1168 79.2267 14.3726 79.5773C16.2562 80.1283 18.3157 80.1784 20.1491 79.5022C21.9574 78.826 23.0625 77.2232 24.8708 76.5971C25.7498 76.2966 26.6791 76.1714 27.5832 76.1964C28.5878 76.2465 29.3915 76.6472 30.3208 76.8977C32.2044 77.4236 34.2388 77.0229 35.9717 76.1964C37.6545 75.37 39.1614 74.0176 39.94 72.2896C40.3167 71.4632 40.392 70.5867 40.819 69.7853C41.3715 68.7334 42.2255 67.8068 43.2049 67.1306C44.8123 66.0537 46.7713 66.0788 48.3536 64.9017C49.9107 63.7497 51.066 62.0718 51.6186 60.2186C51.8948 59.317 52.0204 58.3403 51.9451 57.4137C51.8697 56.5121 51.493 55.7107 51.3172 54.8342C50.9907 53.0811 51.4428 51.0526 52.4976 49.575C52.9748 48.8988 53.6278 48.423 54.105 47.7719C54.6826 46.9705 55.0845 46.0188 55.2854 45.0421C55.6873 43.1638 55.5366 41.1353 54.7329 39.3822C54.3813 38.6059 53.9292 37.8796 53.3264 37.2785C52.6483 36.5773 51.8948 36.1265 51.3423 35.3001C50.2372 33.6723 49.9107 31.7439 50.3126 29.8406C51.1163 26.059 48.7303 21.9268 45.1388 20.5243C44.2849 20.1988 43.4812 20.1737 42.6022 19.9984C41.5976 19.7981 40.6432 19.2721 39.8395 18.646C39.0609 18.045 38.4079 17.2937 37.9558 16.4172C37.5289 15.5657 37.328 14.6891 36.7503 13.9128C34.5653 10.8575 29.9943 9.48005 26.5535 11.1079C24.7954 11.9343 22.962 12.1096 21.1035 11.5086C19.3454 10.9326 18.165 9.5051 16.2562 9.15448C14.3223 8.77883 12.2629 9.1044 10.4797 9.95588C9.70112 10.3315 8.92254 10.8825 8.31977 11.5086C7.64166 12.2098 7.29005 13.1364 6.63705 13.8627C5.38128 15.2651 3.39717 16.1667 1.48841 16.1417C-0.39524 16.1166 -1.95239 16.1918 -3.61 17.2436C-5.2425 18.2453 -6.57361 19.773 -7.27684 21.5511C-7.95495 23.2541 -7.50288 25.0071 -8.08053 26.7352C-8.78376 28.8138 -10.1902 29.8907 -11.9483 30.9926C-13.4552 31.9442 -14.4849 33.547 -15.0375 35.225C-15.6654 37.1533 -15.6905 39.3321 -14.8868 41.1854C-14.5603 41.9617 -13.9826 42.5628 -13.631 43.3141C-13.2041 44.2407 -13.0282 45.2675 -13.0282 46.2692C-13.0282 47.1959 -13.1789 48.1225 -13.5557 48.9739C-13.9324 49.8505 -14.4347 50.5767 -14.6356 51.5284C-15.0375 53.5319 -14.6356 55.6857 -13.6561 57.4638C-12.8524 58.9914 -11.5967 60.2186 -9.98929 60.8947C-8.28145 61.621 -6.95034 62.8482 -6.19688 64.5762C-5.44342 66.3042 -5.7448 68.1574 -4.81554 69.8604C-3.83604 71.5884 -2.22866 72.9658 -0.39524 73.7422C0.433565 74.0928 1.3126 74.3182 2.19164 74.3432C3.17113 74.3933 4.1004 74.0427 5.0799 74.0677C6.8882 74.1178 8.79697 74.9192 10.0025 76.2716C10.6053 76.9227 11.0071 77.649 11.7103 78.225C12.4889 78.8511 13.368 79.2518 14.2972 79.5773C15.6283 80.0281 16.1558 78.0497 14.9251 77.6239Z" fill="#FF5848"></path><path d="M172.229 103.575C173.697 104.408 175.588 103.913 176.422 102.445C177.255 100.978 176.742 99.1172 175.243 98.2661C173.744 97.415 171.884 97.9279 171.051 99.3955C170.217 100.863 170.73 102.724 172.229 103.575Z" fill="#FDB71D"></path><path d="M187.717 112.37C189.185 113.203 191.077 112.708 191.91 111.24C192.743 109.773 192.23 107.912 190.732 107.061C189.264 106.228 187.372 106.723 186.539 108.19C185.737 109.676 186.25 111.536 187.717 112.37Z" fill="#FDB71D"></path><path d="M203.362 121.252C204.829 122.086 206.721 121.591 207.554 120.123C208.388 118.655 207.875 116.795 206.376 115.944C204.908 115.111 203.017 115.606 202.183 117.073C201.381 118.559 201.894 120.419 203.362 121.252Z" fill="#FDB71D"></path><path d="M219.007 130.136C220.474 130.97 222.366 130.474 223.199 129.007C224.033 127.539 223.52 125.679 222.021 124.828C220.522 123.977 218.662 124.489 217.828 125.957C216.995 127.425 217.539 129.303 219.007 130.136Z" fill="#FDB71D"></path><path d="M234.651 139.02C236.119 139.853 238.011 139.358 238.844 137.89C239.677 136.422 239.165 134.562 237.666 133.711C236.167 132.86 234.306 133.373 233.473 134.84C232.64 136.308 233.184 138.186 234.651 139.02Z" fill="#FDB71D"></path><path d="M250.296 147.902C251.764 148.736 253.656 148.241 254.489 146.773C255.322 145.305 254.81 143.445 253.311 142.594C251.812 141.743 249.951 142.256 249.118 143.723C248.285 145.191 248.829 147.069 250.296 147.902Z" fill="#FDB71D"></path><path d="M265.94 156.786C267.408 157.619 269.3 157.124 270.133 155.656C270.966 154.189 270.454 152.328 268.955 151.477C267.456 150.626 265.595 151.139 264.762 152.606C263.929 154.074 264.442 155.935 265.94 156.786Z" fill="#FDB71D"></path><path d="M178.399 92.7075C179.867 93.5409 181.759 93.0457 182.592 91.5781C183.425 90.1104 182.913 88.25 181.414 87.3989C179.915 86.5478 178.054 87.0607 177.221 88.5283C176.388 89.996 176.9 91.8564 178.399 92.7075Z" fill="#FDB71D"></path><path d="M193.888 101.502C195.355 102.336 197.247 101.841 198.08 100.373C198.914 98.9054 198.401 97.045 196.902 96.1939C195.434 95.3605 193.543 95.8556 192.709 97.3233C191.907 98.8087 192.42 100.669 193.888 101.502Z" fill="#FDB71D"></path><path d="M209.533 110.385C211 111.219 212.892 110.723 213.725 109.256C214.559 107.788 214.046 105.928 212.547 105.077C211.079 104.243 209.188 104.738 208.354 106.206C207.552 107.691 208.065 109.552 209.533 110.385Z" fill="#FDB71D"></path><path d="M225.177 119.269C226.645 120.102 228.536 119.607 229.37 118.14C230.203 116.672 229.69 114.812 228.191 113.96C226.693 113.109 224.832 113.622 223.999 115.09C223.165 116.558 223.71 118.436 225.177 119.269Z" fill="#FDB71D"></path><path d="M240.822 128.152C242.29 128.986 244.182 128.491 245.015 127.023C245.848 125.555 245.335 123.695 243.837 122.844C242.338 121.993 240.477 122.506 239.644 123.973C238.811 125.441 239.355 127.319 240.822 128.152Z" fill="#FDB71D"></path><path d="M256.467 137.036C257.934 137.869 259.826 137.374 260.659 135.906C261.493 134.439 260.98 132.578 259.481 131.727C257.982 130.876 256.122 131.389 255.288 132.856C254.455 134.324 254.999 136.202 256.467 137.036Z" fill="#FDB71D"></path><path d="M272.111 145.918C273.578 146.752 275.47 146.257 276.303 144.789C277.137 143.321 276.624 141.461 275.125 140.61C273.626 139.759 271.766 140.272 270.932 141.739C270.099 143.207 270.612 145.067 272.111 145.918Z" fill="#FDB71D"></path><path d="M184.641 81.7158C186.109 82.5492 188 82.054 188.834 80.5864C189.667 79.1187 189.154 77.2583 187.655 76.4072C186.156 75.5561 184.296 76.069 183.463 77.5366C182.629 79.0043 183.142 80.8647 184.641 81.7158Z" fill="#FDB71D"></path><path d="M200.129 90.5102C201.597 91.3436 203.488 90.8485 204.322 89.3808C205.155 87.9132 204.642 86.0528 203.143 85.2017C201.675 84.3683 199.784 84.8634 198.951 86.3311C198.148 87.8165 198.661 89.6769 200.129 90.5102Z" fill="#FDB71D"></path><path d="M215.774 99.394C217.242 100.227 219.133 99.7323 219.967 98.2646C220.8 96.797 220.287 94.9366 218.788 94.0855C217.321 93.2521 215.429 93.7472 214.596 95.2149C213.793 96.7003 214.306 98.5607 215.774 99.394Z" fill="#FDB71D"></path><path d="M231.418 108.277C232.886 109.111 234.778 108.616 235.611 107.148C236.444 105.68 235.932 103.82 234.433 102.969C232.934 102.118 231.073 102.631 230.24 104.098C229.407 105.566 229.951 107.444 231.418 108.277Z" fill="#FDB71D"></path><path d="M247.063 117.16C248.531 117.993 250.423 117.498 251.256 116.031C252.089 114.563 251.577 112.703 250.078 111.852C248.579 111 246.718 111.513 245.885 112.981C245.052 114.449 245.596 116.327 247.063 117.16Z" fill="#FDB71D"></path><path d="M262.708 126.044C264.176 126.877 266.067 126.382 266.901 124.915C267.734 123.447 267.221 121.586 265.722 120.735C264.223 119.884 262.363 120.397 261.53 121.865C260.696 123.332 261.24 125.211 262.708 126.044Z" fill="#FDB71D"></path><path d="M190.811 70.8491C192.279 71.6825 194.171 71.1873 195.004 69.7197C195.837 68.252 195.325 66.3916 193.826 65.5405C192.327 64.6894 190.466 65.2023 189.633 66.6699C188.8 68.1376 189.313 69.998 190.811 70.8491Z" fill="#FDB71D"></path><path d="M206.3 79.6435C207.767 80.4769 209.659 79.9818 210.492 78.5141C211.326 77.0465 210.813 75.1861 209.314 74.335C207.846 73.5016 205.955 73.9967 205.121 75.4644C204.319 76.9498 204.832 78.8102 206.3 79.6435Z" fill="#FDB71D"></path><path d="M221.944 88.5268C223.412 89.3602 225.304 88.8651 226.137 87.3974C226.97 85.9298 226.457 84.0694 224.959 83.2183C223.491 82.3849 221.599 82.88 220.766 84.3477C219.964 85.8331 220.477 87.6935 221.944 88.5268Z" fill="#FDB71D"></path><path d="M237.589 97.4101C239.056 98.2435 240.948 97.7484 241.781 96.2807C242.615 94.8131 242.102 92.9527 240.603 92.1016C239.104 91.2505 237.244 91.7633 236.41 93.231C235.577 94.6986 236.121 96.5768 237.589 97.4101Z" fill="#FDB71D"></path><path d="M253.234 106.294C254.702 107.127 256.593 106.632 257.426 105.165C258.26 103.697 257.747 101.836 256.248 100.985C254.749 100.134 252.889 100.647 252.055 102.115C251.222 103.582 251.766 105.461 253.234 106.294Z" fill="#FDB71D"></path><path d="M268.878 115.177C270.346 116.01 272.238 115.515 273.071 114.047C273.904 112.58 273.392 110.719 271.893 109.868C270.394 109.017 268.533 109.53 267.7 110.998C266.867 112.465 267.411 114.343 268.878 115.177Z" fill="#FDB71D"></path><path d="M196.982 59.9819C198.45 60.8153 200.341 60.3202 201.175 58.8525C202.008 57.3848 201.495 55.5244 199.996 54.6734C198.497 53.8223 196.637 54.3351 195.804 55.8028C194.97 57.2704 195.483 59.1308 196.982 59.9819Z" fill="#FDB71D"></path><path d="M212.47 68.7768C213.937 69.6102 215.829 69.1151 216.662 67.6474C217.496 66.1798 216.983 64.3194 215.484 63.4683C214.016 62.6349 212.125 63.13 211.291 64.5977C210.489 66.0831 211.002 67.9435 212.47 68.7768Z" fill="#FDB71D"></path><path d="M228.115 77.6606C229.582 78.494 231.474 77.9989 232.307 76.5312C233.141 75.0636 232.628 73.2032 231.129 72.3521C229.661 71.5187 227.77 72.0138 226.936 73.4815C226.134 74.9669 226.647 76.8273 228.115 77.6606Z" fill="#FDB71D"></path><path d="M243.759 86.5434C245.227 87.3768 247.119 86.8817 247.952 85.414C248.785 83.9464 248.272 82.086 246.774 81.2349C245.275 80.3838 243.414 80.8966 242.581 82.3643C241.748 83.8319 242.292 85.7101 243.759 86.5434Z" fill="#FDB71D"></path><path d="M259.404 95.4267C260.871 96.2601 262.763 95.765 263.596 94.2973C264.43 92.8297 263.917 90.9693 262.418 90.1182C260.919 89.2671 259.059 89.7799 258.225 91.2476C257.392 92.7152 257.936 94.5934 259.404 95.4267Z" fill="#FDB71D"></path><path d="M275.049 104.311C276.516 105.144 278.408 104.649 279.241 103.181C280.075 101.713 279.562 99.8531 278.063 99.002C276.564 98.1509 274.704 98.6637 273.87 100.131C273.037 101.599 273.581 103.477 275.049 104.311Z" fill="#FDB71D"></path><path d="M203.223 48.9902C204.691 49.8236 206.582 49.3285 207.416 47.8608C208.249 46.3931 207.736 44.5327 206.237 43.6817C204.738 42.8306 202.878 43.3434 202.045 44.8111C201.211 46.2787 201.724 48.1391 203.223 48.9902Z" fill="#FDB71D"></path><path d="M218.711 57.7851C220.179 58.6185 222.071 58.1234 222.904 56.6557C223.737 55.1881 223.225 53.3277 221.726 52.4766C220.258 51.6432 218.366 52.1383 217.533 53.606C216.731 55.0914 217.244 56.9518 218.711 57.7851Z" fill="#FDB71D"></path><path d="M234.356 66.6679C235.824 67.5013 237.715 67.0062 238.549 65.5385C239.382 64.0709 238.869 62.2105 237.37 61.3594C235.903 60.526 234.011 61.0211 233.178 62.4888C232.375 63.9742 232.888 65.8346 234.356 66.6679Z" fill="#FDB71D"></path><path d="M250.001 75.5517C251.469 76.3851 253.36 75.89 254.194 74.4223C255.027 72.9547 254.514 71.0943 253.015 70.2432C251.516 69.3921 249.656 69.9049 248.823 71.3726C247.989 72.8402 248.533 74.7184 250.001 75.5517Z" fill="#FDB71D"></path><path d="M265.645 84.4346C267.113 85.2679 269.005 84.7728 269.838 83.3051C270.671 81.8375 270.159 79.9771 268.66 79.126C267.161 78.2749 265.3 78.7877 264.467 80.2554C263.634 81.7231 264.178 83.6012 265.645 84.4346Z" fill="#FDB71D"></path><path d="M209.394 38.123C210.861 38.9564 212.753 38.4613 213.586 36.9936C214.42 35.526 213.907 33.6656 212.408 32.8145C210.909 31.9634 209.049 32.4762 208.215 33.9439C207.382 35.4115 207.895 37.2719 209.394 38.123Z" fill="#FDB71D"></path><path d="M224.882 46.9179C226.349 47.7513 228.241 47.2562 229.074 45.7885C229.908 44.3209 229.395 42.4605 227.896 41.6094C226.428 40.776 224.537 41.2711 223.703 42.7388C222.901 44.2242 223.414 46.0846 224.882 46.9179Z" fill="#FDB71D"></path><path d="M240.526 55.8012C241.994 56.6346 243.886 56.1395 244.719 54.6718C245.552 53.2042 245.039 51.3438 243.541 50.4927C242.073 49.6593 240.181 50.1544 239.348 51.6221C238.546 53.1075 239.059 54.9679 240.526 55.8012Z" fill="#FDB71D"></path><path d="M256.171 64.6845C257.639 65.5179 259.531 65.0228 260.364 63.5551C261.197 62.0875 260.685 60.2271 259.186 59.376C257.687 58.5249 255.826 59.0377 254.993 60.5054C254.16 61.9731 254.704 63.8512 256.171 64.6845Z" fill="#FDB71D"></path><path d="M271.816 73.5679C273.284 74.4012 275.175 73.9061 276.009 72.4384C276.842 70.9708 276.329 69.1104 274.83 68.2593C273.331 67.4082 271.471 67.921 270.638 69.3887C269.804 70.8564 270.348 72.7345 271.816 73.5679Z" fill="#FDB71D"></path><path d="M215.635 27.1318C217.102 27.9652 218.994 27.4701 219.827 26.0024C220.661 24.5347 220.148 22.6743 218.649 21.8233C217.15 20.9722 215.29 21.485 214.456 22.9527C213.623 24.4203 214.136 26.2807 215.635 27.1318Z" fill="#FDB71D"></path><path d="M231.123 35.9267C232.591 36.7601 234.482 36.265 235.316 34.7973C236.149 33.3297 235.636 31.4693 234.137 30.6182C232.67 29.7848 230.778 30.2799 229.945 31.7476C229.143 33.233 229.655 35.0934 231.123 35.9267Z" fill="#FDB71D"></path><path d="M246.768 44.8095C248.235 45.6429 250.127 45.1478 250.96 43.6801C251.794 42.2125 251.281 40.3521 249.782 39.501C248.314 38.6676 246.423 39.1627 245.589 40.6304C244.787 42.1158 245.3 43.9762 246.768 44.8095Z" fill="#FDB71D"></path><path d="M262.413 53.6933C263.88 54.5267 265.772 54.0316 266.605 52.5639C267.439 51.0963 266.926 49.2359 265.427 48.3848C263.928 47.5337 262.068 48.0465 261.234 49.5142C260.401 50.9818 260.945 52.86 262.413 53.6933Z" fill="#FDB71D"></path><path d="M278.057 62.5762C279.525 63.4095 281.416 62.9144 282.25 61.4467C283.083 59.9791 282.57 58.1187 281.071 57.2676C279.572 56.4165 277.712 56.9293 276.879 58.397C276.045 59.8647 276.589 61.7428 278.057 62.5762Z" fill="#FDB71D"></path><path d="M221.805 16.2646C223.273 17.098 225.164 16.6029 225.998 15.1352C226.831 13.6676 226.318 11.8072 224.819 10.9561C223.321 10.105 221.46 10.6178 220.627 12.0855C219.793 13.5531 220.306 15.4135 221.805 16.2646Z" fill="#FDB71D"></path><path d="M237.293 25.0595C238.761 25.8929 240.653 25.3978 241.486 23.9301C242.319 22.4625 241.807 20.6021 240.308 19.751C238.84 18.9176 236.948 19.4127 236.115 20.8804C235.313 22.3658 235.826 24.2262 237.293 25.0595Z" fill="#FDB71D"></path><path d="M252.938 33.9424C254.406 34.7757 256.297 34.2806 257.131 32.813C257.964 31.3453 257.451 29.4849 255.952 28.6338C254.485 27.8004 252.593 28.2955 251.76 29.7632C250.957 31.2486 251.47 33.109 252.938 33.9424Z" fill="#FDB71D"></path><path d="M268.583 42.8261C270.051 43.6595 271.942 43.1644 272.776 41.6967C273.609 40.2291 273.096 38.3687 271.597 37.5176C270.098 36.6665 268.238 37.1793 267.405 38.647C266.571 40.1147 267.115 41.9928 268.583 42.8261Z" fill="#FDB71D"></path><path d="M133.3 210.599H50.085V276.42H133.3V210.599Z" fill="#822E91"></path><path d="M91.6703 252.095C114.637 252.095 133.256 233.477 133.256 210.51C133.256 187.543 114.637 168.925 91.6703 168.925C68.7033 168.925 50.085 187.543 50.085 210.51C50.085 233.477 68.7033 252.095 91.6703 252.095Z" fill="#822E91"></path><path d="M80.8276 148.821V170.245C80.8276 180.978 88.4761 189.641 97.8994 189.641C107.323 189.641 114.971 180.936 114.971 170.245V148.821H80.8276Z" fill="#06A6EA"></path><path d="M125.212 95.094C131.511 82.3789 130.667 69.1236 123.326 65.4873C115.986 61.8511 104.929 69.211 98.6303 81.9261C92.3316 94.6411 93.1762 107.896 100.517 111.533C107.857 115.169 118.914 107.809 125.212 95.094Z" fill="#11B790"></path><path d="M134.282 119.241C138.465 128.707 144.212 141.384 139.649 152.286C135.761 161.582 124.986 166.019 115.309 167.921C90.8421 172.78 68.4883 163.653 60.037 142.989C52.135 123.678 59.4454 108.254 80.5737 98.5352C105.505 87.1259 125.028 98.2817 134.282 119.241Z" fill="#06A6EA"></path><path d="M90.7698 111.297C98.2845 111.252 104.315 101.075 104.24 88.566C104.165 76.057 98.0121 65.953 90.4973 65.9982C82.9825 66.0434 76.9516 76.2207 77.0269 88.7297C77.1021 101.239 83.255 111.343 90.7698 111.297Z" fill="#11B790"></path><path d="M72.4181 118.227C81.2164 118.227 88.3489 111.094 88.3489 102.296C88.3489 93.4977 81.2164 86.3652 72.4181 86.3652C63.6198 86.3652 56.4873 93.4977 56.4873 102.296C56.4873 111.094 63.6198 118.227 72.4181 118.227Z" fill="#11B790"></path><path d="M52.262 140.285C62.6239 140.285 71.024 131.885 71.024 121.523C71.024 111.161 62.6239 102.761 52.262 102.761C41.9 102.761 33.5 111.161 33.5 121.523C33.5 131.885 41.9 140.285 52.262 140.285Z" fill="#11B790"></path><path d="M148.988 123.425C147.847 121.185 145.311 120.044 142.522 119.917C138.888 119.748 135.254 119.79 131.62 119.495L142.269 133.482C147.762 133.186 151.016 127.439 148.988 123.425Z" fill="#06A6EA"></path><path d="M73.1786 160.104L39.5845 135.383L60.1635 119.157L73.1786 160.104Z" fill="#11B790"></path><path d="M61.3472 145.905C65.6997 154.61 72.7143 161.033 81.3347 164.879C83.6165 158.92 85.18 152.117 85.7293 144.849C87.1238 126.805 82.0108 110.705 73.4326 102.465C58.3047 112.353 53.9945 127.27 61.3472 145.905Z" fill="#11B790"></path><path d="M136.86 113.916C139.945 120.17 140.663 126.086 138.466 127.185C136.269 128.241 129.634 125.495 126.592 119.241C123.549 112.987 125.155 105.634 127.352 104.535C129.507 103.479 133.775 107.705 136.86 113.916Z" stroke="#FDB71D" stroke-width="2.61" stroke-miterlimit="10"></path><path d="M126.592 119.241L79.1797 138.806" stroke="#FDB71D" stroke-width="2.61" stroke-miterlimit="10"></path><path d="M96.4996 151.821C100.497 147.224 98.3119 138.781 91.6198 132.961C84.9278 127.142 76.2626 126.15 72.2656 130.747C68.2685 135.343 70.4533 143.787 77.1454 149.606C83.8374 155.426 92.5026 156.417 96.4996 151.821Z" fill="#06A6EA"></path><path d="M78.5033 130.819C76.6017 131.284 74.8692 132.425 74.0663 134.242C73.3057 136.017 73.4325 138.003 73.9818 139.82C75.2073 143.834 78.292 147.553 81.9261 149.623C83.9121 150.722 86.194 151.356 88.4336 150.807C89.8281 150.469 89.2365 148.313 87.842 148.651C87.7575 148.694 87.6307 148.694 87.5462 148.736C87.504 148.736 87.2504 148.778 87.3772 148.778C87.5462 148.736 87.2082 148.778 87.1659 148.778C87.0391 148.778 86.9124 148.778 86.8279 148.778C86.6166 148.778 86.4476 148.778 86.2363 148.778C86.1518 148.778 86.025 148.778 85.9405 148.736C85.7292 148.736 86.1095 148.778 85.856 148.736C85.4334 148.651 85.0108 148.567 84.6305 148.44C84.4192 148.356 84.2502 148.313 84.0389 148.229C83.8699 148.144 84.1657 148.271 83.9122 148.187C83.8276 148.144 83.7009 148.102 83.6164 148.06C83.1938 147.849 82.8135 147.637 82.3909 147.384C82.2219 147.257 82.0106 147.13 81.8416 147.003C81.7571 146.919 81.6303 146.877 81.5458 146.792C81.5035 146.75 81.4613 146.75 81.419 146.708C81.25 146.581 81.6303 146.877 81.3767 146.665C80.6161 146.074 79.8978 145.398 79.2639 144.679C78.5878 143.919 78.2075 143.412 77.6159 142.482C77.3624 142.059 77.1088 141.637 76.8975 141.214C76.813 141.003 76.6862 140.834 76.6017 140.623C76.5595 140.538 76.5172 140.454 76.475 140.369C76.3905 140.2 76.5172 140.538 76.475 140.369C76.4327 140.327 76.4327 140.242 76.3904 140.2C76.2214 139.778 76.0947 139.355 75.9679 138.932C75.9256 138.721 75.8834 138.552 75.8411 138.341C75.8411 138.256 75.7989 138.172 75.7989 138.087C75.7989 138.003 75.7566 137.707 75.7566 137.961C75.7143 137.58 75.6721 137.158 75.7144 136.777C75.7144 136.693 75.7144 136.608 75.7144 136.524C75.7144 136.482 75.7566 136.186 75.7144 136.355C75.6721 136.524 75.7143 136.228 75.7566 136.186C75.7566 136.101 75.7989 136.017 75.7989 135.932C75.8411 135.721 75.9256 135.552 75.9679 135.341C76.0101 135.214 75.9256 135.425 75.9256 135.425C75.9679 135.383 75.9679 135.298 76.0101 135.256C76.0524 135.172 76.0947 135.087 76.1369 135.003C76.1792 134.918 76.2214 134.834 76.3059 134.749C76.3482 134.665 76.5172 134.453 76.3482 134.665C76.475 134.495 76.6017 134.369 76.7708 134.242C76.8553 134.157 76.9398 134.115 77.0243 134.031C77.1088 133.946 76.9821 134.073 76.9821 134.073C77.0243 134.031 77.1088 133.988 77.1511 133.946C77.3201 133.819 77.5314 133.693 77.7427 133.608C77.8694 133.566 77.9539 133.481 78.0807 133.439C77.8694 133.524 78.2075 133.397 78.2498 133.355C78.5033 133.27 78.7991 133.186 79.0526 133.101C80.4894 132.594 79.8978 130.481 78.5033 130.819Z" fill="#153867"></path><path d="M81.6724 115.353C81.6724 115.353 115.435 120.593 126.422 92.3654L100.561 90.5483L81.6724 115.353Z" fill="#11B790"></path><path d="M123.295 74.5756C122.281 80.3225 121.774 86.323 118.816 91.5206C118.098 92.746 120.041 93.8869 120.718 92.6615C123.76 87.2949 124.352 81.1677 125.45 75.1672C125.535 74.5756 125.281 73.984 124.69 73.815C124.098 73.646 123.38 73.984 123.295 74.5756Z" fill="#153867"></path><path d="M36.7534 115.1C36.4154 117.044 36.4577 119.114 36.6689 121.058C37.1338 125.157 38.5705 129.129 41.4017 132.172C43.43 134.369 46.0499 135.89 48.8389 136.862C50.1911 137.327 50.7827 135.172 49.4305 134.707C47.1486 133.904 45.078 132.721 43.43 131.073C43.0497 130.693 42.7116 130.312 42.3736 129.89C42.1623 129.636 42.2046 129.678 41.9933 129.425C41.8243 129.214 41.6975 129.002 41.5285 128.749C41.2749 128.326 41.0214 127.904 40.7678 127.481C40.6411 127.27 40.5566 127.059 40.4298 126.847C40.3875 126.72 40.3453 126.636 40.2608 126.509C40.2185 126.467 40.0917 126.129 40.1762 126.298C39.8382 125.453 39.5424 124.565 39.2889 123.678C39.1621 123.255 39.0776 122.833 38.9931 122.41C38.9508 122.199 38.9085 121.988 38.8663 121.776C38.8663 121.692 38.824 121.565 38.824 121.481C38.824 121.438 38.824 121.396 38.824 121.354C38.7818 121.185 38.8663 121.65 38.824 121.354C38.655 120.002 38.6127 118.649 38.655 117.255C38.655 116.79 38.6973 116.325 38.7395 115.86C38.7395 115.776 38.7395 115.691 38.7818 115.649C38.824 115.396 38.7818 115.776 38.7818 115.776C38.7818 115.734 38.7818 115.691 38.7818 115.649C38.8663 115.058 38.6127 114.466 38.0211 114.297C37.5986 114.17 36.8802 114.508 36.7534 115.1Z" fill="#153867"></path><path d="M62.4881 98.9998C62.5303 98.6617 62.6148 98.3659 62.6993 98.0701C62.7839 97.7321 62.9106 97.3518 63.0374 97.0137C63.0797 96.9292 63.1219 96.8024 63.1642 96.7179C63.2487 96.4644 63.1219 96.8447 63.1642 96.6757C63.2487 96.4644 63.3755 96.2108 63.5022 95.9996C63.7135 95.5347 64.0093 95.1122 64.2628 94.6896C64.3474 94.5628 64.4319 94.4783 64.5164 94.3516C64.5586 94.3093 64.6009 94.267 64.6009 94.2248C64.4319 94.4361 64.5586 94.267 64.6009 94.2248C64.7699 94.0135 64.9812 93.76 65.1925 93.5487C65.4038 93.3374 65.6151 93.1261 65.8263 92.9571C66.1644 92.6613 66.0799 92.7035 66.4179 92.4923C66.6715 92.3232 66.925 92.1542 67.2208 92.0274C67.3476 91.9429 67.4744 91.9007 67.6434 91.8162C67.7279 91.7739 67.8124 91.7316 67.8969 91.6894C67.9814 91.6471 67.9392 91.6471 67.8547 91.6894C67.9392 91.6471 67.9814 91.6471 68.066 91.6049C68.4463 91.4781 68.8266 91.3513 69.2069 91.2668C69.3759 91.2246 69.5872 91.1823 69.7562 91.14C70.0098 91.0978 69.9253 91.0978 70.221 91.0555C71.193 90.971 72.1649 90.971 73.1368 91.14C73.7284 91.2246 74.3199 91.0133 74.489 90.3794C74.6157 89.8723 74.3199 89.1117 73.7283 89.0272C70.3056 88.5201 66.8405 89.0695 64.2206 91.4358C62.5303 92.9148 61.3894 94.9854 60.7133 97.0982C60.5865 97.5208 60.4597 97.9856 60.3752 98.4082C60.2907 98.9998 60.5442 99.5914 61.1358 99.7604C61.6429 99.8872 62.4035 99.5914 62.4881 98.9998Z" fill="#153867"></path><path d="M52.9799 143.285C55.4731 145.102 57.9662 146.962 60.4594 148.779C64.3892 151.694 68.3614 154.61 72.2912 157.526C73.1786 158.202 74.1083 158.878 74.9957 159.554C75.4605 159.892 76.2211 159.639 76.5169 159.174C76.855 158.625 76.6014 157.991 76.1366 157.653C73.6435 155.836 71.1503 153.976 68.6572 152.159C64.7273 149.244 60.7551 146.328 56.8253 143.412C55.9379 142.736 55.0082 142.06 54.1208 141.384C53.656 141.046 52.8954 141.299 52.5996 141.764C52.2615 142.313 52.5151 142.947 52.9799 143.285Z" fill="#153867"></path><path d="M58.9384 134.285C60.6287 136.271 62.2767 138.214 63.967 140.2C66.6292 143.327 69.3336 146.497 71.9958 149.624C72.6296 150.342 73.2212 151.06 73.855 151.779C74.2354 152.244 75.0382 152.159 75.4186 151.779C75.8834 151.314 75.7989 150.68 75.4186 150.215C73.7283 148.229 72.0803 146.285 70.39 144.299C67.7278 141.172 65.0234 138.003 62.3612 134.876C61.7274 134.158 61.1358 133.439 60.5019 132.721C60.1216 132.256 59.3187 132.341 58.9384 132.721C58.4736 133.144 58.5159 133.82 58.9384 134.285Z" fill="#153867"></path><path d="M54.4168 137.538C57.4171 140.327 60.4173 143.074 63.4175 145.863C63.8401 146.243 64.2627 146.666 64.6852 147.046C65.7416 148.018 67.3051 146.454 66.2487 145.482C63.2485 142.693 60.2483 139.947 57.248 137.158C56.8255 136.777 56.4029 136.355 55.9803 135.975C54.9662 135.003 53.3604 136.566 54.4168 137.538Z" fill="#153867"></path><path d="M82.3483 111.001C85.0527 111.466 87.8839 111.508 90.6306 111.381C96.5465 111.043 102.462 109.564 107.618 106.522C111.21 104.409 114.252 101.535 116.745 98.197C117.083 97.7322 116.83 96.9716 116.365 96.6758C115.816 96.3377 115.182 96.5913 114.844 97.0561C110.914 102.38 105.294 105.972 99.0397 107.747C97.6875 108.127 96.3353 108.423 94.9408 108.677C94.6027 108.719 94.3069 108.761 93.9689 108.846C93.8844 108.846 93.8421 108.846 93.7576 108.888C93.5886 108.93 93.4195 108.93 93.2505 108.972C92.6167 109.057 92.0251 109.099 91.3912 109.142C89.4051 109.268 87.4191 109.311 85.4753 109.184C84.7992 109.141 84.1231 109.057 83.4892 109.015C83.447 109.015 83.3624 108.972 83.3202 108.972C83.4047 108.93 83.6582 109.015 83.4469 108.972C83.3624 108.972 83.3202 108.93 83.2357 108.93C83.1512 108.93 83.1089 108.93 83.0666 108.888C82.475 108.803 81.8834 109.057 81.7144 109.649C81.4186 110.156 81.7567 110.874 82.3483 111.001Z" fill="#153867"></path><path d="M228.298 276.937C226.086 276.152 225.373 274.542 223.761 273.12C222.374 271.885 220.612 270.987 218.813 270.576C216.901 270.127 215.364 270.613 213.49 270.613C210.94 270.613 208.316 268.742 207.154 266.534C206.217 264.775 206.517 262.717 205.767 260.846C205.017 259.012 203.818 257.403 202.243 256.205C200.969 255.232 199.357 254.896 198.157 253.81C196.17 252.052 195.158 248.758 195.983 246.214C196.545 244.417 197.557 243.108 197.745 241.162C197.932 239.216 197.67 237.195 196.882 235.436C196.433 234.463 195.72 233.677 195.308 232.667C194.783 231.357 194.708 229.935 195.008 228.588C195.57 225.781 197.032 224.658 199.244 223.236C202.543 221.066 203.968 217.436 204.043 213.656C204.08 211.261 205.58 209.091 207.567 207.818C209.628 206.509 211.54 207.07 213.827 206.733C215.627 206.471 217.351 205.76 218.851 204.675C220.5 203.477 221.175 201.756 222.562 200.371C224.211 198.725 226.91 198.051 229.16 198.425C231.297 198.762 232.796 200.521 234.82 201.195C236.582 201.793 238.532 201.906 240.369 201.606C242.768 201.195 244.455 199.735 247.004 200.147C249.253 200.521 251.503 201.831 252.515 203.926C253.452 205.872 254.127 207.482 255.851 208.941C257.238 210.101 258.888 211.037 260.65 211.373C263.274 211.897 265.186 212.496 266.685 214.929C267.96 216.987 267.735 218.671 267.473 220.916C267.21 222.862 267.548 224.808 268.335 226.604C269.047 228.251 270.059 229.486 271.409 230.646C273.433 232.442 274.183 235.174 273.621 237.831C273.133 240.002 271.559 240.937 270.434 242.733C269.422 244.305 268.86 246.176 268.71 248.047C268.56 250.255 269.685 252.201 269.535 254.297C269.31 257.216 267.173 260.097 264.324 260.883C262.112 261.482 260.275 262.268 258.588 263.952C256.826 265.711 256.414 267.619 255.514 269.752C254.389 272.372 251.053 274.168 248.241 273.906C247.042 273.794 245.954 273.158 244.792 272.971C243.743 272.784 242.656 272.784 241.606 272.896C239.581 273.12 237.557 273.869 235.945 275.216C233.658 277.199 231.372 277.798 228.298 276.937C226.423 276.414 225.598 279.332 227.473 279.856C229.835 280.53 232.384 280.605 234.708 279.669C236.845 278.846 238.157 276.937 240.369 276.226C242.73 275.478 244.38 276.114 246.629 276.713C249.103 277.349 251.803 276.75 253.977 275.515C255.889 274.43 257.538 272.784 258.401 270.725C259.413 268.293 259.9 266.347 262.337 264.813C264.174 263.69 266.311 263.69 268.11 262.418C270.209 260.921 271.784 258.526 272.346 256.018C272.834 253.81 272.196 252.126 271.821 249.993C271.446 247.823 272.121 245.203 273.621 243.557C274.97 242.022 276.095 240.713 276.582 238.654C277.145 236.184 276.882 233.49 275.72 231.207C274.745 229.299 272.871 228.326 271.746 226.604C270.284 224.359 270.434 222.263 270.809 219.794C271.484 215.378 268.297 210.588 264.211 209.016C262.037 208.193 259.975 208.38 258.026 206.808C256.076 205.236 255.776 202.953 254.314 201.082C251.503 197.415 246.179 195.993 241.943 197.864C239.881 198.762 237.82 199.024 235.608 198.276C234.483 197.864 233.696 197.116 232.684 196.517C231.634 195.881 230.472 195.544 229.272 195.394C226.948 195.095 224.511 195.544 222.487 196.666C220.462 197.789 219.675 199.511 218.213 201.157C216.789 202.766 214.464 203.814 212.328 203.777C210.003 203.739 208.054 203.889 206.03 205.161C204.08 206.396 202.468 208.23 201.606 210.4C200.781 212.534 201.381 214.779 200.556 216.875C199.657 219.195 198.082 220.243 196.095 221.515C194.146 222.787 192.871 224.883 192.234 227.091C191.597 229.336 191.634 231.881 192.571 234.014C192.946 234.875 193.583 235.586 193.996 236.446C194.596 237.719 194.821 239.178 194.708 240.563C194.521 243.145 192.721 245.054 192.646 247.711C192.571 250.33 193.508 253.025 195.158 255.045C196.77 256.991 199.019 257.328 200.781 258.937C201.756 259.835 202.543 260.958 202.993 262.156C203.48 263.428 203.33 264.738 203.668 266.048C204.905 270.8 210.116 274.168 214.952 273.457C217.426 273.083 219.863 273.644 221.775 275.366C222.674 276.189 223.237 277.274 224.211 278.06C225.186 278.846 226.311 279.37 227.473 279.782C229.347 280.53 230.134 277.574 228.298 276.937Z" fill="#FF5848"></path><path d="M229.75 267.73C228.061 267.13 227.46 265.745 226.147 264.659C224.983 263.685 223.519 263.011 222.018 262.749C220.554 262.487 219.241 262.936 217.852 262.824C215.938 262.674 213.836 261.026 213.273 259.154C212.86 257.769 212.973 256.42 212.335 255.035C211.659 253.612 210.571 252.301 209.257 251.403C208.244 250.728 207.156 250.541 206.292 249.643C204.791 248.07 204.416 245.636 205.317 243.688C206.518 241.142 206.855 238.333 205.617 235.675C204.754 233.877 203.778 232.641 204.303 230.469C204.791 228.447 205.992 227.773 207.569 226.65C209.82 225.04 211.209 222.343 211.284 219.572C211.322 217.7 211.96 216.165 213.574 215.004C215.187 213.88 216.651 214.292 218.453 214.068C221.418 213.656 223.257 211.97 224.946 209.686C226.071 208.151 228.098 207.364 229.975 207.589C231.739 207.776 233.015 209.274 234.704 209.799C236.017 210.21 237.406 210.323 238.757 210.136C240.484 209.873 241.91 208.787 243.674 208.937C245.588 209.125 247.352 210.173 248.14 211.933C248.778 213.356 249.454 214.592 250.655 215.64C251.705 216.539 252.981 217.288 254.37 217.625C256.322 218.112 257.748 218.299 258.986 220.134C260.15 221.894 259.7 223.28 259.587 225.189C259.474 226.612 259.812 228.073 260.375 229.384C260.938 230.657 261.764 231.555 262.777 232.492C264.353 233.915 264.916 236.087 264.278 238.109C263.866 239.494 262.665 240.243 261.951 241.442C261.163 242.677 260.75 244.1 260.6 245.523C260.45 247.358 261.426 249.043 261.163 250.841C260.826 253.275 259.137 254.81 256.885 255.409C255.233 255.859 253.732 256.795 252.606 258.031C251.293 259.491 251.142 261.139 250.204 262.712C249.078 264.659 246.489 265.745 244.349 265.183C242.735 264.771 241.384 264.359 239.695 264.584C238.194 264.809 236.73 265.37 235.529 266.307C233.69 267.804 232.077 268.366 229.75 267.73C227.873 267.205 227.047 270.126 228.924 270.65C230.5 271.1 232.152 271.212 233.728 270.838C235.604 270.388 236.58 269.04 238.232 268.216C239.958 267.355 241.534 267.58 243.261 268.104C245.1 268.666 247.052 268.479 248.815 267.692C250.354 267.018 251.743 265.932 252.681 264.509C253.882 262.637 253.882 260.577 255.871 259.192C257.298 258.181 259.137 258.181 260.6 257.169C262.102 256.121 263.265 254.473 263.866 252.751C264.466 250.991 264.278 249.493 263.828 247.77C263.34 245.823 263.828 243.801 265.142 242.303C267.431 239.682 268.294 236.349 266.868 233.016C266.155 231.406 264.954 230.694 263.903 229.421C262.552 227.773 262.627 226.013 262.89 224.103C263.34 220.546 261.313 216.914 258.048 215.416C256.434 214.667 254.708 214.891 253.207 213.805C251.443 212.532 251.255 210.697 250.016 209.125C247.84 206.391 243.711 205.155 240.446 206.503C238.682 207.215 237.106 207.589 235.229 206.84C233.578 206.166 232.527 205.005 230.65 204.706C228.886 204.444 227.01 204.706 225.396 205.492C223.594 206.391 222.919 207.702 221.718 209.162C220.592 210.548 218.753 211.184 217.026 211.147C215.187 211.109 213.649 211.371 212.072 212.42C210.684 213.356 209.52 214.667 208.845 216.202C208.094 217.887 208.544 219.572 207.981 221.22C207.343 223.092 206.067 223.916 204.528 224.965C203.102 225.901 202.089 227.474 201.564 229.084C201.001 230.807 200.925 232.754 201.526 234.476C202.164 236.349 203.478 237.51 203.403 239.644C203.327 241.666 201.939 243.164 201.789 245.186C201.639 247.283 202.314 249.418 203.553 251.066C204.491 252.301 205.617 252.938 206.93 253.612C209.107 254.735 209.858 256.645 210.158 258.929C210.646 262.787 214.587 266.007 218.49 265.895C220.742 265.82 222.619 265.483 224.458 267.168C225.096 267.767 225.509 268.553 226.184 269.153C227.01 269.864 227.948 270.313 228.961 270.688C230.763 271.325 231.551 268.404 229.75 267.73Z" fill="#FF5848"></path><path d="M227.495 287.486C226.009 286.968 224.672 286.19 223.706 284.931C222.963 283.968 222.258 283.079 221.329 282.301C219.509 280.857 217.318 279.82 215.015 279.449C212.526 279.005 210.075 280.005 207.624 279.486C204.578 278.82 201.644 276.449 200.53 273.523C199.675 271.301 199.972 268.894 198.932 266.672C197.892 264.449 196.221 262.449 194.141 261.079C192.098 259.709 190.055 259.375 188.57 257.19C186.861 254.709 185.97 251.005 187.27 248.153C188.31 245.894 189.238 243.968 189.275 241.376C189.313 239.042 188.793 236.561 187.604 234.524C186.898 233.339 186.155 232.376 185.821 231.006C185.45 229.339 185.598 227.487 186.081 225.857C186.527 224.487 187.195 223.154 188.198 222.117C189.127 221.117 190.315 220.709 191.43 219.932C193.398 218.561 194.958 216.598 195.924 214.413C196.927 212.228 196.927 210.228 197.038 207.895C197.187 204.858 199.452 202.117 201.978 200.636C204.541 199.154 206.769 199.858 209.481 199.45C211.895 199.117 214.198 198.08 216.129 196.562C218.135 194.969 218.989 192.451 220.995 190.969C223.446 189.154 227.049 188.488 229.983 189.451C232.323 190.228 233.958 192.117 236.446 192.784C238.6 193.376 240.94 193.451 243.132 192.969C244.209 192.747 245.137 192.302 246.103 191.858C247.626 191.154 249.223 190.969 250.895 191.265C253.829 191.747 256.874 193.488 258.137 196.265C259.214 198.673 260.143 200.673 262.26 202.376C264.117 203.895 266.309 205.043 268.686 205.376C271.843 205.784 274.22 207.265 275.854 210.043C276.634 211.376 277.191 212.895 277.229 214.487C277.266 215.784 276.746 217.006 276.671 218.302C276.523 220.709 277.117 223.117 278.194 225.265C278.714 226.265 279.346 227.228 280.126 228.043C281.017 229.043 282.206 229.672 282.986 230.783C284.657 233.117 285.028 236.413 284.286 239.154C283.58 241.709 281.463 243.005 280.163 245.19C278.974 247.19 278.343 249.561 278.306 251.857C278.231 254.413 279.606 256.709 279.346 259.264C279.011 262.301 277.08 265.449 274.331 266.894C273.18 267.523 271.917 267.56 270.691 268.005C269.466 268.449 268.314 269.079 267.274 269.857C265.269 271.375 263.56 273.412 262.669 275.783C262.223 277.005 262.074 278.19 261.332 279.338C260.477 280.671 259.214 281.708 257.84 282.486C256.429 283.264 254.832 283.745 253.197 283.745C251.823 283.745 250.709 283.264 249.446 282.857C247.18 282.153 244.618 282.227 242.352 282.82C239.863 283.449 238.229 284.819 236.298 286.338C233.772 288.301 230.318 288.301 227.495 287.486C225.638 286.931 224.821 289.856 226.678 290.375C229.463 291.19 232.509 291.264 235.22 290.264C237.895 289.264 239.529 286.894 242.203 285.968C243.503 285.523 244.877 285.338 246.215 285.375C247.7 285.449 248.889 286.042 250.263 286.412C253.049 287.19 256.057 286.597 258.62 285.375C261.109 284.153 263.337 282.153 264.489 279.597C265.046 278.375 265.157 277.079 265.789 275.894C266.606 274.338 267.869 272.968 269.317 271.968C271.694 270.375 274.591 270.412 276.931 268.672C279.234 266.968 280.943 264.486 281.76 261.746C282.168 260.412 282.354 258.968 282.243 257.598C282.131 256.264 281.574 255.079 281.314 253.783C280.831 251.19 281.5 248.19 283.06 246.005C283.766 245.005 284.731 244.302 285.437 243.339C286.291 242.153 286.886 240.746 287.183 239.302C287.777 236.524 287.554 233.524 286.366 230.931C285.846 229.783 285.177 228.709 284.286 227.82C283.283 226.783 282.168 226.117 281.351 224.895C279.717 222.487 279.234 219.635 279.828 216.821C281.017 211.228 277.488 205.117 272.177 203.043C270.914 202.562 269.726 202.524 268.426 202.265C266.94 201.969 265.529 201.191 264.34 200.265C263.189 199.376 262.223 198.265 261.554 196.969C260.923 195.71 260.626 194.414 259.772 193.265C256.54 188.747 249.78 186.71 244.692 189.117C242.092 190.34 239.38 190.599 236.632 189.71C234.032 188.858 232.286 186.747 229.463 186.228C226.603 185.673 223.558 186.154 220.921 187.414C219.769 187.969 218.618 188.784 217.726 189.71C216.724 190.747 216.204 192.117 215.238 193.191C213.381 195.265 210.447 196.599 207.624 196.562C204.838 196.525 202.535 196.636 200.084 198.191C197.67 199.673 195.701 201.932 194.661 204.562C193.658 207.08 194.327 209.673 193.472 212.228C192.432 215.302 190.352 216.895 187.753 218.524C185.524 219.932 184.001 222.302 183.184 224.783C182.255 227.635 182.218 230.857 183.407 233.598C183.89 234.746 184.744 235.635 185.264 236.746C185.895 238.117 186.155 239.635 186.155 241.116C186.155 242.487 185.933 243.857 185.375 245.116C184.818 246.413 184.075 247.487 183.778 248.894C183.184 251.857 183.778 255.042 185.227 257.672C186.415 259.931 188.273 261.746 190.65 262.746C193.175 263.82 195.144 265.635 196.258 268.19C197.372 270.746 196.927 273.486 198.301 276.005C199.75 278.56 202.127 280.597 204.838 281.745C206.064 282.264 207.364 282.597 208.664 282.634C210.112 282.708 211.487 282.19 212.935 282.227C215.609 282.301 218.432 283.486 220.215 285.486C221.106 286.449 221.701 287.523 222.741 288.375C223.892 289.301 225.192 289.893 226.566 290.375C228.535 291.042 229.315 288.116 227.495 287.486Z" fill="#FF5848"></path></g></svg> 