<?xml version="1.0" encoding="UTF-8"?> <svg xmlns="http://www.w3.org/2000/svg" width="276" height="275" viewBox="0 0 276 275" fill="none"><circle cx="138" cy="137.5" r="137.5" fill="#302F2F"></circle><mask id="mask0_555_1221" style="mask-type:alpha" maskUnits="userSpaceOnUse" x="0" y="0" width="276" height="275"><circle cx="138" cy="137.5" r="137.5" fill="#302F2F"></circle></mask><g mask="url(#mask0_555_1221)"><path d="M252.069 57.6985C251.651 57.5592 251.261 57.3364 250.954 57.0299C250.815 56.8907 250.732 56.7235 250.564 56.5007C250.425 56.3336 250.286 56.1664 250.119 56.0272C249.395 55.3865 248.475 54.9408 247.528 54.7737C246.999 54.6901 246.525 54.6901 245.996 54.7458C245.606 54.8016 245.272 54.8573 244.854 54.7737C243.935 54.5509 243.099 53.8824 242.654 53.0467C242.459 52.6567 242.459 52.3782 242.403 51.9325C242.347 51.3754 242.208 50.874 241.985 50.3726C241.567 49.4534 240.843 48.6178 239.98 48.1164C239.757 47.9771 239.506 47.8657 239.255 47.7821C239.227 47.7821 239.172 47.7543 239.144 47.7543C239.395 47.8379 239.06 47.6986 239.005 47.6707C238.698 47.4757 238.392 47.1693 238.197 46.8351C237.695 46.0273 237.445 44.9688 237.779 44.0496C237.918 43.6596 238.197 43.2697 238.336 42.8518C238.475 42.3783 238.559 41.8769 238.559 41.4034C238.587 40.4563 238.336 39.4257 237.807 38.6458C237.556 38.2558 237.333 37.9215 237.25 37.3923C237.194 36.8909 237.25 36.3895 237.389 35.9438C237.5 35.5539 237.723 35.136 237.974 34.8296C238.28 34.4675 238.531 34.384 238.921 34.1333C239.757 33.6319 240.453 32.8241 240.871 31.9327C241.094 31.4313 241.261 30.93 241.317 30.4007C241.372 30.0107 241.289 29.5094 241.344 29.203C241.512 28.2837 242.152 27.5038 242.96 27.0303C243.322 26.8074 243.74 26.6682 244.13 26.6403C244.186 26.6403 244.269 26.6403 244.325 26.6403C244.297 26.6403 244.158 26.6125 244.408 26.6403C244.548 26.6403 244.659 26.6682 244.798 26.6682C245.021 26.6682 245.244 26.6682 245.439 26.6403C246.498 26.501 247.445 26.0554 248.252 25.3868C248.615 25.0804 248.921 24.7183 249.144 24.3005C249.339 23.9662 249.534 23.6877 249.868 23.4649C250.648 22.9356 251.679 22.7128 252.598 22.9635C253.099 23.1027 253.322 23.3256 253.712 23.6041C254.102 23.8827 254.548 24.0777 255.021 24.1891C255.94 24.4676 256.999 24.4676 257.946 24.1891C258.392 24.0498 258.782 23.7713 259.227 23.6877C259.701 23.5763 260.23 23.632 260.704 23.7713C261.539 23.9941 262.375 24.5791 262.681 25.3311C262.848 25.7211 263.016 26.2225 263.294 26.6125C263.6 27.0581 263.963 27.4481 264.408 27.7545C264.826 28.0888 265.3 28.3395 265.801 28.5344C266.219 28.7016 266.776 28.7294 267.11 28.7851C268.029 28.9801 268.754 29.7043 269.171 30.5121C269.366 30.93 269.478 31.3478 269.478 31.7935C269.478 32.1834 269.311 32.6291 269.283 33.1026C269.227 34.0776 269.478 35.0803 269.979 35.916C270.202 36.3338 270.508 36.7238 270.871 37.0302C271.233 37.3366 271.483 37.4758 271.706 37.8937C272.152 38.6736 272.263 39.6764 272.013 40.5399C271.901 40.9298 271.706 41.292 271.428 41.5427C271.093 41.8491 270.787 42.2112 270.564 42.6011C270.091 43.4368 269.84 44.4396 269.868 45.3866C269.896 46.3058 270.397 47.1136 270.202 48.0328C269.979 48.9799 269.394 49.8434 268.559 50.2891C268.224 50.4562 267.751 50.4841 267.361 50.6512C266.832 50.8462 266.386 51.0969 265.94 51.4311C265.133 52.0718 264.436 52.9631 264.185 53.9938C264.074 54.4116 263.99 54.6901 263.74 55.0244C263.433 55.3865 263.071 55.6929 262.653 55.8879C262.236 56.1107 261.734 56.25 261.261 56.2779C260.731 56.3057 260.481 56.1386 260.007 55.9993C259.088 55.6929 258.03 55.7208 257.11 55.9993C256.637 56.1386 256.191 56.3336 255.801 56.5843C255.411 56.835 255.133 57.1971 254.77 57.4199C253.935 57.9492 252.932 57.9492 252.069 57.6985C251.038 57.3921 250.592 59.0076 251.623 59.314C252.765 59.6762 254.046 59.6204 255.16 59.1469C255.662 58.9241 256.024 58.5898 256.442 58.2277C256.525 58.1441 256.692 58.0327 256.887 57.9492C257.11 57.8377 257.194 57.782 257.445 57.7263C257.918 57.587 258.225 57.5313 258.698 57.5592C259.088 57.5592 259.478 57.6706 259.812 57.8099C260.982 58.2834 262.375 58.0049 263.433 57.4478C264.436 56.9464 265.272 56.0829 265.662 55.0244C265.829 54.5787 265.857 54.2166 266.107 53.7988C266.33 53.4367 266.637 53.1024 266.971 52.8239C267.361 52.5175 267.779 52.2946 268.224 52.2111C268.754 52.0996 269.227 51.9604 269.673 51.654C270.676 50.9854 271.428 49.927 271.762 48.7849C271.929 48.1721 271.985 47.5593 271.901 46.9465C271.873 46.6958 271.818 46.5008 271.734 46.278C271.706 46.1944 271.678 46.083 271.651 45.9716C271.623 45.9159 271.623 45.8602 271.623 45.8044C271.623 45.7766 271.595 45.6095 271.595 45.7209C271.511 44.8574 271.706 44.0496 272.18 43.3532C272.375 43.0468 272.793 42.7404 273.043 42.3783C273.35 41.9605 273.573 41.4312 273.712 40.9298C273.99 39.7599 273.879 38.5065 273.35 37.4201C273.127 36.9466 272.793 36.5288 272.403 36.1945C272.18 35.9995 272.124 35.9995 271.929 35.8046C271.762 35.6374 271.706 35.5539 271.567 35.3589C271.316 34.9689 271.177 34.6347 271.093 34.189C271.01 33.8826 270.982 33.3533 271.038 33.0748C271.121 32.5455 271.261 32.072 271.205 31.5428C271.149 30.9021 270.954 30.3172 270.648 29.7322C270.091 28.6737 269.171 27.8102 268.057 27.3924C267.834 27.3088 267.612 27.2531 267.389 27.2253C267.054 27.1696 266.943 27.1974 266.692 27.1138C266.247 27.0024 265.885 26.8074 265.495 26.501C265.16 26.2503 264.854 25.8882 264.631 25.5261C264.408 25.1362 264.325 24.6905 264.046 24.2727C263.433 23.2977 262.431 22.6014 261.344 22.2671C260.759 22.0721 260.091 21.9886 259.478 22.0721C259.172 22.1 258.865 22.1557 258.587 22.2392C258.308 22.3507 258.03 22.4899 257.751 22.6014C257.835 22.5735 257.64 22.6292 257.612 22.6571C257.5 22.6849 257.361 22.7128 257.25 22.7406C257.055 22.7963 256.915 22.7963 256.665 22.7963C256.191 22.7963 255.857 22.7685 255.411 22.6014C255.021 22.4899 254.715 22.2671 254.408 22.0443C253.963 21.6821 253.406 21.4593 252.849 21.3479C251.623 21.1251 250.342 21.32 249.255 21.9607C248.754 22.2392 248.336 22.6292 248.002 23.0749C247.723 23.4649 247.612 23.7434 247.305 24.0498C246.748 24.6069 245.857 24.9969 245.133 25.0247C245.021 25.0247 244.91 25.0247 244.798 25.0247C244.743 25.0247 244.687 25.0247 244.631 24.9969C244.715 24.9969 244.854 24.9969 244.464 24.969C244.186 24.9412 243.879 24.9969 243.601 25.0247C243.071 25.1083 242.542 25.3311 242.069 25.6375C241.066 26.2782 240.258 27.2253 239.896 28.3673C239.729 28.8687 239.729 29.3701 239.729 29.8993C239.729 30.1222 239.729 30.2614 239.673 30.4007C239.617 30.6236 239.562 30.8742 239.45 31.0971C239.311 31.4313 239.033 31.8492 238.754 32.1556C238.448 32.4898 238.169 32.6291 237.751 32.8798C236.804 33.409 236.163 34.4118 235.829 35.4424C235.467 36.6402 235.495 38.0051 236.108 39.0914C236.303 39.4535 236.581 39.7599 236.721 40.1499C236.86 40.6234 236.916 40.9298 236.916 41.4034C236.916 41.7933 236.832 42.2112 236.693 42.5733C236.526 42.9633 236.219 43.4368 236.108 43.9103C235.829 45.1359 236.08 46.4451 236.693 47.5314C237.194 48.4228 237.946 49.0635 238.893 49.4256C239.59 49.7041 240.286 50.4841 240.565 51.2083C240.76 51.6818 240.732 51.9882 240.787 52.4618C240.843 53.0467 241.038 53.5759 241.344 54.0773C241.957 55.108 242.96 55.9158 244.102 56.3057C244.631 56.4729 245.188 56.5564 245.746 56.5007C245.913 56.4729 246.052 56.4729 246.191 56.4171C246.219 56.4171 246.525 56.3614 246.386 56.3614C246.609 56.3336 246.832 56.3336 247.055 56.3614C247.083 56.3614 247.11 56.3614 247.25 56.3893C247.361 56.4171 247.473 56.445 247.584 56.4729C247.807 56.5286 247.974 56.5843 248.141 56.6678C248.559 56.8628 248.837 57.0578 249.144 57.3921C249.283 57.5592 249.311 57.6149 249.478 57.8377C249.645 58.0327 249.812 58.2277 250.007 58.3948C250.481 58.7848 251.01 59.0634 251.595 59.2583C252.013 59.3976 252.514 59.0912 252.626 58.6734C252.765 58.2556 252.486 57.8377 252.069 57.6985Z" fill="#F15A4C"></path><path d="M251.4 62.3779C250.843 62.1829 250.341 61.9043 249.924 61.4865C249.589 61.1244 249.283 60.623 248.893 60.2609C248.002 59.4531 246.832 58.896 245.634 58.7289C245.021 58.6453 244.436 58.6175 243.823 58.7289C243.545 58.7846 243.406 58.8403 243.099 58.8125C242.793 58.8125 242.57 58.7846 242.263 58.701C241.094 58.3946 240.035 57.5311 239.478 56.4448C239.367 56.222 239.283 55.9991 239.227 55.7206C239.172 55.4699 239.172 55.247 239.144 54.9406C239.088 54.2721 238.893 53.6593 238.614 53.0465C238.113 51.9323 237.222 50.9017 236.135 50.2889C235.857 50.1496 235.578 50.0103 235.3 49.8989C235.16 49.8432 235.188 49.8432 235.272 49.8989C235.133 49.8432 234.993 49.7596 234.854 49.6761C234.436 49.3975 234.046 48.9518 233.768 48.4783C233.155 47.4198 232.849 45.9992 233.322 44.8572C233.406 44.6622 233.573 44.4394 233.656 44.2444C233.796 43.938 233.935 43.6316 234.018 43.2973C234.186 42.7402 234.269 42.1274 234.241 41.5425C234.241 40.3447 233.935 39.0912 233.211 38.1442C232.486 37.1692 232.459 35.7765 232.849 34.5787C233.016 34.0495 233.294 33.5481 233.656 33.1581C234.018 32.7403 234.408 32.601 234.91 32.2946C235.94 31.654 236.776 30.6512 237.25 29.537C237.528 28.9242 237.695 28.3114 237.751 27.6429C237.807 27.1136 237.695 26.5844 237.807 26.1109C238.085 24.941 238.977 23.9382 240.063 23.3532C240.536 23.1025 241.094 22.9354 241.567 22.9354C241.762 22.9354 242.068 22.9911 242.347 22.9911C242.681 22.9911 242.988 22.9633 243.322 22.9076C244.52 22.7404 245.662 22.1555 246.553 21.3477C246.999 20.9577 247.361 20.4842 247.639 19.9549C247.862 19.5371 248.224 19.175 248.642 18.9243C249.673 18.2837 250.982 18.033 252.18 18.3672C252.765 18.5343 253.099 18.8129 253.545 19.1472C254.018 19.4814 254.603 19.7321 255.16 19.8992C256.302 20.2335 257.584 20.2613 258.726 19.9271C259.283 19.76 259.784 19.4257 260.341 19.2864C260.954 19.1472 261.595 19.175 262.18 19.3421C263.294 19.6485 264.408 20.3449 264.882 21.4034C264.937 21.5148 264.909 21.487 264.965 21.6541C265.021 21.8212 265.077 21.9605 265.16 22.1276C265.272 22.4062 265.411 22.6569 265.578 22.9076C265.94 23.4368 266.386 23.9382 266.887 24.3282C267.416 24.746 267.973 25.0802 268.614 25.3309C269.143 25.5538 269.784 25.6095 270.23 25.6652C271.428 25.8323 272.402 26.7794 272.96 27.81C273.238 28.3114 273.433 28.8964 273.461 29.4535C273.489 30.0384 273.294 30.5119 273.238 31.1247C273.099 32.3225 273.433 33.6038 273.99 34.6623C274.269 35.1637 274.631 35.6651 275.049 36.055C275.466 36.445 275.856 36.6679 276.163 37.1414C276.776 38.1442 276.943 39.4533 276.636 40.5954C276.497 41.1246 276.246 41.6817 275.856 42.0438C275.439 42.4338 275.076 42.8516 274.77 43.353C274.157 44.3836 273.851 45.665 273.907 46.8627C273.934 47.4477 274.074 47.9769 274.269 48.534C274.436 49.0633 274.436 49.6482 274.297 50.2053C274.018 51.3752 273.294 52.4894 272.235 53.0744C271.985 53.2136 271.817 53.2972 271.539 53.3529C271.65 53.3251 271.205 53.4086 271.149 53.4086C270.982 53.4365 270.815 53.4922 270.675 53.5479C270.035 53.7707 269.45 54.0771 268.948 54.495C267.918 55.2749 267.054 56.3891 266.72 57.6704C266.581 58.1718 266.469 58.5618 266.135 58.9796C265.773 59.481 265.272 59.8709 264.714 60.1495C264.185 60.4559 263.545 60.6509 262.932 60.6787C262.291 60.7066 261.845 60.5673 261.288 60.3723C260.146 59.9545 258.837 59.9824 257.695 60.3166C257.138 60.4837 256.553 60.7066 256.052 61.0408C255.578 61.3472 255.188 61.8208 254.715 62.0993C253.851 62.7121 252.542 62.74 251.4 62.3779C250.369 62.0715 249.924 63.6871 250.954 63.9935C252.43 64.4391 254.074 64.3834 255.467 63.6871C255.773 63.5478 256.024 63.3528 256.302 63.1578C256.469 63.0185 256.776 62.7121 256.859 62.6286C257.305 62.2665 257.751 62.0715 258.28 61.9322C258.837 61.7651 259.283 61.7094 259.896 61.7372C260.453 61.7651 260.926 61.9601 261.428 62.1272C262.82 62.6286 264.464 62.2665 265.745 61.5979C266.943 60.9573 267.946 59.8709 268.391 58.5618C268.475 58.2832 268.531 58.0047 268.614 57.7261C268.698 57.5033 268.865 57.2247 269.004 56.974C269.311 56.5005 269.728 56.0548 270.202 55.7206C270.703 55.3585 271.177 55.1356 271.762 55.0242C271.957 54.9685 272.291 54.9406 272.542 54.8292C272.876 54.6899 273.182 54.5507 273.489 54.3557C274.714 53.52 275.634 52.2387 275.996 50.8181C276.191 50.066 276.246 49.314 276.107 48.5619C276.051 48.2833 275.968 48.0326 275.884 47.7541C275.829 47.6148 275.801 47.5034 275.773 47.3641C275.745 47.197 275.717 47.1413 275.717 47.0577C275.606 45.9714 275.856 44.9129 276.441 44.0215C276.72 43.6037 277.221 43.2137 277.556 42.7402C277.973 42.1831 278.252 41.5146 278.391 40.8461C278.698 39.4255 278.53 37.8935 277.834 36.5843C277.5 35.9715 277.082 35.4701 276.525 35.0523C276.469 34.9966 276.386 34.9409 276.274 34.8294C276.191 34.7459 276.107 34.6623 276.024 34.5787C275.856 34.4116 275.717 34.1888 275.578 33.9381C275.299 33.4367 275.132 32.9632 275.021 32.3782C274.937 31.9604 274.937 31.3476 275.021 30.9298C275.16 30.2334 275.271 29.6206 275.16 28.9242C275.049 28.2278 274.798 27.5315 274.464 26.9187C273.739 25.6373 272.57 24.551 271.149 24.1332C270.508 23.9382 270.063 24.0218 269.45 23.8268C268.976 23.6875 268.447 23.3811 268.057 23.0747C267.584 22.6847 267.194 22.2669 266.915 21.7377C266.636 21.2641 266.525 20.6792 266.191 20.1778C265.411 18.98 264.13 18.1165 262.765 17.7544C262.013 17.5316 261.205 17.5037 260.425 17.6151C260.091 17.6708 259.756 17.7266 259.45 17.8658C259.283 17.9215 259.116 18.0051 258.976 18.0887C258.921 18.1165 258.837 18.1444 258.781 18.2001C258.754 18.2279 258.698 18.2279 258.67 18.2558C258.726 18.2279 258.726 18.2279 258.67 18.2558C257.639 18.6458 256.553 18.6179 255.522 18.2837C255.105 18.1444 254.631 17.8658 254.325 17.6151C253.768 17.1695 253.099 16.8631 252.403 16.7238C250.954 16.4452 249.366 16.6959 248.085 17.4202C247.472 17.7544 246.971 18.2279 246.553 18.785C246.219 19.2307 246.052 19.6485 245.69 20.0385C245.3 20.4285 244.882 20.707 244.353 20.9577C244.13 21.0691 243.907 21.1527 243.628 21.2084C243.517 21.2363 243.378 21.2641 243.266 21.292C243.071 21.3477 243.016 21.3477 242.876 21.3477C242.737 21.3477 242.598 21.3477 242.458 21.3477C242.403 21.3477 242.124 21.3198 242.236 21.3477C241.846 21.292 241.511 21.292 241.121 21.3477C240.425 21.4313 239.729 21.6819 239.116 22.0441C237.862 22.7961 236.86 23.966 236.386 25.3309C236.163 25.9716 236.163 26.5844 236.191 27.2529C236.191 27.3922 236.191 27.5315 236.163 27.6707C236.163 27.7822 236.163 27.7543 236.135 27.9214C236.08 28.2278 235.968 28.5621 235.857 28.8406C235.439 29.7877 234.715 30.6234 233.768 31.0969C232.542 31.7097 231.734 32.9353 231.344 34.2166C230.871 35.6372 230.927 37.3085 231.651 38.6455C231.901 39.0912 232.264 39.509 232.431 39.9826C232.626 40.5397 232.709 41.0132 232.709 41.5703C232.709 42.1553 232.654 42.6009 232.431 43.1859C232.375 43.3252 232.264 43.548 232.124 43.7708C231.929 44.1051 231.79 44.4672 231.679 44.8572C231.317 46.3335 231.623 47.9491 232.375 49.2582C232.709 49.8153 233.127 50.3724 233.628 50.7903C233.879 50.9852 234.158 51.1802 234.436 51.3474C234.576 51.4031 234.687 51.4588 234.826 51.5145C234.91 51.5423 234.993 51.5702 235.049 51.5981C236.052 52.0437 236.86 52.9629 237.277 53.9657C237.528 54.5507 237.528 54.9685 237.584 55.5534C237.64 56.2498 237.89 56.9183 238.225 57.5033C238.977 58.8125 240.258 59.8152 241.706 60.2888C242.347 60.4837 243.043 60.5673 243.712 60.4837C243.879 60.4559 244.046 60.428 244.213 60.4002C244.297 60.3723 244.353 60.3723 244.436 60.3723C244.603 60.3445 244.241 60.3723 244.52 60.3723C244.798 60.3445 245.077 60.3445 245.355 60.3723C245.495 60.4002 245.829 60.4559 246.052 60.5395C246.33 60.623 246.553 60.7066 246.748 60.7902C247.277 61.0408 247.695 61.3194 248.085 61.7372C248.28 61.9601 248.308 62.0158 248.475 62.2386C248.67 62.5172 248.893 62.7678 249.171 62.9907C249.729 63.4642 250.369 63.7985 251.066 64.0213C251.483 64.1606 251.985 63.8542 252.096 63.4364C252.124 62.9628 251.846 62.5172 251.4 62.3779Z" fill="#F15A4C"></path><path d="M9.5 68C18.3366 68 25.5 60.8366 25.5 52C25.5 43.1634 18.3366 36 9.5 36C0.663445 36 -6.5 43.1634 -6.5 52C-6.5 60.8366 0.663445 68 9.5 68Z" fill="#DF1B50"></path><path d="M4.95726 81.4197C3.29314 80.8284 2.75723 79.6177 1.5444 78.5478C0.500797 77.6186 -0.824856 76.9429 -2.17872 76.6332C-3.61719 76.2953 -4.77361 76.6613 -6.18388 76.6613C-8.10185 76.6613 -10.0762 75.2535 -10.9506 73.5923C-11.6557 72.269 -11.4301 70.7204 -11.9942 69.3126C-12.5583 67.933 -13.4609 66.7223 -14.6455 65.8213C-15.6045 65.0893 -16.8173 64.8359 -17.7199 64.0193C-19.2148 62.696 -19.9763 60.2183 -19.3558 58.3037C-18.9327 56.9522 -18.1712 55.9668 -18.0302 54.5027C-17.8891 53.0386 -18.0866 51.5181 -18.6789 50.1948C-19.0174 49.4628 -19.5533 48.8715 -19.8635 48.1113C-20.2584 47.1258 -20.3148 46.0559 -20.0892 45.0423C-19.6661 42.9306 -18.5661 42.0859 -16.9019 41.016C-14.4199 39.383 -13.3481 36.6518 -13.2916 33.8081C-13.2634 32.0061 -12.1352 30.3731 -10.6403 29.4158C-9.08904 28.4303 -7.65057 28.8527 -5.93004 28.5993C-4.57618 28.4022 -3.27873 27.8672 -2.15051 27.0507C-0.909473 26.1497 -0.401775 24.8545 0.641827 23.8128C1.88286 22.5739 3.91365 22.0671 5.60598 22.3487C7.21369 22.6021 8.3419 23.9254 9.865 24.4322C11.1907 24.8827 12.6573 24.9672 14.0394 24.7419C15.8445 24.4322 17.1138 23.3341 19.0318 23.6438C20.7241 23.9254 22.4164 24.9108 23.178 26.4876C23.8831 27.9517 24.3908 29.1624 25.6882 30.2605C26.7318 31.1333 27.9729 31.8372 29.2985 32.0906C31.2729 32.4848 32.7114 32.9353 33.8396 34.7654C34.7986 36.314 34.6294 37.581 34.4319 39.2703C34.2345 40.7344 34.4883 42.1985 35.0806 43.55C35.6166 44.7889 36.3781 45.718 37.3935 46.5909C38.9166 47.9423 39.4807 49.9977 39.0576 51.9968C38.6909 53.6298 37.5063 54.3337 36.6601 55.6852C35.8986 56.8677 35.4755 58.2755 35.3627 59.6833C35.2499 61.3445 36.096 62.8086 35.9832 64.3854C35.814 66.5815 34.2063 68.7495 32.0627 69.3408C30.3985 69.7913 29.0165 70.3826 27.7472 71.6496C26.4216 72.9729 26.1113 74.4089 25.4344 76.0137C24.5882 77.9846 22.0779 79.3361 19.9625 79.139C19.06 79.0546 18.242 78.5759 17.3676 78.4351C16.5779 78.2944 15.7599 78.2944 14.9702 78.3788C13.4471 78.5478 11.924 79.1109 10.7112 80.1245C8.99063 81.6168 7.2701 82.0672 4.95726 81.4197C3.54699 81.0255 2.92646 83.2216 4.33673 83.6158C6.11368 84.1226 8.03164 84.1789 9.78038 83.475C11.3881 82.8556 12.3753 81.4197 14.0394 80.8847C15.8163 80.3216 17.0574 80.8002 18.7497 81.2507C20.6113 81.7294 22.6421 81.2789 24.278 80.3497C25.7164 79.5332 26.9575 78.2944 27.6062 76.7458C28.3678 74.9157 28.7344 73.4515 30.5678 72.2972C31.9498 71.4525 33.5576 71.4525 34.9114 70.4952C36.4909 69.3689 37.6755 67.567 38.0986 65.6805C38.4653 64.0193 37.9858 62.7523 37.7037 61.1474C37.4217 59.5144 37.9294 57.5435 39.0576 56.3046C40.073 55.1502 40.9192 54.1648 41.2858 52.6162C41.7089 50.7579 41.5115 48.7307 40.6371 47.0132C39.9038 45.5772 38.4935 44.8452 37.6473 43.55C36.5473 41.8607 36.6601 40.2839 36.9422 38.4257C37.4499 35.1033 35.0524 31.4993 31.9781 30.3168C30.3421 29.6973 28.7908 29.8381 27.3242 28.6556C25.8575 27.473 25.6318 25.7555 24.5318 24.3477C22.4164 21.5884 18.4112 20.5185 15.224 21.9263C13.6727 22.6021 12.1214 22.7991 10.4573 22.236C9.61115 21.9263 9.01884 21.3632 8.25729 20.9127C7.46754 20.4341 6.59317 20.1807 5.6906 20.068C3.94186 19.8428 2.10851 20.1807 0.585417 21.0253C-0.937677 21.87 -1.52999 23.1652 -2.63 24.404C-3.70181 25.6147 -5.45054 26.4031 -7.05825 26.3749C-8.80699 26.3468 -10.2737 26.4594 -11.7968 27.4167C-13.2634 28.3459 -14.4763 29.7255 -15.125 31.3585C-15.7455 32.9634 -15.2942 34.6528 -15.9148 36.2295C-16.5917 37.9752 -17.7763 38.7635 -19.2712 39.7208C-20.7379 40.6781 -21.6969 42.2549 -22.1764 43.916C-22.6558 45.6054 -22.6276 47.52 -21.9225 49.1249C-21.6405 49.7725 -21.161 50.3074 -20.8507 50.955C-20.3994 51.9123 -20.2302 53.0104 -20.3148 54.0522C-20.4558 55.9949 -21.8097 57.4309 -21.8661 59.4299C-21.9225 61.4008 -21.2174 63.4281 -19.9763 64.9485C-18.7635 66.4126 -17.0712 66.666 -15.7455 67.8767C-15.0122 68.5524 -14.4199 69.3971 -14.0814 70.2981C-13.7147 71.2554 -13.8276 72.2409 -13.5737 73.2263C-12.6429 76.8021 -8.72237 79.3361 -5.08387 78.8012C-3.22232 78.5196 -1.38896 78.9419 0.0495129 80.2371C0.726442 80.8565 1.14952 81.6731 1.88286 82.2643C2.61621 82.8556 3.46237 83.2498 4.33673 83.5595C5.74701 84.1226 6.33932 81.8983 4.95726 81.4197Z" fill="#DF1B50"></path><path d="M6.0498 74.4919C4.7791 74.0411 4.32729 72.9986 3.33897 72.1816C2.46359 71.449 1.36231 70.9419 0.2328 70.7447C-0.868479 70.5474 -1.85681 70.8855 -2.90161 70.801C-4.34174 70.6883 -5.92306 69.4486 -6.34663 68.0399C-6.65725 66.9974 -6.57253 65.9832 -7.05258 64.9407C-7.56086 63.8701 -8.37976 62.8839 -9.36808 62.2078C-10.1305 61.7006 -10.9494 61.5597 -11.5989 60.8835C-12.7284 59.7002 -13.0108 57.8689 -12.3331 56.4038C-11.4294 54.4879 -11.1753 52.3748 -12.1072 50.3744C-12.7566 49.022 -13.4908 48.0922 -13.0955 46.4581C-12.7284 44.9367 -11.8248 44.4295 -10.6388 43.5843C-8.94451 42.3728 -7.89971 40.3442 -7.84324 38.2593C-7.815 36.8506 -7.33495 35.6954 -6.12072 34.822C-4.9065 33.9767 -3.80522 34.2867 -2.4498 34.1176C-0.219007 33.8077 1.16465 32.5398 2.43535 30.8212C3.28249 29.666 4.80733 29.0744 6.21923 29.2434C7.54641 29.3843 8.5065 30.5113 9.7772 30.9057C10.7655 31.2156 11.8103 31.3002 12.8269 31.1593C14.1258 30.9621 15.1989 30.145 16.5261 30.2577C17.9662 30.3986 19.2934 31.1875 19.8864 32.5117C20.3664 33.5823 20.8747 34.5121 21.7783 35.301C22.569 35.9772 23.5291 36.5406 24.5739 36.7942C26.0422 37.1605 27.1153 37.3014 28.0471 38.6819C28.9225 40.0061 28.5836 41.0486 28.4989 42.4855C28.4142 43.5561 28.6684 44.6549 29.0919 45.6411C29.5155 46.599 30.1367 47.2752 30.8991 47.9796C32.0851 49.0502 32.5087 50.6843 32.0287 52.2057C31.718 53.2482 30.8144 53.8117 30.2779 54.7133C29.6849 55.6431 29.3743 56.7137 29.2613 57.7843C29.1484 59.1649 29.8826 60.4327 29.6849 61.7851C29.4308 63.6165 28.1601 64.7716 26.4658 65.2224C25.2233 65.5605 24.0938 66.2649 23.2467 67.1947C22.2584 68.2935 22.1454 69.5332 21.4394 70.7165C20.5923 72.1816 18.6439 72.9986 17.0343 72.576C15.8201 72.2661 14.8035 71.9562 13.5328 72.1252C12.4033 72.2943 11.302 72.7169 10.3984 73.4213C9.01478 74.5482 7.80055 74.9709 6.0498 74.4919C4.63791 74.0975 4.01667 76.2951 5.42857 76.6895C6.61456 77.0276 7.85703 77.1121 9.04302 76.8304C10.4549 76.4923 11.1891 75.478 12.4316 74.8582C13.7305 74.2102 14.9165 74.3792 16.2154 74.7737C17.5991 75.1963 19.0675 75.0554 20.3946 74.4637C21.5524 73.9566 22.5972 73.1395 23.3032 72.0689C24.2068 70.6601 24.2068 69.1105 25.7034 68.0681C26.7764 67.3074 28.1601 67.3074 29.2613 66.5466C30.3909 65.7578 31.2662 64.5181 31.718 63.222C32.1698 61.8978 32.0287 60.7708 31.6898 59.4748C31.3227 58.0097 31.6898 56.4883 32.6781 55.3613C34.4006 53.3891 35.0501 50.8815 33.9771 48.374C33.4406 47.1625 32.5369 46.6272 31.7463 45.6692C30.7297 44.4295 30.7862 43.1053 30.9839 41.6684C31.3227 38.9918 29.7979 36.2589 27.3412 35.1319C26.1269 34.5684 24.828 34.7375 23.6985 33.9204C22.3713 32.9625 22.2301 31.5819 21.2983 30.3986C19.6605 28.3418 16.5543 27.4121 14.0976 28.4263C12.7704 28.9617 11.5844 29.2434 10.1725 28.6799C8.93007 28.1728 8.13941 27.2994 6.72751 27.074C5.40033 26.8767 3.98844 27.074 2.77421 27.6656C1.41879 28.3418 0.910507 29.3279 0.00689507 30.4267C-0.840241 31.4692 -2.2239 31.9482 -3.52284 31.92C-4.9065 31.8918 -6.06425 32.089 -7.25024 32.8779C-8.29504 33.5823 -9.17042 34.5684 -9.6787 35.7236C-10.2435 36.9914 -9.9046 38.2593 -10.3282 39.499C-10.8082 40.9077 -11.7683 41.5276 -12.9261 42.3164C-13.9991 43.0208 -14.7615 44.2041 -15.1568 45.4157C-15.5804 46.7117 -15.6369 48.1768 -15.1851 49.4728C-14.705 50.8815 -13.7167 51.755 -13.7732 53.3609C-13.8297 54.8823 -14.8745 56.0093 -14.9874 57.5308C-15.1004 59.1085 -14.5921 60.7145 -13.6602 61.9542C-12.9543 62.8839 -12.1072 63.3629 -11.1188 63.8701C-9.48103 64.7153 -8.91628 66.1522 -8.69037 67.8709C-8.32328 70.7729 -5.3583 73.1959 -2.42156 73.1113C-0.727289 73.055 0.684605 72.8014 2.06826 74.0693C2.54831 74.5201 2.85892 75.1117 3.3672 75.5625C3.98844 76.0979 4.69439 76.436 5.45681 76.7177C6.81223 77.1967 7.40522 74.9991 6.0498 74.4919Z" fill="#DF1B50"></path><path d="M4.35328 89.3562C3.23547 88.9661 2.22945 88.3809 1.50287 87.4335C0.943966 86.709 0.41301 86.0402 -0.285622 85.455C-1.65494 84.3683 -3.30371 83.588 -5.03631 83.3094C-6.90864 82.975 -8.75302 83.7274 -10.5974 83.3373C-12.8889 82.8357 -15.0966 81.0523 -15.9349 78.8509C-16.5777 77.179 -16.3541 75.3677 -17.1366 73.6958C-17.9191 72.0239 -19.1766 70.5191 -20.7415 69.4881C-22.2785 68.4571 -23.8155 68.2063 -24.9333 66.5622C-26.2188 64.6952 -26.8895 61.9087 -25.9114 59.763C-25.1289 58.0632 -24.4303 56.6142 -24.4023 54.6636C-24.3744 52.9081 -24.7656 51.0411 -25.6599 49.5085C-26.1908 48.6168 -26.7497 47.8923 -27.0012 46.8613C-27.2807 45.6073 -27.1689 44.2141 -26.8056 42.988C-26.4703 41.957 -25.9673 40.9538 -25.2128 40.1736C-24.5141 39.4212 -23.6199 39.1147 -22.7815 38.5295C-21.3004 37.4985 -20.1267 36.0216 -19.4001 34.3775C-18.6456 32.7335 -18.6456 31.2287 -18.5618 29.4732C-18.45 27.1882 -16.7454 25.1262 -14.8451 24.0116C-12.9169 22.897 -11.2401 23.4264 -9.20014 23.1199C-7.38371 22.8691 -5.6511 22.0889 -4.19795 20.9464C-2.68891 19.7482 -2.04617 17.8533 -0.537128 16.7387C1.30725 15.3733 4.01794 14.8717 6.22561 15.5962C7.98616 16.1814 9.21575 17.6025 11.0881 18.1041C12.7089 18.5499 14.4694 18.6057 16.1182 18.2434C16.9286 18.0762 17.6273 17.7418 18.3538 17.4074C19.4996 16.878 20.7012 16.7387 21.9588 16.9616C24.1664 17.3239 26.4579 18.6335 27.4081 20.7234C28.2185 22.5347 28.9171 24.0394 30.51 25.3213C31.9073 26.4637 33.556 27.3276 35.3445 27.5784C37.7199 27.8849 39.5084 28.9995 40.738 31.0894C41.3248 32.0926 41.744 33.2351 41.7719 34.4333C41.7999 35.4086 41.4086 36.3281 41.3527 37.3034C41.241 39.1147 41.6881 40.9259 42.4985 42.5421C42.8897 43.2945 43.3648 44.019 43.9516 44.6321C44.6223 45.3844 45.5166 45.8581 46.1034 46.6941C47.361 48.4496 47.6404 50.9297 47.0815 52.9917C46.5505 54.9144 44.9577 55.8897 43.9796 57.5338C43.0853 59.0385 42.6103 60.8219 42.5823 62.5496C42.5264 64.4723 43.5604 66.2 43.3648 68.1227C43.1133 70.4077 41.6601 72.7762 39.5922 73.863C38.7259 74.3367 37.7758 74.3646 36.8536 74.6989C35.9314 75.0333 35.0651 75.507 34.2826 76.0922C32.7736 77.2347 31.4881 78.7673 30.8174 80.5507C30.4821 81.4703 30.3703 82.362 29.8114 83.2258C29.1686 84.229 28.2185 85.0092 27.1845 85.5944C26.1226 86.1795 24.921 86.5418 23.6914 86.5418C22.6574 86.5418 21.819 86.1795 20.8689 85.873C19.1642 85.3436 17.236 85.3993 15.5314 85.8452C13.659 86.3189 12.4295 87.3499 10.9763 88.4924C9.07603 89.9693 6.47712 89.9692 4.35328 89.3562C2.95602 88.9382 2.34123 91.1396 3.73849 91.5297C5.83438 92.1428 8.12589 92.1985 10.1659 91.4461C12.1779 90.6937 13.4075 88.9104 15.4196 88.2137C16.3977 87.8793 17.4316 87.74 18.4377 87.7679C19.5555 87.8236 20.4497 88.2694 21.4837 88.5481C23.5796 89.1333 25.8432 88.6874 27.7714 87.7679C29.6437 86.8483 31.3204 85.3436 32.1867 83.4209C32.6059 82.5013 32.6897 81.526 33.1648 80.6343C33.7796 79.464 34.7297 78.4329 35.8196 77.6806C37.6081 76.4823 39.7878 76.5102 41.5484 75.2005C43.281 73.9187 44.5664 72.0517 45.1812 69.9897C45.4886 68.9865 45.6283 67.8998 45.5445 66.8687C45.4607 65.8656 45.0415 64.9739 44.8459 63.9986C44.4826 62.048 44.9856 59.7909 46.1593 58.1468C46.6903 57.3945 47.4168 56.865 47.9478 56.1405C48.5905 55.2488 49.0377 54.1899 49.2612 53.1032C49.7084 51.0133 49.5407 48.7562 48.6464 46.8056C48.2552 45.9417 47.7522 45.1336 47.0815 44.4649C46.327 43.6846 45.4886 43.1831 44.8738 42.2635C43.6442 40.4522 43.281 38.3066 43.7281 36.1888C44.6223 31.9811 41.9675 27.3833 37.9714 25.8228C37.0212 25.4606 36.127 25.4327 35.1489 25.2377C34.0311 25.0147 32.9692 24.4296 32.0749 23.7329C31.2086 23.0641 30.4821 22.2282 29.979 21.2529C29.504 20.3055 29.2804 19.3302 28.6377 18.4663C26.2064 15.0667 21.1204 13.5341 17.2919 15.3454C15.3358 16.265 13.2957 16.46 11.2278 15.7912C9.27164 15.1503 7.95821 13.562 5.83438 13.1719C3.6826 12.7539 1.39109 13.1162 -0.593021 14.0636C-1.45932 14.4816 -2.32562 15.0946 -2.99631 15.7912C-3.75083 16.5715 -4.14206 17.6025 -4.86864 18.4106C-6.2659 19.9711 -8.47357 20.9742 -10.5974 20.9464C-12.6933 20.9185 -14.4259 21.0021 -16.2703 22.1725C-18.0867 23.2871 -19.5678 24.9869 -20.3503 26.9653C-21.1048 28.8602 -20.6018 30.8108 -21.2445 32.7335C-22.027 35.0463 -23.5919 36.2445 -25.5481 37.4706C-27.2248 38.5295 -28.3706 40.3129 -28.9854 42.1799C-29.684 44.3255 -29.7119 46.7498 -28.8177 48.8119C-28.4544 49.6757 -27.8117 50.3445 -27.4204 51.1805C-26.9454 52.2115 -26.7497 53.354 -26.7497 54.4686C-26.7497 55.4996 -26.9174 56.5306 -27.3366 57.4781C-27.7558 58.4534 -28.3147 59.2615 -28.5382 60.3203C-28.9854 62.5496 -28.5382 64.946 -27.4484 66.9245C-26.5541 68.6243 -25.1569 69.9897 -23.3684 70.742C-21.4681 71.5501 -19.987 72.9156 -19.1486 74.8383C-18.3103 76.761 -18.6456 78.823 -17.6117 80.7179C-16.5218 82.6406 -14.7333 84.1732 -12.6933 85.037C-11.7711 85.4272 -10.793 85.678 -9.81494 85.7058C-8.72508 85.7616 -7.6911 85.3714 -6.60124 85.3993C-4.58919 85.455 -2.46535 86.3467 -1.12398 87.8515C-0.453293 88.576 -0.00617027 89.3841 0.776295 90.025C1.6426 90.7216 2.62068 91.1675 3.65465 91.5297C5.13575 92.0313 5.7226 89.8299 4.35328 89.3562Z" fill="#DF1B50"></path><path d="M114.5 131C136.039 131 153.5 113.315 153.5 91.5C153.5 69.6847 136.039 52 114.5 52C92.9609 52 75.5 69.6847 75.5 91.5C75.5 113.315 92.9609 131 114.5 131Z" fill="#822E91"></path><path d="M141.02 163.237C143.036 150.364 126.027 137.008 103.031 133.408C80.0347 129.807 59.7584 137.324 57.7426 150.198C55.7269 163.072 72.735 176.427 95.7314 180.028C118.728 183.628 139.004 176.111 141.02 163.237Z" fill="#FDB71D"></path><path d="M131.081 113.806L98.373 104.484L88.02 140.808L120.728 150.131L131.081 113.806Z" fill="#F15A4C"></path><path d="M152.821 104.833C151.328 114.121 149.42 126.67 141.097 132.779C133.991 137.975 124.258 136.068 116.544 132.779C96.9958 124.459 85.4658 106.492 89.1985 86.5071C92.71 67.8493 105.125 59.6122 124.618 62.5975C147.567 66.1079 156.111 84.2406 152.821 104.833Z" fill="#F15A4C"></path><path d="M81.1806 106L138.5 62.8804L101.2 58L78.5 99.6499L81.1806 106Z" fill="#822E91"></path><path d="M79.6823 114.738C84.1839 108.136 85.45 100.342 83.8182 93.1297C68.4565 85.363 53.5168 88.5252 40.3778 102.838C37.1423 106.361 34.5257 110.161 32.5 114.155C34.5257 117.262 37.1985 120.036 40.5185 122.255C53.4324 130.826 70.9605 127.47 79.6823 114.738Z" fill="#822E91"></path><path d="M96.5 112.056L92.9551 124L81.5 106L96.5 112.056Z" fill="#822E91"></path><path d="M98.1123 111.436C103.861 110.077 107.154 103.186 105.466 96.0451C103.778 88.9037 97.7495 84.2158 92.0004 85.5745C86.2514 86.9332 82.959 93.8239 84.6468 100.965C86.3345 108.107 92.3633 112.795 98.1123 111.436Z" fill="#F15A4C"></path><path d="M95.9979 106.333C95.8029 106.277 95.6079 106.221 95.4408 106.138C95.3851 106.11 95.3294 106.082 95.2736 106.082C95.2458 106.082 95.0787 105.998 95.2179 106.054C95.3572 106.11 95.1901 106.026 95.1622 106.026C95.1065 105.998 95.0508 105.971 94.9951 105.943C94.633 105.776 94.2709 105.553 93.9087 105.33C93.8252 105.274 93.7416 105.219 93.6581 105.163C93.4352 104.996 93.6023 105.135 93.6581 105.163C93.6302 105.135 93.6024 105.107 93.5745 105.079C93.4074 104.94 93.2402 104.801 93.0731 104.634C92.7667 104.355 92.4603 104.049 92.1818 103.714C92.126 103.631 92.0425 103.547 91.9868 103.464C91.8196 103.241 91.9589 103.436 91.9868 103.464C91.9589 103.436 91.9311 103.408 91.9032 103.352C91.7639 103.157 91.6247 102.99 91.5132 102.795C91.2625 102.433 91.0397 102.043 90.8447 101.681C90.7612 101.486 90.6497 101.319 90.5662 101.124C90.5105 101.04 90.4826 100.929 90.4269 100.845C90.399 100.79 90.3712 100.734 90.3433 100.678C90.399 100.79 90.399 100.817 90.3433 100.678C90.1762 100.26 90.0369 99.8704 89.8977 99.4526C89.7862 99.0347 89.6748 98.6169 89.5912 98.1991C89.5634 98.0041 89.5077 97.8091 89.4798 97.6141C89.4798 97.5584 89.4798 97.5027 89.452 97.4749C89.4241 97.3356 89.4798 97.7256 89.452 97.5306C89.452 97.4191 89.4241 97.3077 89.4241 97.1685C89.3963 96.7506 89.3684 96.3607 89.3684 95.9428C89.3684 95.5807 89.3406 95.1351 89.452 94.7729C89.3684 95.0793 89.452 94.8008 89.4798 94.7172C89.5077 94.6337 89.5077 94.5501 89.5355 94.4665C89.5634 94.2716 89.6191 94.1044 89.6748 93.9094C89.7305 93.7423 89.7862 93.5752 89.8419 93.4359C89.8698 93.408 89.8977 93.2131 89.9255 93.2131C89.9255 93.2131 89.8419 93.4359 89.8977 93.2966C89.9255 93.2409 89.9534 93.1852 89.9812 93.1295C90.0648 92.9902 90.1205 92.851 90.2041 92.7117C90.2319 92.656 90.5105 92.3217 90.4826 92.266C90.4826 92.266 90.3155 92.461 90.4269 92.3496C90.4547 92.3217 90.4826 92.266 90.5105 92.2381C90.5662 92.1824 90.6219 92.1267 90.6776 92.071C90.789 91.9596 90.9283 91.8203 91.0397 91.7089C91.2068 91.5696 90.8726 91.8203 91.0954 91.6811C91.179 91.6253 91.2347 91.5696 91.3183 91.5418C91.4854 91.4304 91.6525 91.3468 91.8196 91.2632C91.9868 91.1797 91.5968 91.3468 91.7639 91.2911C91.8196 91.2632 91.8475 91.2632 91.9032 91.2354C91.9868 91.2075 92.0982 91.1797 92.1818 91.1518C92.3767 91.0961 92.5717 91.0682 92.7667 91.0125C92.8781 90.9847 92.516 91.0404 92.711 91.0125C92.7667 91.0125 92.8503 91.0125 92.906 90.9847C93.0174 90.9847 93.1288 90.9568 93.2124 90.9568C93.4631 90.9568 93.6859 90.9568 93.9366 90.9847C94.0759 90.9847 94.1873 91.0125 94.3266 91.0125C94.048 90.9847 94.4659 91.0404 94.5494 91.0404C94.828 91.0961 95.1065 91.1518 95.3851 91.2354C95.8864 91.3746 96.4157 91.0682 96.555 90.5669C96.6942 90.0655 96.3878 89.5362 95.8864 89.397C94.0759 88.8956 91.9868 88.812 90.3433 89.8426C88.9506 90.7061 88.0871 92.1824 87.7528 93.7702C86.945 97.3356 88.1149 101.458 90.2598 104.355C91.5689 106.11 93.3238 107.558 95.4686 108.143C95.97 108.283 96.4993 107.976 96.6385 107.475C96.8057 107.001 96.4992 106.472 95.9979 106.333Z" fill="#1B5091"></path><path d="M140.593 103.52C141.652 105.247 142.877 106.89 144.047 108.533C144.632 109.341 145.245 110.149 145.691 111.068C146.053 111.792 146.248 112.572 146.22 113.352C146.22 114.132 145.997 114.884 145.579 115.581C145.496 115.692 145.412 115.803 145.356 115.943C145.217 116.166 145.468 115.803 145.301 116.026C145.245 116.082 145.189 116.166 145.134 116.221C144.911 116.472 144.66 116.695 144.409 116.918C144.187 117.085 144.549 116.834 144.326 116.973C144.27 117.029 144.187 117.085 144.131 117.113C144.019 117.196 143.908 117.252 143.769 117.336C143.629 117.419 143.462 117.503 143.323 117.558C143.24 117.586 143.184 117.642 143.1 117.67C143.295 117.586 142.961 117.725 142.933 117.725C142.655 117.837 142.348 117.92 142.042 117.976C141.902 118.004 141.763 118.032 141.624 118.06C141.847 118.032 141.568 118.06 141.54 118.06C141.429 118.06 141.318 118.088 141.206 118.088C141.011 118.088 140.816 118.088 140.621 118.088C140.565 118.088 140.51 118.088 140.454 118.088C140.398 118.088 140.343 118.088 140.287 118.06C140.398 118.088 140.398 118.088 140.287 118.06C139.925 117.976 139.591 117.893 139.256 117.781C139.006 117.698 139.423 117.865 139.173 117.753C139.061 117.698 138.978 117.67 138.866 117.614C138.727 117.53 138.588 117.447 138.449 117.363C138.421 117.363 138.198 117.196 138.365 117.308C138.281 117.224 138.198 117.168 138.114 117.085C137.975 116.946 137.808 116.806 137.696 116.639C137.362 116.249 136.694 116.305 136.359 116.639C135.969 117.029 136.025 117.586 136.359 117.976C138.504 120.455 142.292 120.567 144.939 118.868C146.387 117.948 147.529 116.5 147.947 114.801C148.448 112.628 147.696 110.595 146.471 108.812C145.05 106.751 143.518 104.745 142.209 102.628C141.93 102.182 141.373 102.015 140.928 102.294C140.482 102.489 140.315 103.102 140.593 103.52Z" fill="#1B5091"></path><path d="M149.059 57.1076C135.575 55.7294 123.249 67.7476 121.5 83.9832L170.299 89C172.019 72.7644 162.514 58.4859 149.059 57.1076Z" fill="#822E91"></path><path d="M127.306 79.2577C127.306 79.1184 127.306 78.9513 127.334 78.812C127.334 78.6449 127.362 78.4777 127.39 78.2828C127.39 78.1713 127.418 78.0599 127.418 77.9764C127.418 77.9206 127.446 77.8649 127.446 77.8092C127.418 78.0599 127.418 78.0042 127.446 77.8371C127.641 76.4443 128.003 75.0795 128.448 73.7703C128.532 73.5474 128.588 73.3525 128.671 73.1575C128.699 73.0739 128.755 72.9625 128.783 72.8789C128.811 72.8232 128.838 72.7675 128.838 72.7118C128.755 72.9068 128.838 72.6839 128.838 72.7118C129.033 72.2661 129.228 71.8483 129.451 71.4305C129.925 70.5113 130.454 69.6478 131.067 68.8121C131.15 68.7007 131.206 68.6171 131.29 68.5057C131.429 68.3386 131.206 68.6171 131.317 68.4779C131.373 68.4222 131.401 68.3664 131.457 68.3107C131.624 68.0879 131.819 67.8651 132.014 67.6422C132.404 67.2244 132.794 66.8066 133.212 66.4166C133.434 66.1938 133.657 65.9988 133.908 65.8038C134.019 65.6924 134.131 65.6088 134.242 65.5252C134.298 65.4695 134.354 65.4417 134.409 65.386C134.437 65.3581 134.632 65.2188 134.549 65.2746C134.465 65.3581 134.66 65.191 134.688 65.1631C134.744 65.1074 134.799 65.0796 134.855 65.0239C134.994 64.9124 135.134 64.8289 135.273 64.7175C135.551 64.5225 135.802 64.3553 136.081 64.1882C136.666 63.8261 137.278 63.4918 137.891 63.1854C138.198 63.0183 138.532 62.879 138.866 62.7398C138.922 62.7119 139.145 62.6283 138.978 62.684C139.061 62.6562 139.145 62.6283 139.2 62.6005C139.395 62.5169 139.563 62.4612 139.757 62.3776C141.317 61.7927 142.905 61.3749 144.549 61.0685C144.994 60.9849 145.44 60.9292 145.886 60.8456C146.387 60.7621 146.665 60.1214 146.554 59.6757C146.415 59.1186 145.913 58.9515 145.384 59.0072C142.097 59.4529 138.866 60.4 135.997 62.0155C133.769 63.269 131.763 64.9124 130.148 66.918C128.783 68.6171 127.724 70.4834 126.916 72.5168C126.359 73.9374 125.941 75.4137 125.691 76.9179C125.579 77.67 125.412 78.4499 125.44 79.2298V79.2577C125.412 80.4554 127.306 80.4554 127.306 79.2577Z" fill="#11B790"></path><path d="M93.1285 64.5224C97.2232 61.0962 102.042 58.4779 107.251 57.308C108.922 56.9458 110.594 56.723 112.293 56.6394C112.794 56.6116 113.24 56.2216 113.24 55.6924C113.24 55.191 112.822 54.7175 112.293 54.7453C106.36 55.0239 100.649 57.0294 95.6912 60.2884C94.3263 61.1798 93.045 62.1547 91.7915 63.2132C91.4015 63.5474 91.4573 64.216 91.7915 64.5502C92.1815 64.9123 92.7386 64.8566 93.1285 64.5224Z" fill="#11B790"></path><path d="M85.3854 73.1299C85.6639 72.6842 85.9424 72.2664 86.2488 71.8486C86.3881 71.6536 86.5553 71.4308 86.6945 71.2358C86.7224 71.1801 86.7781 71.1522 86.8059 71.0965C86.6945 71.2358 86.8338 71.0686 86.8617 71.0408C86.9452 70.9294 87.0288 70.8458 87.1124 70.7344C87.7252 69.9544 88.3937 69.2302 89.0622 68.506C89.3964 68.1439 89.4522 67.5311 89.0622 67.169C88.7001 66.8347 88.0873 66.779 87.7252 67.169C86.3046 68.7288 84.9118 70.3723 83.7976 72.1828C83.5469 72.6007 83.6862 73.2413 84.1319 73.4642C84.5497 73.7148 85.1068 73.5756 85.3854 73.1299Z" fill="#11B790"></path><path d="M157.111 73.7703C156.972 76.6672 156.86 79.592 156.721 82.4889C156.693 82.9067 156.693 83.2967 156.665 83.7145C156.637 84.2159 157.111 84.6616 157.612 84.6616C158.142 84.6616 158.532 84.2159 158.559 83.7145C158.699 80.8176 158.81 77.8928 158.949 74.9959C158.977 74.5781 158.977 74.1881 159.005 73.7703C159.033 73.2689 158.559 72.8232 158.058 72.8232C157.529 72.8232 157.139 73.2411 157.111 73.7703Z" fill="#11B790"></path><path d="M161.429 75.8598C161.652 77.559 161.903 79.2303 162.125 80.9294C162.153 81.1801 162.181 81.4029 162.237 81.6536C162.293 82.155 162.961 82.4614 163.407 82.3221C163.936 82.155 164.131 81.6815 164.075 81.1522C163.852 79.4531 163.602 77.7818 163.379 76.0827C163.351 75.832 163.323 75.6091 163.268 75.3584C163.212 74.857 162.543 74.5506 162.098 74.6899C161.568 74.8849 161.373 75.3584 161.429 75.8598Z" fill="#11B790"></path><path d="M102.85 84.8011C104.772 83.464 106.694 82.127 108.616 80.79C111.68 78.6451 114.772 76.5003 117.836 74.3833C118.532 73.882 119.229 73.4084 119.953 72.907C120.371 72.6285 120.566 72.0714 120.287 71.6257C120.036 71.2079 119.424 70.985 119.006 71.2914C117.084 72.6285 115.162 73.9655 113.24 75.3026C110.176 77.4474 107.084 79.5922 104.02 81.7092C103.323 82.2106 102.627 82.6841 101.903 83.1855C101.485 83.464 101.29 84.0211 101.569 84.4668C101.819 84.8846 102.432 85.0796 102.85 84.8011Z" fill="#11B790"></path><path d="M112.293 69.5089C110.51 70.7623 108.727 72.0437 106.945 73.2971C104.103 75.3027 101.29 77.3082 98.4489 79.2859C97.8083 79.7316 97.1397 80.2051 96.4991 80.6508C96.0813 80.9572 95.8863 81.4865 96.1648 81.9321C96.4155 82.3499 97.0283 82.5728 97.4461 82.2664C99.2289 81.0129 101.012 79.7316 102.794 78.4781C105.635 76.4726 108.449 74.467 111.29 72.4893C111.931 72.0437 112.599 71.5701 113.24 71.1244C113.658 70.818 113.853 70.2888 113.574 69.8431C113.323 69.4532 112.711 69.2025 112.293 69.5089Z" fill="#11B790"></path><path d="M76.917 93.2693C77.0284 97.6704 78.0869 101.96 79.9253 105.943C80.4267 107.057 81.0117 108.116 81.6245 109.147C81.8752 109.592 82.4601 109.732 82.9058 109.481C83.3515 109.23 83.5186 108.617 83.24 108.2C81.1231 104.662 79.6746 100.762 79.0897 96.6955C78.9225 95.5813 78.839 94.4114 78.8111 93.2693C78.8111 92.7679 78.3933 92.3223 77.8641 92.3223C77.3627 92.3501 76.917 92.7679 76.917 93.2693Z" fill="#11B790"></path><path d="M45.7197 103.547C50.1764 99.1462 55.3574 95.2187 61.4019 93.3803C63.3239 92.7953 65.2738 92.4611 67.2793 92.4054C67.7807 92.4054 68.2264 91.9875 68.2264 91.4583C68.2264 90.9569 67.8086 90.5112 67.2793 90.5112C60.2599 90.6784 53.8254 94.1602 48.4773 98.5334C47.0567 99.7033 45.6918 100.929 44.3826 102.21C43.5191 103.046 44.8283 104.383 45.7197 103.547Z" fill="#11B790"></path><path d="M38.4772 112.016C38.6165 111.793 38.7836 111.57 38.9507 111.347C39.0343 111.236 39.1178 111.124 39.2014 111.013C39.2293 110.957 39.285 110.901 39.3128 110.874C39.2293 110.985 39.3407 110.818 39.3685 110.818C39.7028 110.4 40.0371 109.982 40.3992 109.564C41.1234 108.701 41.8198 107.865 42.4883 106.946C42.7947 106.556 42.5718 105.888 42.154 105.665C41.6526 105.414 41.1791 105.581 40.8727 105.999C40.8448 106.055 40.7891 106.082 40.7613 106.138C40.7613 106.138 40.622 106.333 40.6777 106.25C40.7334 106.194 40.622 106.333 40.622 106.333C40.5941 106.389 40.5384 106.417 40.5106 106.472C40.3435 106.695 40.1763 106.89 39.9813 107.113C39.6471 107.531 39.285 107.949 38.9507 108.339C38.2265 109.202 37.5023 110.094 36.8616 111.041C36.5831 111.458 36.778 112.099 37.1959 112.322C37.6694 112.601 38.1986 112.433 38.4772 112.016Z" fill="#11B790"></path><path d="M34.5 201.818L53.7312 146L141.5 163.386L136.191 284.5L40.8822 249L34.5 201.818Z" fill="#FDB71D"></path><path d="M120.758 150.049C122.495 143.953 116.564 136.92 107.509 134.34C98.4549 131.759 89.7066 134.608 87.9694 140.704C86.2321 146.799 92.1637 153.832 101.218 156.413C110.272 158.993 119.021 156.144 120.758 150.049Z" fill="#F15A4C"></path><path d="M267.89 97.6699C268.141 97.6699 268.391 97.6978 268.67 97.7813C270.341 98.2549 271.149 100.316 270.48 102.405C269.923 104.16 268.475 105.358 267.054 105.414C266.804 105.414 266.553 105.386 266.274 105.302C264.603 104.829 263.795 102.767 264.464 100.678C265.021 98.9234 266.441 97.6978 267.89 97.6699Z" fill="#FDB71D"></path><path d="M250.258 92.6284C250.508 92.6284 250.759 92.6563 251.037 92.7398C252.709 93.2134 253.517 95.2746 252.848 97.3637C252.291 99.1186 250.842 100.316 249.422 100.344C249.171 100.344 248.921 100.316 248.642 100.233C246.971 99.7593 246.163 97.698 246.831 95.6089C247.361 93.854 248.809 92.6563 250.258 92.6284Z" fill="#FDB71D"></path><path d="M232.597 87.5869C232.848 87.5869 233.099 87.6148 233.377 87.6983C235.049 88.1719 235.856 90.2331 235.188 92.3222C234.631 94.0771 233.182 95.2749 231.762 95.3027C231.511 95.3027 231.26 95.2749 230.982 95.1913C229.311 94.7178 228.503 92.6565 229.171 90.5674C229.728 88.8125 231.177 87.6148 232.597 87.5869Z" fill="#FDB71D"></path><path d="M214.966 82.5171C215.216 82.5171 215.467 82.5449 215.745 82.6285C217.417 83.102 218.225 85.1633 217.556 87.2524C216.999 89.0073 215.551 90.205 214.13 90.2329C213.879 90.2329 213.629 90.205 213.35 90.1215C211.679 89.6479 210.871 87.5867 211.539 85.4976C212.069 83.7706 213.517 82.5728 214.966 82.5171Z" fill="#DF1B50"></path><path d="M263.015 113.074C263.266 113.074 263.516 113.102 263.795 113.186C265.466 113.659 266.274 115.72 265.605 117.81C265.048 119.564 263.6 120.762 262.179 120.79C261.929 120.79 261.678 120.762 261.399 120.679C259.728 120.205 258.92 118.144 259.589 116.055C260.118 114.3 261.566 113.102 263.015 113.074Z" fill="#FDB71D"></path><path d="M245.355 108.032C245.606 108.032 245.857 108.06 246.135 108.143C247.806 108.617 248.614 110.678 247.946 112.767C247.389 114.522 245.94 115.72 244.52 115.775C244.269 115.775 244.018 115.748 243.74 115.664C242.068 115.19 241.261 113.129 241.929 111.04C242.486 109.257 243.935 108.06 245.355 108.032Z" fill="#FDB71D"></path><path d="M227.723 102.962C227.974 102.962 228.224 102.99 228.503 103.074C230.174 103.547 230.982 105.609 230.313 107.698C229.756 109.453 228.308 110.65 226.887 110.706C226.637 110.706 226.386 110.678 226.107 110.595C224.436 110.121 223.628 108.06 224.297 105.971C224.826 104.216 226.274 102.99 227.723 102.962Z" fill="#DF1B50"></path><path d="M210.063 97.9204C210.314 97.9204 210.565 97.9483 210.843 98.0318C212.514 98.5054 213.322 100.567 212.654 102.656C212.097 104.411 210.648 105.608 209.228 105.636C208.977 105.636 208.726 105.608 208.448 105.525C206.776 105.051 205.969 102.99 206.637 100.901C207.194 99.146 208.643 97.9483 210.063 97.9204Z" fill="#FDB71D"></path><path d="M275.689 133.687C275.94 133.687 276.191 133.714 276.469 133.798C278.14 134.271 278.948 136.333 278.28 138.422C277.723 140.177 276.274 141.374 274.854 141.43C274.603 141.43 274.352 141.402 274.074 141.319C272.402 140.845 271.595 138.784 272.263 136.695C272.82 134.912 274.269 133.714 275.689 133.687Z" fill="#FDB71D"></path><path d="M258.057 128.645C258.308 128.645 258.558 128.672 258.837 128.756C260.508 129.229 261.316 131.291 260.647 133.38C260.09 135.135 258.642 136.332 257.221 136.36C256.971 136.36 256.692 136.332 256.441 136.249C254.77 135.775 253.962 133.714 254.631 131.625C255.188 129.87 256.608 128.672 258.057 128.645Z" fill="#FDB71D"></path><path d="M240.425 123.575C240.676 123.575 240.926 123.603 241.205 123.687C242.876 124.16 243.684 126.221 243.016 128.311C242.458 130.065 241.01 131.263 239.589 131.291C239.339 131.291 239.088 131.263 238.809 131.18C237.138 130.706 236.33 128.645 236.999 126.556C237.528 124.829 238.977 123.631 240.425 123.575Z" fill="#F15A4C"></path><path d="M222.765 118.534C223.016 118.534 223.266 118.562 223.545 118.645C225.216 119.119 226.024 121.18 225.355 123.269C224.798 125.024 223.35 126.222 221.929 126.249C221.679 126.249 221.428 126.222 221.149 126.138C219.478 125.665 218.67 123.603 219.339 121.514C219.896 119.759 221.344 118.562 222.765 118.534Z" fill="#FDB71D"></path><path d="M205.133 113.492C205.383 113.492 205.634 113.52 205.912 113.603C207.584 114.077 208.392 116.138 207.723 118.227C207.166 119.982 205.717 121.18 204.297 121.207C204.046 121.207 203.796 121.18 203.517 121.096C201.846 120.623 201.038 118.561 201.706 116.472C202.236 114.717 203.684 113.52 205.133 113.492Z" fill="#FDB71D"></path><path d="M270.814 149.09C271.065 149.09 271.316 149.118 271.594 149.202C273.265 149.675 274.073 151.737 273.405 153.826C272.848 155.581 271.399 156.778 269.979 156.806C269.728 156.806 269.477 156.778 269.199 156.695C267.527 156.221 266.72 154.16 267.388 152.071C267.945 150.316 269.366 149.118 270.814 149.09Z" fill="#F15A4C"></path><path d="M253.182 144.021C253.433 144.021 253.684 144.048 253.962 144.132C255.634 144.605 256.441 146.667 255.773 148.756C255.216 150.511 253.767 151.708 252.347 151.736C252.096 151.736 251.845 151.708 251.567 151.625C249.895 151.151 249.088 149.09 249.756 147.001C250.285 145.274 251.734 144.048 253.182 144.021Z" fill="#FDB71D"></path><path d="M235.522 138.979C235.773 138.979 236.024 139.006 236.302 139.09C237.973 139.563 238.781 141.625 238.113 143.714C237.556 145.469 236.107 146.666 234.687 146.722C234.436 146.722 234.185 146.694 233.907 146.611C232.235 146.137 231.428 144.076 232.096 141.987C232.653 140.204 234.074 139.006 235.522 138.979Z" fill="#FDB71D"></path><path d="M217.89 133.937C218.141 133.937 218.392 133.965 218.67 134.048C220.342 134.522 221.149 136.583 220.481 138.672C219.924 140.427 218.475 141.625 217.055 141.681C216.804 141.681 216.553 141.653 216.275 141.569C214.603 141.096 213.796 139.034 214.464 136.945C214.993 135.163 216.442 133.965 217.89 133.937Z" fill="#DF1B50"></path><path d="M200.23 128.868C200.481 128.868 200.732 128.896 201.01 128.979C202.681 129.453 203.489 131.514 202.821 133.603C202.264 135.358 200.815 136.556 199.395 136.583C199.144 136.583 198.893 136.556 198.615 136.472C196.943 135.999 196.136 133.937 196.804 131.848C197.361 130.121 198.81 128.923 200.23 128.868Z" fill="#DF1B50"></path><path d="M265.94 164.466C266.19 164.466 266.441 164.494 266.72 164.577C268.391 165.051 269.199 167.112 268.53 169.201C267.973 170.956 266.525 172.154 265.104 172.209C264.853 172.209 264.603 172.182 264.324 172.098C262.653 171.625 261.845 169.563 262.514 167.474C263.043 165.691 264.491 164.494 265.94 164.466Z" fill="#FDB71D"></path><path d="M248.28 159.424C248.531 159.424 248.781 159.452 249.06 159.535C250.731 160.009 251.539 162.07 250.87 164.159C250.313 165.914 248.865 167.112 247.444 167.14C247.194 167.14 246.943 167.112 246.664 167.028C244.993 166.555 244.185 164.493 244.854 162.404C245.411 160.649 246.832 159.452 248.28 159.424Z" fill="#F15A4C"></path><path d="M230.648 154.382C230.898 154.382 231.149 154.41 231.428 154.494C233.099 154.967 233.907 157.029 233.238 159.118C232.681 160.873 231.233 162.07 229.812 162.098C229.561 162.098 229.311 162.07 229.032 161.987C227.361 161.513 226.553 159.452 227.222 157.363C227.751 155.608 229.199 154.41 230.648 154.382Z" fill="#DF1B50"></path><path d="M212.988 149.313C213.239 149.313 213.489 149.341 213.768 149.424C215.439 149.898 216.247 151.959 215.578 154.048C215.021 155.803 213.573 157.001 212.152 157.029C211.902 157.029 211.651 157.001 211.372 156.917C209.701 156.444 208.893 154.383 209.562 152.293C210.119 150.566 211.567 149.369 212.988 149.313Z" fill="#FDB71D"></path><path d="M195.356 144.271C195.606 144.271 195.857 144.299 196.136 144.382C197.807 144.856 198.615 146.917 197.946 149.006C197.389 150.761 195.941 151.959 194.52 152.015C194.269 152.015 194.019 151.987 193.74 151.903C192.069 151.43 191.261 149.368 191.93 147.279C192.459 145.497 193.907 144.299 195.356 144.271Z" fill="#FDB71D"></path><path d="M278.614 185.079C278.865 185.079 279.115 185.106 279.394 185.19C281.065 185.664 281.873 187.725 281.204 189.814C280.647 191.569 279.199 192.767 277.778 192.794C277.528 192.794 277.277 192.767 276.998 192.683C275.327 192.209 274.519 190.148 275.188 188.059C275.745 186.332 277.193 185.106 278.614 185.079Z" fill="#FDB71D"></path><path d="M260.982 180.037C261.232 180.037 261.483 180.064 261.762 180.148C263.433 180.622 264.241 182.683 263.572 184.772C263.015 186.527 261.567 187.725 260.146 187.752C259.895 187.752 259.645 187.725 259.366 187.641C257.695 187.167 256.887 185.106 257.556 183.017C258.113 181.262 259.533 180.064 260.982 180.037Z" fill="#FDB71D"></path><path d="M243.35 174.995C243.601 174.995 243.851 175.023 244.13 175.107C245.801 175.58 246.609 177.641 245.94 179.73C245.383 181.485 243.935 182.683 242.514 182.711C242.263 182.711 242.013 182.683 241.734 182.6C240.063 182.126 239.255 180.065 239.924 177.976C240.453 176.221 241.901 175.023 243.35 174.995Z" fill="#FDB71D"></path><path d="M225.69 169.954C225.94 169.954 226.191 169.981 226.47 170.065C228.141 170.539 228.949 172.6 228.28 174.689C227.723 176.444 226.275 177.642 224.854 177.697C224.603 177.697 224.353 177.669 224.074 177.586C222.403 177.112 221.595 175.051 222.264 172.962C222.821 171.179 224.269 169.981 225.69 169.954Z" fill="#FDB71D"></path><path d="M208.057 164.884C208.308 164.884 208.559 164.912 208.837 164.996C210.509 165.469 211.316 167.53 210.648 169.62C210.091 171.374 208.642 172.572 207.222 172.6C206.971 172.6 206.692 172.572 206.442 172.489C204.77 172.015 203.963 169.954 204.631 167.865C205.16 166.138 206.609 164.94 208.057 164.884Z" fill="#FDB71D"></path><path d="M190.398 159.842C190.648 159.842 190.899 159.87 191.178 159.953C192.849 160.427 193.657 162.488 192.988 164.577C192.431 166.332 190.983 167.53 189.562 167.558C189.311 167.558 189.061 167.53 188.782 167.446C187.111 166.973 186.303 164.911 186.972 162.822C187.529 161.067 188.977 159.87 190.398 159.842Z" fill="#FDB71D"></path><path d="M273.739 200.482C273.99 200.482 274.24 200.51 274.519 200.594C276.19 201.067 276.998 203.129 276.329 205.218C275.772 206.973 274.324 208.17 272.903 208.226C272.653 208.226 272.402 208.198 272.123 208.115C270.452 207.641 269.644 205.58 270.313 203.491C270.87 201.708 272.291 200.51 273.739 200.482Z" fill="#DF1B50"></path><path d="M256.079 195.441C256.33 195.441 256.609 195.469 256.859 195.552C258.531 196.026 259.338 198.087 258.67 200.176C258.113 201.931 256.664 203.129 255.244 203.157C254.993 203.157 254.714 203.129 254.464 203.045C252.792 202.572 251.985 200.511 252.653 198.421C253.21 196.667 254.659 195.469 256.079 195.441Z" fill="#F15A4C"></path><path d="M238.447 190.372C238.698 190.372 238.948 190.399 239.227 190.483C240.898 190.957 241.706 193.018 241.037 195.107C240.48 196.862 239.032 198.06 237.611 198.087C237.361 198.087 237.11 198.06 236.831 197.976C235.16 197.502 234.352 195.441 235.021 193.352C235.578 191.625 236.999 190.427 238.447 190.372Z" fill="#DF1B50"></path><path d="M220.815 185.329C221.066 185.329 221.317 185.357 221.595 185.441C223.266 185.914 224.074 187.975 223.406 190.064C222.849 191.819 221.4 193.017 219.98 193.045C219.729 193.045 219.478 193.017 219.2 192.933C217.528 192.46 216.72 190.399 217.389 188.31C217.918 186.555 219.367 185.357 220.815 185.329Z" fill="#FDB71D"></path><path d="M203.155 180.288C203.406 180.288 203.656 180.315 203.935 180.399C205.606 180.873 206.414 182.934 205.745 185.023C205.188 186.778 203.74 187.976 202.319 188.031C202.069 188.031 201.818 188.003 201.539 187.92C199.868 187.446 199.06 185.385 199.729 183.296C200.286 181.513 201.734 180.315 203.155 180.288Z" fill="#F15A4C"></path><path d="M185.523 175.246C185.774 175.246 186.025 175.274 186.303 175.358C187.974 175.831 188.782 177.892 188.114 179.981C187.557 181.736 186.108 182.934 184.688 182.99C184.437 182.99 184.186 182.962 183.908 182.878C182.236 182.405 181.428 180.344 182.097 178.254C182.626 176.472 184.075 175.274 185.523 175.246Z" fill="#FDB71D"></path><path d="M268.781 216.053C269.032 216.053 269.282 216.081 269.561 216.165C271.232 216.638 272.04 218.699 271.371 220.789C270.814 222.543 269.366 223.741 267.945 223.769C267.695 223.769 267.444 223.741 267.165 223.658C265.494 223.184 264.686 221.123 265.355 219.034C265.912 217.279 267.36 216.081 268.781 216.053Z" fill="#FDB71D"></path><path d="M251.149 211.011C251.4 211.011 251.651 211.039 251.929 211.123C253.6 211.596 254.408 213.657 253.74 215.747C253.183 217.501 251.734 218.699 250.313 218.727C250.063 218.727 249.812 218.699 249.534 218.616C247.862 218.142 247.054 216.081 247.723 213.992C248.28 212.237 249.701 211.039 251.149 211.011Z" fill="#FDB71D"></path><path d="M233.517 205.941C233.768 205.941 234.018 205.969 234.297 206.053C235.968 206.526 236.776 208.588 236.107 210.677C235.55 212.432 234.102 213.629 232.681 213.685C232.43 213.685 232.18 213.657 231.901 213.574C230.23 213.1 229.422 211.039 230.091 208.95C230.62 207.195 232.068 205.997 233.517 205.941Z" fill="#FDB71D"></path><path d="M215.857 200.9C216.107 200.9 216.358 200.928 216.637 201.011C218.308 201.485 219.116 203.546 218.447 205.635C217.89 207.39 216.442 208.588 215.021 208.644C214.77 208.644 214.52 208.616 214.241 208.532C212.57 208.059 211.762 205.997 212.431 203.908C212.988 202.126 214.408 200.928 215.857 200.9Z" fill="#FDB71D"></path><path d="M198.225 195.858C198.476 195.858 198.726 195.886 199.005 195.969C200.676 196.443 201.484 198.504 200.815 200.593C200.258 202.348 198.81 203.546 197.389 203.574C197.138 203.574 196.888 203.546 196.609 203.462C194.938 202.989 194.13 200.927 194.799 198.838C195.328 197.084 196.776 195.886 198.225 195.858Z" fill="#FDB71D"></path><path d="M180.565 190.816C180.815 190.816 181.066 190.844 181.345 190.928C183.016 191.401 183.824 193.463 183.155 195.552C182.598 197.307 181.15 198.504 179.729 198.532C179.478 198.532 179.228 198.504 178.949 198.421C177.278 197.947 176.47 195.886 177.139 193.797C177.696 192.042 179.144 190.844 180.565 190.816Z" fill="#DF1B50"></path><path d="M263.906 231.43C264.157 231.43 264.408 231.458 264.686 231.541C266.358 232.015 267.165 234.076 266.497 236.165C265.94 237.92 264.491 239.118 263.071 239.173C262.82 239.173 262.569 239.145 262.291 239.062C260.62 238.588 259.812 236.527 260.48 234.438C261.037 232.683 262.458 231.485 263.906 231.43Z" fill="#FDB71D"></path><path d="M246.246 226.387C246.497 226.387 246.776 226.415 247.026 226.499C248.698 226.972 249.505 229.033 248.837 231.123C248.28 232.877 246.831 234.075 245.411 234.103C245.16 234.103 244.909 234.075 244.631 233.992C242.959 233.518 242.152 231.457 242.82 229.368C243.377 227.613 244.826 226.415 246.246 226.387Z" fill="#FDB71D"></path><path d="M228.614 221.346C228.865 221.346 229.116 221.374 229.394 221.457C231.066 221.931 231.873 223.992 231.205 226.081C230.648 227.836 229.199 229.034 227.779 229.061C227.528 229.061 227.277 229.034 226.999 228.95C225.328 228.477 224.52 226.415 225.188 224.326C225.745 222.571 227.166 221.374 228.614 221.346Z" fill="#FDB71D"></path><path d="M210.982 216.303C211.233 216.303 211.484 216.331 211.762 216.415C213.433 216.888 214.241 218.949 213.573 221.039C213.016 222.793 211.567 223.991 210.146 224.019C209.896 224.019 209.645 223.991 209.367 223.908C207.695 223.434 206.887 221.373 207.556 219.284C208.085 217.529 209.534 216.331 210.982 216.303Z" fill="#F15A4C"></path><path d="M193.322 211.234C193.573 211.234 193.824 211.262 194.102 211.346C195.774 211.819 196.581 213.881 195.913 215.97C195.356 217.725 193.907 218.922 192.487 218.978C192.236 218.978 191.985 218.95 191.707 218.867C190.036 218.393 189.228 216.332 189.896 214.243C190.453 212.488 191.902 211.29 193.322 211.234Z" fill="#FDB71D"></path><path d="M175.69 206.192C175.941 206.192 176.192 206.22 176.47 206.303C178.141 206.777 178.949 208.838 178.281 210.927C177.724 212.682 176.275 213.88 174.855 213.936C174.604 213.936 174.353 213.908 174.075 213.824C172.403 213.351 171.595 211.289 172.264 209.2C172.793 207.418 174.242 206.22 175.69 206.192Z" fill="#FDB71D"></path><path d="M86.5 201H126.5V178H86.5V201Z" fill="#11B790"></path><path d="M152.582 168.609C151.265 165.915 149.428 162.257 151.293 158.765C152.856 155.795 156.805 154.008 160.315 153.046C169.172 150.598 177.015 152.468 179.647 158.435C182.115 163.99 179.181 168.994 171.448 172.762C162.289 177.216 155.488 174.604 152.582 168.609Z" fill="#11B790"></path><path d="M151.946 160.612C151.416 159.458 150.663 157.92 154.344 155.228C157.495 152.92 163.073 150.503 167.787 148.717C179.695 144.212 188.592 142.646 189.428 145.283C190.209 147.728 184.576 151.711 173.476 156.601C160.396 162.398 153.089 163.167 151.946 160.612Z" fill="#11B790"></path><path d="M152.62 156L117.5 182.591L133.729 199L159.5 166.911L152.62 156Z" fill="#11B790"></path><path d="M126.5 201C132.575 201 137.5 195.851 137.5 189.5C137.5 183.149 132.575 178 126.5 178C120.425 178 115.5 183.149 115.5 189.5C115.5 195.851 120.425 201 126.5 201Z" fill="#11B790"></path><path d="M63.5 226C87.2483 226 106.5 215.255 106.5 202C106.5 188.745 87.2483 178 63.5 178C39.7518 178 20.5 188.745 20.5 202C20.5 215.255 39.7518 226 63.5 226Z" fill="#822E91"></path><path d="M104.5 201H34.5V277H104.5V201Z" fill="#822E91"></path><path d="M116.655 178H61.5V212H113.792H116.655H119.518C120.135 208.379 120.5 203.608 120.5 198.377C120.472 187.139 118.76 178 116.655 178Z" fill="#822E91"></path><path d="M116.74 178H110.5C112.544 178 114.233 187.139 114.233 198.377C114.233 203.608 113.879 208.379 113.279 212H113.988H116.767H119.546C120.146 208.379 120.5 203.608 120.5 198.377C120.446 187.139 118.783 178 116.74 178Z" fill="#F15A4C"></path><path d="M38.5 228L-0.5 224.437L23.9392 195L38.5 202.702V228Z" fill="#822E91"></path><path d="M64.4305 178C64.0637 178 63.6968 178 63.33 178C62.9632 178 62.5963 178 62.2295 178H61.4112V178.03C56.5296 178.151 51.8455 178.756 47.5 179.783C48.149 196.706 57.0657 200 67.9859 200C79.2729 200 88.4436 196.495 88.5 178.03H64.4305V178Z" fill="#F15A4C"></path><path d="M22.3988 217.172C18.998 213.762 14.5486 212.028 10.0708 212L-0.5 225.329L27.5 228C27.1032 224.021 25.4312 220.185 22.3988 217.172Z" fill="#F15A4C"></path><path d="M9.5 242C15.5751 242 20.5 236.627 20.5 230C20.5 223.373 15.5751 218 9.5 218C3.42487 218 -1.5 223.373 -1.5 230C-1.5 236.627 3.42487 242 9.5 242Z" fill="#11B790"></path><path d="M53.5 157V178.929C53.5 189.908 60.2105 192 68.5 192C76.7895 192 83.5 189.908 83.5 178.929V157H53.5Z" fill="#11B790"></path><path d="M110.827 135.745C112.919 144.875 115.848 157.196 110.325 165.914C105.61 173.34 95.7902 175.155 87.3095 174.99C65.8566 174.522 48.3094 162.174 44.348 142.318C40.6377 123.781 49.1742 111.598 68.5626 107.143C91.3825 101.862 106.196 115.476 110.827 135.745Z" fill="#11B790"></path><path d="M46.3572 152C48.1565 149.028 50.5095 146.25 53.3331 143.778C53.5269 129.084 69.6379 114.918 91.5622 111.084C92.1989 110.973 92.8356 110.862 93.5 110.779C86.6348 106.307 77.8595 104.696 67.368 107.14C48.1565 111.64 39.6581 123.945 43.3398 142.667C43.9765 145.972 45.0007 149.111 46.3572 152Z" fill="#1B5091"></path><path d="M71.0002 129.076C69.4403 120.651 64.5004 113.776 58.1162 110C45.4632 116.114 40.2634 127.216 43.3833 142.545C44.6543 148.8 47.2543 154.351 50.8942 159C51.6452 158.944 52.3674 158.859 53.1185 158.746C65.627 156.605 73.629 143.334 71.0002 129.076Z" fill="#1B5091"></path><path d="M58.8585 162.625C63.8172 159.14 64.3304 151.326 60.0049 145.171C55.6793 139.017 48.153 136.853 43.1943 140.338C38.2356 143.824 37.7224 151.638 42.0479 157.792C46.3735 163.947 53.8998 166.11 58.8585 162.625Z" fill="#11B790"></path><path d="M48.5051 142.433C46.4717 142.684 44.4661 143.352 43.2126 145.051C42.182 146.444 42.0149 148.227 42.2656 149.87C42.5441 151.653 43.3798 153.352 44.4104 154.8C45.5803 156.444 47.0288 157.892 48.7558 158.951C50.622 160.093 52.8226 160.789 55.0231 160.566C55.5802 160.511 56.0537 160.149 56.0537 159.536C56.0537 159.034 55.5802 158.449 55.0231 158.505C54.6053 158.561 54.1596 158.561 53.7418 158.533C53.6304 158.533 53.5189 158.505 53.4354 158.505C53.3797 158.505 53.3518 158.505 53.2961 158.505C53.0733 158.477 53.5468 158.561 53.324 158.505C53.1011 158.477 52.9061 158.422 52.6833 158.394C52.2655 158.31 51.8477 158.171 51.4298 158.032C51.3463 158.004 51.2348 157.948 51.1513 157.92C51.012 157.864 51.402 158.032 51.1791 157.948C51.1513 157.92 51.0956 157.92 51.0677 157.892C50.8449 157.781 50.622 157.697 50.4271 157.558C50.0371 157.363 49.675 157.14 49.3129 156.89C49.1457 156.778 48.9786 156.639 48.7836 156.527C48.6443 156.416 48.8115 156.555 48.8393 156.555C48.7836 156.5 48.7279 156.472 48.6722 156.416C48.5886 156.332 48.5051 156.277 48.4215 156.193C47.7251 155.608 47.1123 154.968 46.5274 154.243C46.4995 154.215 46.4717 154.16 46.4438 154.132C46.3045 153.937 46.5831 154.327 46.4438 154.132C46.3881 154.048 46.3324 153.965 46.2767 153.881C46.1374 153.686 45.9981 153.491 45.8867 153.296C45.636 152.934 45.441 152.572 45.2182 152.182C45.1346 152.015 45.0511 151.848 44.9675 151.681C44.9118 151.597 44.8839 151.486 44.8282 151.402C44.7447 151.235 44.8561 151.458 44.8561 151.486C44.8282 151.43 44.8004 151.346 44.7725 151.291C44.6332 150.929 44.494 150.567 44.4104 150.177C44.3547 149.982 44.3268 149.787 44.2711 149.619C44.2433 149.536 44.2433 149.452 44.2154 149.369C44.1597 149.062 44.2433 149.564 44.2154 149.285C44.1876 148.923 44.1597 148.561 44.1876 148.199C44.1876 148.115 44.1876 148.032 44.2154 147.948C44.1597 148.171 44.2433 147.697 44.2154 147.948C44.2433 147.781 44.2711 147.586 44.3268 147.419C44.3547 147.28 44.4104 147.14 44.4661 146.973C44.494 146.945 44.5218 146.862 44.5218 146.834C44.5218 146.834 44.4104 147.085 44.4661 146.945C44.5218 146.862 44.5497 146.75 44.6054 146.667C44.689 146.5 44.8004 146.36 44.9118 146.193C44.9954 146.082 44.9397 146.249 44.8561 146.277C44.8839 146.277 44.9397 146.193 44.9675 146.165C45.0232 146.082 45.1068 145.998 45.1903 145.943C45.2739 145.859 45.4968 145.553 45.636 145.553C45.5803 145.553 45.441 145.692 45.5525 145.608C45.6082 145.58 45.6639 145.525 45.7196 145.497C45.8032 145.441 45.8867 145.385 45.9981 145.33C46.1931 145.218 46.3881 145.135 46.5831 145.023C46.7781 144.94 46.416 145.079 46.5274 145.051C46.6109 145.023 46.6667 144.996 46.7502 144.968C46.8616 144.94 46.9731 144.884 47.0566 144.856C47.3073 144.773 47.558 144.717 47.8087 144.661C47.948 144.633 48.1151 144.606 48.2544 144.578C48.3101 144.578 48.3658 144.55 48.4215 144.55C48.5329 144.522 48.5329 144.522 48.3937 144.55C48.4494 144.55 48.5051 144.55 48.5608 144.522C49.1179 144.466 49.5914 144.104 49.5914 143.491C49.5357 142.962 49.0622 142.377 48.5051 142.433Z" fill="#1B5091"></path><path d="M98.811 137.892C100.427 139.09 102.154 140.149 103.853 141.263C104.271 141.513 104.66 141.792 105.078 142.071C105.301 142.21 105.496 142.349 105.719 142.488C105.719 142.488 105.998 142.711 105.83 142.572C105.914 142.628 105.998 142.711 106.081 142.767C106.75 143.352 107.056 143.714 107.418 144.438C107.557 144.717 107.613 144.884 107.725 145.302C107.752 145.413 107.78 145.497 107.78 145.608C107.78 145.636 107.836 145.97 107.808 145.72C107.836 145.942 107.836 146.137 107.836 146.36C107.836 146.472 107.836 146.583 107.808 146.694C107.808 146.722 107.78 147.029 107.808 146.778C107.78 146.917 107.752 147.084 107.725 147.224C107.697 147.391 107.641 147.586 107.585 147.753C107.557 147.837 107.53 147.892 107.502 147.976C107.474 148.032 107.474 148.059 107.446 148.115C107.502 148.004 107.502 148.004 107.446 148.115C107.307 148.421 107.14 148.7 106.972 148.979C106.917 149.062 106.861 149.118 106.805 149.201C106.638 149.452 106.945 149.034 106.75 149.257C106.638 149.396 106.527 149.536 106.387 149.675C106.276 149.814 106.137 149.926 105.998 150.065C105.942 150.093 105.914 150.148 105.858 150.176C105.83 150.204 105.58 150.371 105.803 150.232C105.524 150.455 105.218 150.65 104.883 150.817C104.8 150.845 104.716 150.901 104.633 150.928C104.438 151.012 104.772 150.873 104.521 150.984C104.326 151.04 104.159 151.123 103.964 151.151C103.797 151.207 103.63 151.235 103.435 151.263C103.156 151.318 103.658 151.263 103.379 151.263C103.268 151.263 103.156 151.291 103.017 151.291C102.85 151.291 102.655 151.291 102.488 151.291C102.432 151.291 102.154 151.235 102.432 151.291C102.321 151.263 102.181 151.263 102.07 151.235C101.903 151.207 101.708 151.151 101.541 151.096C101.513 151.096 101.234 150.984 101.457 151.068C101.346 151.012 101.234 150.956 101.095 150.901C100.594 150.65 99.8973 150.761 99.6187 151.291C99.3681 151.792 99.4795 152.488 100.009 152.767C101.569 153.575 103.379 153.714 105.023 153.129C106.666 152.544 108.059 151.402 108.95 149.926C109.897 148.394 110.231 146.472 109.758 144.717C109.507 143.77 109.006 142.906 108.393 142.154C107.78 141.402 107 140.817 106.192 140.288C104.103 138.867 101.903 137.586 99.8694 136.082C99.3959 135.748 98.6438 135.998 98.3931 136.472C98.1146 136.973 98.3096 137.53 98.811 137.892Z" fill="#1B5091"></path><path d="M65.3299 143.157C65.887 141.959 66.2491 140.678 66.5555 139.424C67.224 136.583 67.3911 133.658 66.9733 130.789C66.6948 128.784 66.082 126.862 65.2185 125.023C64.9678 124.494 64.2157 124.355 63.7422 124.633C63.1851 124.94 63.1015 125.581 63.3522 126.11C64.0486 127.558 64.5221 129.146 64.8006 130.762C64.8842 131.235 64.8842 131.347 64.9399 131.764C64.9678 132.154 64.9956 132.544 65.0235 132.906C65.0513 133.631 65.0513 134.327 65.0235 135.051C64.9956 135.385 64.9678 135.692 64.9399 136.026C64.9121 136.165 64.9121 136.333 64.8842 136.472C64.8842 136.555 64.8564 136.639 64.8564 136.722C64.8285 137.057 64.8842 136.5 64.8564 136.806C64.7728 137.391 64.6614 137.948 64.5499 138.533C64.355 139.424 64.1043 140.288 63.8257 141.151C63.7422 141.43 63.6307 141.709 63.5193 141.987C63.4915 142.043 63.4915 142.071 63.4636 142.126C63.6307 141.709 63.575 141.876 63.5193 141.987C63.5193 142.015 63.4915 142.043 63.4915 142.071C63.2408 142.6 63.3243 143.268 63.8814 143.547C64.3271 143.798 65.0792 143.714 65.3299 143.157Z" fill="#11B790"></path><path d="M58.867 113.714C59.5077 113.352 60.1762 113.045 60.8447 112.739C60.9004 112.711 60.9283 112.711 60.984 112.683C60.8447 112.739 60.8168 112.739 60.9004 112.711C60.984 112.683 61.0675 112.656 61.1511 112.6C61.3182 112.544 61.4854 112.461 61.6525 112.405C62.0146 112.266 62.3767 112.154 62.711 112.015C63.2402 111.848 63.658 111.263 63.4631 110.678C63.2959 110.149 62.711 109.731 62.126 109.926C60.6219 110.427 59.1734 111.04 57.7807 111.792C57.2793 112.071 57.0843 112.795 57.3907 113.268C57.6971 113.853 58.3378 114.02 58.867 113.714Z" fill="#11B790"></path><path d="M50.2877 122.098C50.622 121.541 50.9562 121.012 51.3183 120.511C51.4855 120.26 51.6805 120.009 51.8754 119.759C51.9311 119.675 51.8197 119.842 51.9312 119.703C51.9869 119.647 52.0147 119.592 52.0704 119.536C52.1818 119.397 52.2933 119.257 52.4047 119.146C53.2125 118.171 54.1038 117.252 55.0787 116.416C55.4966 116.026 55.4966 115.246 55.0787 114.884C54.6331 114.466 53.9924 114.494 53.5467 114.884C51.5412 116.639 49.8142 118.756 48.4493 121.04C48.1429 121.541 48.3379 122.266 48.8393 122.516C49.3128 122.767 49.9813 122.6 50.2877 122.098Z" fill="#11B790"></path><path d="M47.5027 128.839C47.6977 127.948 47.9763 127.112 48.2827 126.249C48.3662 125.998 48.3105 125.636 48.1712 125.413C48.032 125.19 47.7813 124.967 47.5306 124.912C47.252 124.856 46.9456 124.856 46.6949 125.023C46.4442 125.19 46.305 125.385 46.1936 125.664C45.8871 126.499 45.6086 127.363 45.4136 128.254C45.3579 128.533 45.3858 128.839 45.525 129.09C45.6643 129.313 45.915 129.536 46.1657 129.591C46.4442 129.647 46.7506 129.647 47.0013 129.48C47.2242 129.341 47.4192 129.118 47.5027 128.839Z" fill="#11B790"></path><path d="M95.5 111.291C95.5 111.291 84.498 111.32 67.5 121L70.7181 110.792L93.7672 110L95.5 111.291Z" fill="#1B5091"></path></g></svg> 