<?xml version="1.0" encoding="UTF-8"?> <svg xmlns="http://www.w3.org/2000/svg" width="276" height="275" viewBox="0 0 276 275" fill="none"><circle cx="138" cy="137.5" r="137.5" fill="#302F2F"></circle><mask id="mask0_555_935" style="mask-type:alpha" maskUnits="userSpaceOnUse" x="0" y="0" width="276" height="275"><circle cx="138" cy="137.5" r="137.5" fill="#302F2F"></circle></mask><g mask="url(#mask0_555_935)"><path d="M196.359 67.2755C199.447 45.228 183.442 24.7627 160.61 21.5649C137.778 18.3671 116.766 33.6478 113.678 55.6952C110.59 77.7427 126.595 98.2081 149.427 101.406C172.259 104.604 193.271 89.323 196.359 67.2755Z" fill="#11B790"></path><path d="M139.386 96.92C152.56 85.9031 153.677 65.538 141.882 51.4332C130.086 37.3284 109.845 34.8252 96.6709 45.8421C83.497 56.8591 82.3794 77.2242 94.1747 91.329C105.97 105.434 126.212 107.937 139.386 96.92Z" fill="#11B790"></path><path d="M-0.193848 125.765C-0.193848 127.199 0.965757 128.389 2.4 128.389C3.83425 128.389 4.99386 127.23 4.99386 125.765C4.99386 124.3 3.83425 123.141 2.4 123.141C0.965757 123.141 -0.193848 124.3 -0.193848 125.765Z" fill="#FDB71D"></path><path d="M-0.193848 140.901C-0.193848 142.335 0.965757 143.525 2.4 143.525C3.83425 143.525 4.99386 142.365 4.99386 140.901C4.99386 139.466 3.83425 138.276 2.4 138.276C0.965757 138.307 -0.193848 139.466 -0.193848 140.901Z" fill="#FDB71D"></path><path d="M-0.193848 156.189C-0.193848 157.624 0.965757 158.814 2.4 158.814C3.83425 158.814 4.99386 157.654 4.99386 156.189C4.99386 154.755 3.83425 153.565 2.4 153.565C0.965757 153.595 -0.193848 154.755 -0.193848 156.189Z" fill="#FDB71D"></path><path d="M-0.193848 171.478C-0.193848 172.912 0.965757 174.102 2.4 174.102C3.83425 174.102 4.99386 172.943 4.99386 171.478C4.99386 170.013 3.83425 168.854 2.4 168.854C0.965757 168.854 -0.193848 170.044 -0.193848 171.478Z" fill="#FDB71D"></path><path d="M-0.193848 186.766C-0.193848 188.201 0.965757 189.391 2.4 189.391C3.83425 189.391 4.99386 188.231 4.99386 186.766C4.99386 185.302 3.83425 184.142 2.4 184.142C0.965757 184.142 -0.193848 185.332 -0.193848 186.766Z" fill="#FDB71D"></path><path d="M-0.193848 202.055C-0.193848 203.489 0.965757 204.679 2.4 204.679C3.83425 204.679 4.99386 203.52 4.99386 202.055C4.99386 200.59 3.83425 199.431 2.4 199.431C0.965757 199.431 -0.193848 200.621 -0.193848 202.055Z" fill="#FDB71D"></path><path d="M-0.193848 217.343C-0.193848 218.777 0.965757 219.967 2.4 219.967C3.83425 219.967 4.99386 218.808 4.99386 217.343C4.99386 215.878 3.83425 214.719 2.4 214.719C0.965757 214.719 -0.193848 215.878 -0.193848 217.343Z" fill="#FDB71D"></path><path d="M10.4258 125.765C10.4258 127.199 11.5854 128.389 13.0196 128.389C14.4539 128.389 15.6135 127.23 15.6135 125.765C15.6135 124.3 14.4539 123.141 13.0196 123.141C11.5854 123.141 10.4258 124.3 10.4258 125.765Z" fill="#FDB71D"></path><path d="M10.4258 140.901C10.4258 142.335 11.5854 143.525 13.0196 143.525C14.4539 143.525 15.6135 142.365 15.6135 140.901C15.6135 139.466 14.4539 138.276 13.0196 138.276C11.5854 138.307 10.4258 139.466 10.4258 140.901Z" fill="#FDB71D"></path><path d="M10.4258 156.189C10.4258 157.624 11.5854 158.814 13.0196 158.814C14.4539 158.814 15.6135 157.654 15.6135 156.189C15.6135 154.755 14.4539 153.565 13.0196 153.565C11.5854 153.595 10.4258 154.755 10.4258 156.189Z" fill="#FDB71D"></path><path d="M10.4258 171.478C10.4258 172.912 11.5854 174.102 13.0196 174.102C14.4539 174.102 15.6135 172.943 15.6135 171.478C15.6135 170.013 14.4539 168.854 13.0196 168.854C11.5854 168.854 10.4258 170.044 10.4258 171.478Z" fill="#FDB71D"></path><path d="M10.4258 186.766C10.4258 188.201 11.5854 189.391 13.0196 189.391C14.4539 189.391 15.6135 188.231 15.6135 186.766C15.6135 185.302 14.4539 184.142 13.0196 184.142C11.5854 184.142 10.4258 185.332 10.4258 186.766Z" fill="#FDB71D"></path><path d="M10.4258 202.055C10.4258 203.489 11.5854 204.679 13.0196 204.679C14.4539 204.679 15.6135 203.52 15.6135 202.055C15.6135 200.59 14.4539 199.431 13.0196 199.431C11.5854 199.431 10.4258 200.621 10.4258 202.055Z" fill="#FDB71D"></path><path d="M10.4258 217.343C10.4258 218.777 11.5854 219.967 13.0196 219.967C14.4539 219.967 15.6135 218.808 15.6135 217.343C15.6135 215.878 14.4539 214.719 13.0196 214.719C11.5854 214.719 10.4258 215.878 10.4258 217.343Z" fill="#FDB71D"></path><path d="M21.167 125.765C21.167 127.199 22.3266 128.389 23.7608 128.389C25.1951 128.389 26.3547 127.23 26.3547 125.765C26.3547 124.3 25.1951 123.141 23.7608 123.141C22.3266 123.141 21.167 124.3 21.167 125.765Z" fill="#FDB71D"></path><path d="M21.167 140.901C21.167 142.335 22.3266 143.525 23.7608 143.525C25.1951 143.525 26.3547 142.365 26.3547 140.901C26.3547 139.466 25.1951 138.276 23.7608 138.276C22.3266 138.307 21.167 139.466 21.167 140.901Z" fill="#FDB71D"></path><path d="M21.167 156.189C21.167 157.624 22.3266 158.814 23.7608 158.814C25.1951 158.814 26.3547 157.654 26.3547 156.189C26.3547 154.755 25.1951 153.565 23.7608 153.565C22.3266 153.595 21.167 154.755 21.167 156.189Z" fill="#FDB71D"></path><path d="M21.167 171.478C21.167 172.912 22.3266 174.102 23.7608 174.102C25.1951 174.102 26.3547 172.943 26.3547 171.478C26.3547 170.013 25.1951 168.854 23.7608 168.854C22.3266 168.854 21.167 170.044 21.167 171.478Z" fill="#FDB71D"></path><path d="M21.167 186.766C21.167 188.201 22.3266 189.391 23.7608 189.391C25.1951 189.391 26.3547 188.231 26.3547 186.766C26.3547 185.302 25.1951 184.142 23.7608 184.142C22.3266 184.142 21.167 185.332 21.167 186.766Z" fill="#FDB71D"></path><path d="M21.167 202.055C21.167 203.489 22.3266 204.679 23.7608 204.679C25.1951 204.679 26.3547 203.52 26.3547 202.055C26.3547 200.59 25.1951 199.431 23.7608 199.431C22.3266 199.431 21.167 200.621 21.167 202.055Z" fill="#FDB71D"></path><path d="M21.167 217.343C21.167 218.777 22.3266 219.967 23.7608 219.967C25.1951 219.967 26.3547 218.808 26.3547 217.343C26.3547 215.878 25.1951 214.719 23.7608 214.719C22.3266 214.719 21.167 215.878 21.167 217.343Z" fill="#FDB71D"></path><path d="M31.7866 125.765C31.7866 127.199 32.9462 128.389 34.3805 128.389C35.8147 128.389 36.9743 127.23 36.9743 125.765C36.9743 124.3 35.8147 123.141 34.3805 123.141C32.9462 123.141 31.7866 124.3 31.7866 125.765Z" fill="#FDB71D"></path><path d="M31.7866 140.901C31.7866 142.335 32.9462 143.525 34.3805 143.525C35.8147 143.525 36.9743 142.365 36.9743 140.901C36.9743 139.466 35.8147 138.276 34.3805 138.276C32.9462 138.307 31.7866 139.466 31.7866 140.901Z" fill="#FDB71D"></path><path d="M31.7866 156.189C31.7866 157.624 32.9462 158.814 34.3805 158.814C35.8147 158.814 36.9743 157.654 36.9743 156.189C36.9743 154.755 35.8147 153.565 34.3805 153.565C32.9462 153.595 31.7866 154.755 31.7866 156.189Z" fill="#FDB71D"></path><path d="M31.7866 171.478C31.7866 172.912 32.9462 174.102 34.3805 174.102C35.8147 174.102 36.9743 172.943 36.9743 171.478C36.9743 170.013 35.8147 168.854 34.3805 168.854C32.9462 168.854 31.7866 170.044 31.7866 171.478Z" fill="#FDB71D"></path><path d="M31.7866 186.766C31.7866 188.201 32.9462 189.391 34.3805 189.391C35.8147 189.391 36.9743 188.231 36.9743 186.766C36.9743 185.302 35.8147 184.142 34.3805 184.142C32.9462 184.142 31.7866 185.332 31.7866 186.766Z" fill="#FDB71D"></path><path d="M31.7866 202.055C31.7866 203.489 32.9462 204.679 34.3805 204.679C35.8147 204.679 36.9743 203.52 36.9743 202.055C36.9743 200.59 35.8147 199.431 34.3805 199.431C32.9462 199.431 31.7866 200.621 31.7866 202.055Z" fill="#FDB71D"></path><path d="M31.7866 217.343C31.7866 218.777 32.9462 219.967 34.3805 219.967C35.8147 219.967 36.9743 218.808 36.9743 217.343C36.9743 215.878 35.8147 214.719 34.3805 214.719C32.9462 214.719 31.7866 215.878 31.7866 217.343Z" fill="#FDB71D"></path><path d="M239.021 125.765C239.021 127.199 240.18 128.389 241.614 128.389C243.049 128.389 244.208 127.23 244.208 125.765C244.208 124.3 243.049 123.141 241.614 123.141C240.18 123.141 239.021 124.3 239.021 125.765Z" fill="#F15A4C"></path><path d="M239.021 140.901C239.021 142.335 240.18 143.525 241.614 143.525C243.049 143.525 244.208 142.365 244.208 140.901C244.208 139.466 243.049 138.276 241.614 138.276C240.18 138.307 239.021 139.466 239.021 140.901Z" fill="#F15A4C"></path><path d="M239.021 156.189C239.021 157.624 240.18 158.814 241.614 158.814C243.049 158.814 244.208 157.654 244.208 156.189C244.208 154.755 243.049 153.565 241.614 153.565C240.18 153.595 239.021 154.755 239.021 156.189Z" fill="#F15A4C"></path><path d="M239.021 171.478C239.021 172.912 240.18 174.102 241.614 174.102C243.049 174.102 244.208 172.943 244.208 171.478C244.208 170.013 243.049 168.854 241.614 168.854C240.18 168.854 239.021 170.044 239.021 171.478Z" fill="#F15A4C"></path><path d="M239.021 186.766C239.021 188.201 240.18 189.391 241.614 189.391C243.049 189.391 244.208 188.231 244.208 186.766C244.208 185.302 243.049 184.142 241.614 184.142C240.18 184.142 239.021 185.332 239.021 186.766Z" fill="#F15A4C"></path><path d="M239.021 202.055C239.021 203.489 240.18 204.679 241.614 204.679C243.049 204.679 244.208 203.52 244.208 202.055C244.208 200.59 243.049 199.431 241.614 199.431C240.18 199.431 239.021 200.621 239.021 202.055Z" fill="#F15A4C"></path><path d="M239.021 217.343C239.021 218.777 240.18 219.967 241.614 219.967C243.049 219.967 244.208 218.808 244.208 217.343C244.208 215.878 243.049 214.719 241.614 214.719C240.18 214.719 239.021 215.878 239.021 217.343Z" fill="#F15A4C"></path><path d="M249.609 125.765C249.609 127.199 250.769 128.389 252.203 128.389C253.637 128.389 254.797 127.23 254.797 125.765C254.797 124.3 253.637 123.141 252.203 123.141C250.799 123.141 249.609 124.3 249.609 125.765Z" fill="#F15A4C"></path><path d="M249.609 140.901C249.609 142.335 250.769 143.525 252.203 143.525C253.637 143.525 254.797 142.365 254.797 140.901C254.797 139.466 253.637 138.276 252.203 138.276C250.799 138.307 249.609 139.466 249.609 140.901Z" fill="#F15A4C"></path><path d="M249.609 156.189C249.609 157.624 250.769 158.814 252.203 158.814C253.637 158.814 254.797 157.654 254.797 156.189C254.797 154.755 253.637 153.565 252.203 153.565C250.799 153.595 249.609 154.755 249.609 156.189Z" fill="#F15A4C"></path><path d="M249.609 171.478C249.609 172.912 250.769 174.102 252.203 174.102C253.637 174.102 254.797 172.943 254.797 171.478C254.797 170.013 253.637 168.854 252.203 168.854C250.799 168.854 249.609 170.044 249.609 171.478Z" fill="#F15A4C"></path><path d="M249.609 186.766C249.609 188.201 250.769 189.391 252.203 189.391C253.637 189.391 254.797 188.231 254.797 186.766C254.797 185.302 253.637 184.142 252.203 184.142C250.799 184.142 249.609 185.332 249.609 186.766Z" fill="#F15A4C"></path><path d="M249.609 202.055C249.609 203.489 250.769 204.679 252.203 204.679C253.637 204.679 254.797 203.52 254.797 202.055C254.797 200.59 253.637 199.431 252.203 199.431C250.799 199.431 249.609 200.621 249.609 202.055Z" fill="#F15A4C"></path><path d="M249.609 217.343C249.609 218.777 250.769 219.967 252.203 219.967C253.637 219.967 254.797 218.808 254.797 217.343C254.797 215.878 253.637 214.719 252.203 214.719C250.799 214.719 249.609 215.878 249.609 217.343Z" fill="#F15A4C"></path><path d="M260.351 125.765C260.351 127.199 261.511 128.389 262.945 128.389C264.379 128.389 265.539 127.23 265.539 125.765C265.539 124.3 264.379 123.141 262.945 123.141C261.511 123.141 260.351 124.3 260.351 125.765Z" fill="#F15A4C"></path><path d="M260.351 140.901C260.351 142.335 261.511 143.525 262.945 143.525C264.379 143.525 265.539 142.365 265.539 140.901C265.539 139.466 264.379 138.276 262.945 138.276C261.511 138.307 260.351 139.466 260.351 140.901Z" fill="#F15A4C"></path><path d="M260.351 156.189C260.351 157.624 261.511 158.814 262.945 158.814C264.379 158.814 265.539 157.654 265.539 156.189C265.539 154.755 264.379 153.565 262.945 153.565C261.511 153.595 260.351 154.755 260.351 156.189Z" fill="#F15A4C"></path><path d="M260.351 171.478C260.351 172.912 261.511 174.102 262.945 174.102C264.379 174.102 265.539 172.943 265.539 171.478C265.539 170.013 264.379 168.854 262.945 168.854C261.511 168.854 260.351 170.044 260.351 171.478Z" fill="#F15A4C"></path><path d="M260.351 186.766C260.351 188.201 261.511 189.391 262.945 189.391C264.379 189.391 265.539 188.231 265.539 186.766C265.539 185.302 264.379 184.142 262.945 184.142C261.511 184.142 260.351 185.332 260.351 186.766Z" fill="#F15A4C"></path><path d="M260.351 202.055C260.351 203.489 261.511 204.679 262.945 204.679C264.379 204.679 265.539 203.52 265.539 202.055C265.539 200.59 264.379 199.431 262.945 199.431C261.511 199.431 260.351 200.621 260.351 202.055Z" fill="#F15A4C"></path><path d="M260.351 217.343C260.351 218.777 261.511 219.967 262.945 219.967C264.379 219.967 265.539 218.808 265.539 217.343C265.539 215.878 264.379 214.719 262.945 214.719C261.511 214.719 260.351 215.878 260.351 217.343Z" fill="#F15A4C"></path><path d="M270.971 125.765C270.971 127.199 272.13 128.389 273.565 128.389C274.999 128.389 276.158 127.23 276.158 125.765C276.158 124.3 274.999 123.141 273.565 123.141C272.13 123.141 270.971 124.3 270.971 125.765Z" fill="#F15A4C"></path><path d="M270.971 140.901C270.971 142.335 272.13 143.525 273.565 143.525C274.999 143.525 276.158 142.365 276.158 140.901C276.158 139.466 274.999 138.276 273.565 138.276C272.13 138.307 270.971 139.466 270.971 140.901Z" fill="#F15A4C"></path><path d="M270.971 156.189C270.971 157.624 272.13 158.814 273.565 158.814C274.999 158.814 276.158 157.654 276.158 156.189C276.158 154.755 274.999 153.565 273.565 153.565C272.13 153.595 270.971 154.755 270.971 156.189Z" fill="#F15A4C"></path><path d="M270.971 171.478C270.971 172.912 272.13 174.102 273.565 174.102C274.999 174.102 276.158 172.943 276.158 171.478C276.158 170.013 274.999 168.854 273.565 168.854C272.13 168.854 270.971 170.044 270.971 171.478Z" fill="#F15A4C"></path><path d="M270.971 186.766C270.971 188.201 272.13 189.391 273.565 189.391C274.999 189.391 276.158 188.231 276.158 186.766C276.158 185.302 274.999 184.142 273.565 184.142C272.13 184.142 270.971 185.332 270.971 186.766Z" fill="#F15A4C"></path><path d="M270.971 202.055C270.971 203.489 272.13 204.679 273.565 204.679C274.999 204.679 276.158 203.52 276.158 202.055C276.158 200.59 274.999 199.431 273.565 199.431C272.13 199.431 270.971 200.621 270.971 202.055Z" fill="#F15A4C"></path><path d="M270.971 217.343C270.971 218.777 272.13 219.967 273.565 219.967C274.999 219.967 276.158 218.808 276.158 217.343C276.158 215.878 274.999 214.719 273.565 214.719C272.13 214.719 270.971 215.878 270.971 217.343Z" fill="#F15A4C"></path><path d="M201.188 84.1193C176.827 84.0278 153.682 92.1177 137.989 106.222C122.387 92.0261 99.1816 83.9057 74.7901 84.1193C29.0484 84.1193 -7.99512 112.175 -7.99512 146.793C-7.99512 183.213 43.5555 219.114 84.644 241.919V224.945H191.821V241.888C232.818 219.236 284.004 183.61 284.004 146.793C284.004 112.175 246.93 84.1193 201.188 84.1193Z" fill="#28A4DD"></path><path d="M190.012 106.785C169.963 106.724 150.921 112.949 138.012 123.813C125.196 112.858 106.093 106.602 86.0134 106.785C48.3872 106.785 17.9019 128.421 17.9019 155.092C17.9019 200.805 130.414 245.449 134.961 247.158C136.792 248.043 139.203 248.043 141.034 247.158C145.58 245.419 258.093 201.445 258.093 155.092C258.123 128.421 227.607 106.785 190.012 106.785Z" fill="#28A4DD"></path><path d="M190.012 106.785C169.963 106.724 150.921 112.949 138.012 123.813C125.196 112.858 106.093 106.602 86.0134 106.785C48.3872 106.785 17.9019 128.421 17.9019 155.092C17.9019 200.805 130.414 245.449 134.961 247.158C136.792 248.043 139.203 248.043 141.034 247.158C145.58 245.419 258.093 201.445 258.093 155.092C258.123 128.421 227.607 106.785 190.012 106.785Z" fill="#28A4DD"></path><path d="M175.369 75.3817C174.113 83.1734 172.52 93.7027 164.951 98.8169C158.517 103.179 149.57 101.555 142.431 98.7868C124.414 91.7774 113.629 76.6753 116.815 59.9187C119.787 44.2752 131.063 37.386 148.957 39.883C170.099 42.8613 178.157 58.0836 175.369 75.3817Z" fill="#822E91"></path><path d="M162.334 77.6419C162.761 79.5033 163.341 81.3038 163.86 83.1347C164.287 84.6605 164.775 86.2168 164.165 87.7426C163.921 88.353 163.494 88.8717 162.975 89.2989C162.639 89.5736 162.09 89.8788 161.663 90.0008C160.595 90.367 159.557 90.3975 158.519 90.0924C157.451 89.7567 156.475 88.9938 156.048 87.9257C155.895 87.529 155.529 87.2544 155.071 87.3764C154.705 87.468 154.339 87.9563 154.522 88.353C155.071 89.6957 156.017 90.7637 157.329 91.3435C158.641 91.9233 160.076 92.0454 161.449 91.7402C162.914 91.4045 164.226 90.5501 165.08 89.3295C166.118 87.8342 166.24 85.9117 165.782 84.2028C165.172 81.8836 164.378 79.5949 163.86 77.2452C163.646 76.2381 162.09 76.6349 162.334 77.6419Z" fill="#11B790"></path><path d="M142.324 67.5289C162.847 62.4103 177.87 51.7917 175.88 43.8115C173.89 35.8312 155.639 33.5114 135.116 38.63C114.593 43.7485 99.5695 54.3672 101.56 62.3474C103.55 70.3276 121.801 72.6475 142.324 67.5289Z" fill="#11B790"></path><path d="M122.093 83.737C126.166 83.3054 128.956 78.1324 128.326 72.183C127.695 66.2335 123.882 61.7604 119.81 62.1921C115.737 62.6237 112.947 67.7966 113.578 73.7461C114.208 79.6956 118.021 84.1687 122.093 83.737Z" fill="#822E91"></path><path d="M154.247 59.8206C158.672 58.4169 162.913 56.0672 166.575 53.2292C170.054 50.5133 173.075 47.0955 174.967 43.0979C176.096 40.6872 176.798 38.1544 177.134 35.4995C177.195 35.0722 176.737 34.7061 176.34 34.7061C175.883 34.7061 175.608 35.0722 175.547 35.4995C175.059 39.7717 173.228 43.8608 170.542 47.1871C167.918 50.4217 164.592 53.0156 160.991 55.0602C158.733 56.3418 156.352 57.5014 153.85 58.2643C152.843 58.6 153.27 60.1563 154.247 59.8206Z" fill="#1B5091"></path><path d="M165.172 45.1419C166.789 43.1583 168.102 40.9612 168.895 38.5199C169.017 38.1232 168.742 37.635 168.346 37.5434C167.918 37.4214 167.491 37.696 167.369 38.0927C166.637 40.2593 165.477 42.2429 164.043 44.0128C163.768 44.3485 163.707 44.8062 164.043 45.1419C164.318 45.4165 164.897 45.4776 165.172 45.1419Z" fill="#1B5091"></path><path d="M90.1943 71.9953C90.1637 71.8733 90.1332 71.7207 90.1332 71.5681C90.1332 71.5071 90.1027 71.4155 90.1027 71.3545C90.0722 71.1714 90.1332 71.5071 90.1027 71.4155C90.1027 71.3545 90.1027 71.324 90.0722 71.2629C90.0417 71.0188 90.0112 70.8052 90.0112 70.5611C89.8891 69.1879 89.9196 67.7841 90.0722 66.4109C90.1027 66.1973 90.1027 66.0142 90.1332 65.8006C90.1332 65.7396 90.1637 65.6785 90.1637 65.6175C90.1332 65.7701 90.1637 65.6175 90.1637 65.587C90.1943 65.4649 90.1943 65.3429 90.2248 65.1903C90.2858 64.702 90.3774 64.2138 90.4994 63.756C90.713 62.7185 91.0182 61.681 91.3844 60.6739C92.2083 58.3242 93.4595 56.066 94.9853 54.0215C97.1519 51.0919 99.9594 48.6507 103.011 46.6366C103.774 46.1178 103.072 44.8972 102.279 45.3855C97.0908 48.8338 92.7271 53.5027 90.3774 59.3312C89.0041 62.749 88.3633 66.5025 88.5769 70.1949C88.6379 70.9273 88.699 71.6596 88.8516 72.392C89.0041 73.277 90.4079 72.8803 90.1943 71.9953Z" fill="#1B5091"></path><path d="M95.3824 65.7404C96.1148 62.5667 97.4575 59.6067 99.2274 56.8908C99.7462 56.1279 98.495 55.3955 97.9763 56.1584C96.1453 58.9658 94.7416 62.0785 93.9787 65.3437C93.7956 66.2591 95.1688 66.6253 95.3824 65.7404Z" fill="#1B5091"></path><path d="M95.0768 74.0716C95.0463 73.9496 95.0463 73.797 95.0158 73.6749C95.0158 73.6139 94.9852 73.5529 94.9852 73.4918C94.9852 73.4613 94.9852 73.4308 94.9852 73.4003C94.9852 73.4613 94.9852 73.4918 94.9852 73.4308C94.9547 73.1562 94.9242 72.912 94.8937 72.6374C94.8327 72.1186 94.8327 71.5999 94.8021 71.0811C94.8021 70.7149 94.4665 70.3487 94.1003 70.3792C93.7036 70.4097 93.3679 70.6844 93.3984 71.0811C93.4289 72.2102 93.5205 73.3393 93.7036 74.4684C93.7646 74.8345 94.2529 75.0787 94.5885 74.9566C94.9547 74.804 95.1378 74.4684 95.0768 74.0716Z" fill="#1B5091"></path><path d="M125.898 40.9002C128.675 36.0176 132.947 32.2642 137.86 29.6093C139.233 28.8769 140.668 28.2056 142.132 27.6258C142.529 27.4732 142.804 27.107 142.682 26.6493C142.59 26.2831 142.102 25.9169 141.705 26.1C136.273 28.2666 131.147 31.4403 127.393 35.9566C126.325 37.2688 125.349 38.642 124.525 40.1068C124.006 40.9917 125.379 41.8157 125.898 40.9002Z" fill="#1B5091"></path><path d="M189.951 50.8798C192.026 56.1285 192.331 61.835 191.294 67.3584C190.988 68.9452 190.592 70.5015 190.134 72.0273C189.829 73.0038 191.385 73.431 191.66 72.4545C193.369 66.9006 194.04 60.9806 192.911 55.2436C192.575 53.5957 192.117 52.0089 191.477 50.4526C191.324 50.0559 190.958 49.7812 190.5 49.9033C190.134 50.0253 189.798 50.4831 189.951 50.8798Z" fill="#1B5091"></path><path d="M159.435 47.766C158.672 48.4679 158 49.0172 157.176 49.5665C156.352 50.1158 155.467 50.6345 154.552 51.0618C154.186 51.2448 154.033 51.7941 154.277 52.1603C154.521 52.557 154.979 52.6486 155.376 52.435C157.268 51.5195 159.038 50.3294 160.564 48.8646C160.869 48.59 160.869 48.0102 160.564 47.7355C160.228 47.4609 159.74 47.4609 159.435 47.766Z" fill="#1B5091"></path><path d="M122.541 64.9772C121.138 64.4889 119.52 64.3973 118.208 65.2213C116.987 65.9537 116.255 67.2658 115.858 68.578C114.943 71.5686 115.431 75.1389 116.896 77.8854C117.72 79.4112 118.971 80.6928 120.619 81.3032C121.016 81.4557 121.504 81.1506 121.595 80.7539C121.717 80.2961 121.443 79.9299 121.046 79.7774C120.985 79.7468 120.802 79.6858 120.955 79.7468C120.893 79.7163 120.802 79.6858 120.741 79.6553C120.588 79.5943 120.466 79.5027 120.314 79.4112C120.192 79.3196 120.039 79.2281 119.917 79.1365C120.07 79.2281 119.886 79.106 119.856 79.0755C119.795 79.0145 119.734 78.9839 119.673 78.9229C119.429 78.7093 119.215 78.4652 119.001 78.2211C118.849 78.0685 119.002 78.2516 118.94 78.1295C118.879 78.0685 118.849 78.0074 118.788 77.9159C118.696 77.7633 118.605 77.6413 118.513 77.4887C118.33 77.1835 118.178 76.8784 118.025 76.5732C117.994 76.4816 117.964 76.4206 117.903 76.3291C117.842 76.1765 117.903 76.2985 117.903 76.3291C117.872 76.2985 117.872 76.2375 117.842 76.207C117.781 76.0239 117.689 75.8408 117.628 75.6577C117.384 74.9559 117.232 74.254 117.11 73.5216C117.11 73.4301 117.079 73.369 117.079 73.2775C117.11 73.4606 117.079 73.1859 117.079 73.1554C117.048 72.9723 117.048 72.7587 117.018 72.5756C116.987 72.2094 116.987 71.8432 116.987 71.5076C116.987 71.1414 117.018 70.8057 117.048 70.4395C117.048 70.409 117.048 70.348 117.048 70.3174C117.048 70.1954 117.018 70.47 117.048 70.3479C117.048 70.2869 117.079 70.1954 117.079 70.1343C117.11 69.9512 117.14 69.7681 117.171 69.6156C117.232 69.3104 117.323 68.9747 117.445 68.6696C117.476 68.6085 117.506 68.517 117.537 68.456C117.567 68.3644 117.628 68.2729 117.567 68.3949C117.628 68.2424 117.689 68.0898 117.781 67.9677C117.842 67.8456 117.903 67.7236 117.994 67.6015C118.025 67.5405 118.086 67.4795 118.117 67.4184C118.147 67.3879 118.269 67.2048 118.208 67.2964C118.117 67.3879 118.269 67.2048 118.3 67.2048C118.33 67.1438 118.391 67.1133 118.452 67.0522C118.544 66.9607 118.635 66.8691 118.757 66.7776C118.94 66.625 118.727 66.7776 118.818 66.7166C118.879 66.686 118.94 66.625 119.001 66.5945C119.124 66.5029 119.276 66.4419 119.398 66.3809C119.337 66.4114 119.337 66.4114 119.459 66.3504C119.52 66.3199 119.612 66.2893 119.673 66.2893C119.764 66.2588 119.825 66.2588 119.917 66.2283C119.947 66.2283 120.192 66.1978 120.07 66.1978C119.947 66.1978 120.192 66.1978 120.253 66.1978C120.344 66.1978 120.436 66.1978 120.497 66.1978C120.588 66.1978 120.68 66.1978 120.771 66.1978C120.802 66.1978 121.077 66.2283 120.985 66.2283C120.893 66.2283 121.138 66.2588 121.199 66.2588C121.29 66.2893 121.382 66.2893 121.504 66.3198C121.717 66.3809 121.931 66.4419 122.145 66.5335C122.541 66.686 123.03 66.3809 123.121 65.9842C123.213 65.5264 122.938 65.1297 122.541 64.9772Z" fill="#11B790"></path><path d="M165.264 141.511C176.066 152.314 186.869 163.117 197.641 173.889C206.918 183.166 216.195 192.442 225.472 201.719C226.021 201.292 226.57 200.895 227.119 200.468C220.375 193.724 213.631 186.98 206.857 180.206C196.115 169.464 185.374 158.722 174.602 147.95C164.806 138.155 155.01 128.359 145.215 118.563C144.604 118.93 144.025 119.296 143.445 119.693C150.738 126.986 158.001 134.249 165.264 141.511Z" fill="#1B5091"></path><path d="M169.841 136.904C180.644 147.706 191.446 158.509 202.219 169.281C211.678 178.741 221.138 188.201 230.598 197.661C231.117 197.234 231.666 196.776 232.185 196.349C225.289 189.452 218.361 182.525 211.465 175.628C200.723 164.887 189.982 154.145 179.21 143.373C169.841 134.005 160.503 124.667 151.135 115.298C150.494 115.603 149.853 115.939 149.212 116.275C156.109 123.171 162.975 130.038 169.841 136.904Z" fill="#1B5091"></path><path d="M174.418 132.327C185.221 143.129 196.023 153.932 206.795 164.704C216.377 174.286 225.959 183.868 235.511 193.419C236.03 192.962 236.518 192.504 237.037 192.046C230.018 185.028 223.03 178.039 216.011 171.021C205.27 160.279 194.528 149.538 183.756 138.765C174.998 130.007 166.24 121.249 157.482 112.491C156.78 112.766 156.109 113.041 155.407 113.315C161.785 119.693 168.101 126.01 174.418 132.327Z" fill="#1B5091"></path><path d="M178.996 127.749C189.799 138.551 200.601 149.354 211.373 160.126C220.986 169.739 230.598 179.351 240.211 188.964C240.699 188.475 241.187 187.987 241.645 187.499C234.626 180.48 227.608 173.462 220.589 166.443C209.847 155.701 199.106 144.96 188.334 134.188C180.339 126.192 172.343 118.197 164.348 110.202C163.585 110.416 162.853 110.629 162.121 110.874C167.797 116.549 173.381 122.164 178.996 127.749Z" fill="#1B5091"></path><path d="M160.686 146.089C171.489 156.892 182.292 167.694 193.064 178.466C202.127 187.53 211.16 196.562 220.223 205.626C220.803 205.229 221.352 204.832 221.901 204.405C215.371 197.874 208.84 191.344 202.31 184.814C191.568 174.072 180.827 163.331 170.055 152.558C159.984 142.488 149.914 132.418 139.844 122.348C139.295 122.775 138.776 123.202 138.227 123.629C145.733 131.106 153.21 138.582 160.686 146.089Z" fill="#1B5091"></path><path d="M123.854 118.411C134.595 129.152 145.337 139.894 156.109 150.666C166.912 161.469 177.714 172.271 188.486 183.043C197.244 191.802 206.033 200.59 214.791 209.348C215.371 208.951 215.951 208.555 216.53 208.189C210.275 201.933 203.988 195.647 197.733 189.391C186.991 178.649 176.249 167.908 165.477 157.135C154.675 146.333 143.872 135.53 133.1 124.758C129.56 121.218 126.02 117.678 122.48 114.139C120.894 113.406 119.246 112.765 117.567 112.125C119.673 114.23 121.779 116.305 123.854 118.411Z" fill="#1B5091"></path><path d="M119.276 122.989C130.018 133.73 140.759 144.472 151.532 155.244C162.334 166.047 173.137 176.849 183.909 187.621C192.362 196.074 200.815 204.527 209.237 212.95C209.817 212.583 210.427 212.187 211.007 211.82C205.056 205.87 199.075 199.889 193.125 193.938C182.383 183.197 171.642 172.455 160.869 161.683C150.097 150.911 139.325 140.108 128.523 129.336C121.87 122.684 115.218 116.031 108.565 109.379C107.345 109.073 106.093 108.799 104.842 108.555C109.664 113.376 114.485 118.167 119.276 122.989Z" fill="#1B5091"></path><path d="M238.868 132.692C245.215 139.04 251.593 145.418 257.941 151.765C257.819 150.636 257.666 149.476 257.452 148.378C254.34 145.265 251.227 142.152 248.084 139.009C239.143 130.068 230.171 121.096 221.23 112.155C219.796 111.636 218.361 111.148 216.866 110.69C224.221 118.014 231.544 125.338 238.868 132.692Z" fill="#1B5091"></path><path d="M257.605 160.554C257.758 159.699 257.88 158.875 257.971 158.021C253.15 153.199 248.328 148.378 243.537 143.587C232.796 132.845 222.054 122.104 211.282 111.332C210.366 110.416 209.451 109.501 208.535 108.585C207.376 108.341 206.186 108.127 204.996 107.944C214.761 117.709 224.526 127.475 234.291 137.24C242.072 145.021 249.823 152.803 257.605 160.554Z" fill="#1B5091"></path><path d="M114.638 127.627C125.38 138.368 136.121 149.11 146.893 159.882C157.696 170.685 168.499 181.487 179.271 192.259C187.357 200.346 195.444 208.433 203.531 216.52C204.141 216.153 204.721 215.787 205.331 215.421C199.716 209.806 194.101 204.191 188.517 198.607C177.775 187.865 167.034 177.124 156.262 166.351C145.459 155.549 134.656 144.746 123.884 133.974C115.004 125.094 106.155 116.244 97.2745 107.364C96.2064 107.242 95.1384 107.151 94.0703 107.059C100.936 113.925 107.802 120.761 114.638 127.627Z" fill="#1B5091"></path><path d="M192.728 114.017C203.531 124.819 214.334 135.622 225.106 146.394C234.199 155.488 243.324 164.612 252.417 173.706C252.784 173.095 253.119 172.455 253.455 171.844C247.077 165.466 240.699 159.089 234.322 152.711C223.58 141.969 212.838 131.228 202.066 120.456C197.489 115.878 192.911 111.301 188.365 106.754C187.419 106.754 186.473 106.784 185.557 106.845C187.968 109.256 190.348 111.636 192.728 114.017Z" fill="#1B5091"></path><path d="M188.151 118.594C198.953 129.397 209.756 140.2 220.528 150.972C229.927 160.371 239.356 169.8 248.755 179.199C249.182 178.65 249.579 178.07 249.976 177.521C243.232 170.777 236.488 164.033 229.774 157.319C219.033 146.577 208.291 135.836 197.519 125.064C191.599 119.144 185.679 113.224 179.728 107.273C178.874 107.364 177.989 107.456 177.134 107.578C180.827 111.271 184.489 114.932 188.151 118.594Z" fill="#1B5091"></path><path d="M183.573 123.171C194.376 133.974 205.179 144.776 215.951 155.548C225.533 165.13 235.084 174.682 244.666 184.264C245.124 183.745 245.582 183.226 246.009 182.708C239.082 175.78 232.124 168.823 225.197 161.896C214.456 151.154 203.714 140.413 192.942 129.64C185.893 122.591 178.813 115.512 171.764 108.462C170.97 108.615 170.177 108.798 169.353 108.951C174.114 113.711 178.843 118.441 183.573 123.171Z" fill="#1B5091"></path><path d="M197.306 109.439C208.108 120.242 218.911 131.045 229.683 141.817C238.288 150.422 246.863 158.997 255.469 167.603C255.743 166.901 256.018 166.199 256.262 165.497C250.495 159.73 244.697 153.932 238.929 148.164C228.188 137.422 217.446 126.681 206.674 115.909C203.744 112.979 200.784 110.019 197.855 107.09C196.817 106.998 195.78 106.937 194.742 106.876C195.627 107.761 196.482 108.585 197.306 109.439Z" fill="#1B5091"></path><path d="M243.445 128.085C247.016 131.655 250.586 135.225 254.126 138.765C252.539 135.592 250.464 132.601 248.023 129.763C246.314 128.054 244.605 126.345 242.896 124.636C239.906 122.042 236.579 119.662 232.917 117.557C236.427 121.096 239.936 124.606 243.445 128.085Z" fill="#1B5091"></path><path d="M34.9913 148.713C44.7564 158.478 54.5215 168.243 64.2865 178.008C75.0281 188.75 85.7697 199.492 96.5419 210.264C107.344 221.066 118.147 231.869 128.919 242.641C130.079 243.801 131.269 244.991 132.429 246.15C133.771 246.7 134.656 247.035 134.992 247.157C135.572 247.432 136.243 247.615 136.914 247.707C126.569 237.362 116.255 227.047 105.91 216.703C95.1076 205.93 84.305 195.128 73.5023 184.325C63.3711 174.194 53.2703 164.093 43.139 153.962C36.7917 147.615 30.4444 141.267 24.0971 134.92C23.7004 135.5 23.3342 136.11 22.9985 136.72C26.9961 140.718 30.9937 144.716 34.9913 148.713Z" fill="#1B5091"></path><path d="M30.4137 153.291C40.1788 163.056 49.9439 172.821 59.709 182.586C70.4506 193.327 81.1922 204.069 91.9643 214.841C100.082 222.958 108.199 231.076 116.316 239.193C118.177 240.047 119.947 240.841 121.565 241.543C114.821 234.799 108.077 228.055 101.333 221.311C90.5301 210.508 79.7274 199.705 68.9248 188.903C58.7935 178.771 48.6928 168.671 38.5615 158.539C32.6719 152.65 26.7823 146.76 20.8928 140.871C20.5876 141.542 20.313 142.244 20.0688 142.946C23.5171 146.394 26.9654 149.842 30.4137 153.291Z" fill="#1B5091"></path><path d="M39.5689 144.136C49.334 153.901 59.099 163.666 68.8641 173.431C79.6057 184.173 90.3473 194.914 101.119 205.686C111.922 216.489 122.725 227.292 133.497 238.064C136.396 240.963 139.264 243.831 142.163 246.73C142.682 246.517 143.384 246.242 144.238 245.906C143.72 245.387 143.231 244.899 142.713 244.38C131.971 233.639 121.229 222.897 110.457 212.125C99.6852 201.353 88.8826 190.55 78.0799 179.748C67.9487 169.616 57.8479 159.516 47.7166 149.384C41.1557 142.823 34.5948 136.263 28.0339 129.702C27.5761 130.22 27.1489 130.739 26.7217 131.288C31.0244 135.561 35.2966 139.863 39.5689 144.136Z" fill="#1B5091"></path><path d="M45.9771 196.318C48.2658 198.607 50.524 200.865 52.8127 203.154C55.9253 205.473 59.16 207.731 62.4557 209.898C60.045 207.487 57.6342 205.076 55.1929 202.635C45.0617 192.504 34.9609 182.403 24.8296 172.272C23.5174 170.959 22.2053 169.647 20.8931 168.335C21.8085 170.41 22.9071 172.485 24.1888 174.53C31.4516 181.823 38.7143 189.055 45.9771 196.318Z" fill="#1B5091"></path><path d="M44.1458 139.559C53.9108 149.324 63.6759 159.089 73.441 168.854C84.1826 179.596 94.9242 190.337 105.696 201.109C116.499 211.912 127.302 222.715 138.074 233.487C141.614 237.027 145.123 240.536 148.663 244.076C149.304 243.801 149.975 243.526 150.707 243.221C149.578 242.092 148.449 240.963 147.289 239.803C136.548 229.062 125.806 218.32 115.034 207.548C104.262 196.776 93.4595 185.973 82.6568 175.171C72.5256 165.04 62.4248 154.939 52.2935 144.808C45.7326 138.247 39.1412 131.655 32.5802 125.094C32.0615 125.552 31.5732 126.01 31.085 126.498C35.4487 130.862 39.8125 135.195 44.1458 139.559Z" fill="#1B5091"></path><path d="M25.8363 157.869C35.6013 167.634 45.3664 177.399 55.1315 187.164C65.8731 197.905 76.6147 208.647 87.3868 219.419C91.1708 223.203 94.9242 226.957 98.7082 230.741C100.661 231.748 102.584 232.694 104.476 233.609C101.912 231.046 99.3491 228.482 96.7857 225.919C85.9526 215.086 75.1499 204.283 64.3473 193.481C54.216 183.349 44.1153 173.249 33.984 163.117C28.8878 158.021 23.7612 152.894 18.665 147.798C18.4819 148.622 18.3599 149.446 18.2378 150.27C20.7706 152.803 23.3034 155.336 25.8363 157.869Z" fill="#1B5091"></path><path d="M21.2591 162.446C31.0242 172.211 40.7893 181.976 50.5544 191.741C59.9838 201.17 69.3827 210.569 78.8121 219.999C81.0397 221.28 83.2674 222.532 85.4646 223.752C76.9201 215.208 68.3451 206.633 59.8007 198.088C49.6694 187.957 39.5686 177.856 29.4374 167.725C25.6229 163.91 21.7779 160.065 17.9634 156.251C17.9939 157.319 18.116 158.387 18.2685 159.455C19.245 160.432 20.2521 161.439 21.2591 162.446Z" fill="#1B5091"></path><path d="M71.6106 112.063C81.3757 121.829 91.1408 131.594 100.906 141.359C111.647 152.1 122.389 162.842 133.161 173.614C143.964 184.417 154.766 195.219 165.539 205.991C172.344 212.796 179.149 219.602 185.954 226.407C186.595 226.071 187.205 225.735 187.846 225.4C183.482 221.036 179.118 216.672 174.754 212.308C164.013 201.567 153.271 190.825 142.499 180.053C131.696 169.25 120.894 158.448 110.122 147.676C99.9904 137.544 89.8897 127.444 79.7584 117.312C76.6458 114.2 73.5637 111.118 70.451 108.005C69.6271 108.127 68.8032 108.28 68.0098 108.463C69.2304 109.683 70.4205 110.873 71.6106 112.063Z" fill="#1B5091"></path><path d="M67.0333 116.641C76.7984 126.406 86.5635 136.171 96.3286 145.936C107.07 156.678 117.812 167.42 128.584 178.192C139.387 188.994 150.189 199.797 160.961 210.569C167.278 216.886 173.625 223.233 179.942 229.55C180.583 229.214 181.224 228.909 181.865 228.574C177.989 224.698 174.083 220.792 170.208 216.916C159.466 206.175 148.724 195.433 137.952 184.661C127.15 173.859 116.347 163.056 105.575 152.284C95.4436 142.153 85.3429 132.052 75.2116 121.92C71.1225 117.831 67.0028 113.712 62.9137 109.623C62.1508 109.806 61.3879 110.019 60.625 110.233C62.7611 112.4 64.8972 114.505 67.0333 116.641Z" fill="#1B5091"></path><path d="M142.316 164.459C153.119 175.262 163.921 186.065 174.693 196.837C182.383 204.527 190.073 212.217 197.763 219.907C198.374 219.541 198.984 219.205 199.594 218.839C194.376 213.621 189.158 208.402 183.909 203.154C173.167 192.412 162.426 181.67 151.654 170.898C140.851 160.096 130.049 149.293 119.276 138.521C109.145 128.39 99.0444 118.289 88.9131 108.158C88.4554 107.7 87.9671 107.212 87.5094 106.754C86.9906 106.754 86.5023 106.754 85.9836 106.754C85.5258 106.754 85.0681 106.754 84.6104 106.754C93.0938 115.237 101.547 123.69 110.03 132.174C120.802 142.946 131.574 153.718 142.316 164.459Z" fill="#1B5091"></path><path d="M48.7237 134.981C58.4887 144.747 68.2538 154.512 78.0189 164.277C88.7605 175.018 99.5021 185.76 110.274 196.532C121.077 207.335 131.879 218.137 142.652 228.909C146.802 233.06 150.921 237.179 155.072 241.329C155.712 241.055 156.384 240.75 157.086 240.444C155.346 238.705 153.607 236.966 151.867 235.226C141.126 224.485 130.384 213.743 119.612 202.971C108.84 192.199 98.0374 181.396 87.2347 170.593C77.1035 160.462 67.0027 150.361 56.8714 140.23C50.4631 133.822 44.0852 127.444 37.6769 121.036C37.0971 121.432 36.5478 121.86 35.9985 122.256C40.2708 126.498 44.4819 130.74 48.7237 134.981Z" fill="#1B5091"></path><path d="M76.1877 107.487C85.9528 117.252 95.7179 127.017 105.483 136.782C116.225 147.523 126.966 158.265 137.738 169.037C148.541 179.84 159.344 190.642 170.116 201.414C177.378 208.677 184.641 215.94 191.904 223.203C192.514 222.867 193.155 222.501 193.765 222.165C188.944 217.344 184.153 212.553 179.331 207.731C168.59 196.99 157.848 186.248 147.076 175.476C136.274 164.673 125.471 153.871 114.699 143.099C104.568 132.967 94.4668 122.867 84.3355 112.735C82.4435 110.843 80.521 108.921 78.629 107.029C77.744 107.09 76.8591 107.181 75.9741 107.273C76.0657 107.364 76.1267 107.426 76.1877 107.487Z" fill="#1B5091"></path><path d="M53.3009 130.404C63.0659 140.169 72.831 149.934 82.5961 159.699C93.3377 170.44 104.079 181.182 114.851 191.954C125.654 202.757 136.457 213.559 147.229 224.332C151.959 229.061 156.689 233.791 161.419 238.521C162.06 238.216 162.731 237.911 163.402 237.606C161.083 235.287 158.764 232.968 156.475 230.679C145.734 219.937 134.992 209.196 124.22 198.424C113.417 187.621 102.615 176.818 91.8119 166.016C81.6806 155.884 71.5799 145.784 61.4486 135.652C55.3759 129.58 49.3338 123.538 43.2611 117.465C42.6508 117.831 42.0405 118.167 41.4302 118.533C45.3972 122.5 49.3643 126.437 53.3009 130.404Z" fill="#1B5091"></path><path d="M57.8781 125.827C67.6432 135.592 77.4083 145.357 87.1733 155.122C97.9149 165.863 108.657 176.605 119.429 187.377C130.231 198.18 141.034 208.982 151.806 219.754C157.085 225.034 162.365 230.313 167.674 235.623C168.315 235.318 168.986 235.012 169.627 234.677C166.759 231.808 163.89 228.94 161.022 226.071C150.28 215.33 139.539 204.588 128.767 193.816C117.994 183.044 107.192 172.241 96.3892 161.439C86.2579 151.307 76.1571 141.207 66.0258 131.075C60.4719 125.491 54.8875 119.937 49.3031 114.353C48.6318 114.658 47.9909 114.963 47.3501 115.299C50.8899 118.808 54.3688 122.317 57.8781 125.827Z" fill="#1B5091"></path><path d="M62.4558 121.219C72.2209 130.984 81.986 140.749 91.7511 150.514C102.493 161.256 113.234 171.997 124.006 182.769C134.809 193.572 145.612 204.375 156.384 215.147C162.212 220.975 168.01 226.773 173.839 232.602C174.48 232.297 175.121 231.961 175.792 231.656C172.405 228.268 169.017 224.881 165.63 221.494C154.888 210.752 144.147 200.011 133.375 189.239C122.572 178.436 111.77 167.633 100.997 156.861C90.8661 146.73 80.7654 136.629 70.6341 126.498C65.721 121.585 60.808 116.672 55.8949 111.759C55.193 112.003 54.4607 112.278 53.7588 112.522C56.6578 115.421 59.5568 118.32 62.4558 121.219Z" fill="#1B5091"></path><path d="M122.995 79.145L119.173 94.8773C117.247 102.759 122 110.549 129.737 112.331C137.473 114.112 145.303 109.16 147.229 101.309L151.051 85.5769L122.995 79.145Z" fill="#822E91"></path><path d="M124.525 86.7345C124.494 89.1147 122.999 91.3119 120.771 92.1053C118.421 92.9597 115.95 92.2273 114.332 90.3353C112.806 88.5654 112.654 85.7885 113.874 83.7744C115.095 81.7299 117.597 80.6313 119.886 81.089C121.229 81.3637 122.297 82.0045 123.212 83.0726C124.036 84.0796 124.525 85.4223 124.525 86.7345C124.525 87.8941 126.355 87.9246 126.355 86.7345C126.325 83.5608 124.341 80.7534 121.381 79.6243C118.482 78.5257 115.004 79.4717 113.051 81.8519C111.036 84.3237 110.67 87.833 112.349 90.5795C113.997 93.3259 117.201 94.6991 120.344 94.1193C123.853 93.448 126.386 90.2438 126.417 86.7039C126.355 85.5749 124.525 85.5749 124.525 86.7345Z" fill="#FDB71D"></path><path d="M141.439 194.762C157.595 188.096 166.341 172.147 160.974 159.138C155.606 146.129 138.158 140.987 122.003 147.653C105.847 154.319 97.1011 170.268 102.468 183.277C107.836 196.285 125.284 201.427 141.439 194.762Z" fill="#11B790"></path><path d="M162.234 229.493H103.834V274.225H162.234V229.493Z" fill="#F15A4C"></path><path d="M133.034 258.072C149.161 258.072 162.234 245.277 162.234 229.493C162.234 213.71 149.161 200.915 133.034 200.915C116.907 200.915 103.834 213.71 103.834 229.493C103.834 245.277 116.907 258.072 133.034 258.072Z" fill="#F15A4C"></path><path d="M123.715 187.247V201.593C123.715 208.766 128.44 214.583 134.276 214.583C140.113 214.583 144.838 208.766 144.838 201.593V187.247H123.715Z" fill="#822E91"></path><path d="M160.955 167.668C163.75 173.171 167.589 180.538 165.224 187.172C163.197 192.827 156.87 195.793 151.157 197.23C136.691 200.867 123.023 196.16 117.341 184.115C112.028 172.865 115.897 163.449 128.214 157.03C142.742 149.479 154.751 155.501 160.955 167.668Z" fill="#822E91"></path><path d="M144.543 172.577C145.55 174.438 145.153 176.788 143.933 178.619C142.651 180.511 140.24 181.701 137.982 181.274C135.876 180.877 133.649 179.046 133.527 176.849C133.496 176.269 133.557 175.842 133.801 175.262C133.954 174.865 134.32 174.316 134.625 173.95C135.541 172.912 136.7 172.119 137.952 171.508C139.172 170.929 140.515 170.532 141.858 170.685C142.346 170.746 142.895 170.929 143.383 171.234C143.811 171.508 144.238 172.027 144.543 172.577C145.092 173.553 146.588 172.668 146.038 171.722C145.306 170.44 144.146 169.464 142.712 169.098C141.278 168.732 139.721 168.976 138.348 169.464C135.602 170.471 132.367 172.607 131.848 175.72C131.36 178.802 133.71 181.579 136.456 182.616C139.325 183.684 142.59 182.708 144.604 180.48C146.74 178.13 147.564 174.56 146.008 171.692C145.489 170.715 144.024 171.6 144.543 172.577Z" fill="#FDB71D"></path><path d="M162.059 163.757C163.005 165.527 162.639 167.725 161.51 169.403C160.32 171.173 158.092 172.332 155.987 171.936C154.919 171.753 153.942 171.264 153.149 170.502C152.416 169.8 151.776 168.762 151.684 167.786C151.623 166.779 151.989 165.863 152.66 165.07C153.484 164.093 154.552 163.361 155.712 162.781C156.872 162.201 158.153 161.804 159.466 161.927C160.564 162.079 161.48 162.72 162.059 163.757C162.578 164.673 163.982 163.849 163.463 162.934C162.761 161.713 161.663 160.797 160.289 160.462C158.916 160.126 157.451 160.37 156.139 160.858C153.576 161.804 150.585 163.819 150.128 166.748C149.7 169.647 151.898 172.241 154.491 173.217C157.177 174.224 160.259 173.278 162.151 171.173C164.134 168.976 164.928 165.619 163.463 162.934C162.975 162.018 161.571 162.842 162.059 163.757Z" fill="#FDB71D"></path><path d="M118.281 191.734C124.222 190.013 127.103 181.939 124.716 173.699C122.33 165.46 115.579 160.175 109.638 161.896C103.697 163.617 100.816 171.691 103.203 179.931C105.589 188.17 112.34 193.455 118.281 191.734Z" fill="#11B790"></path><path d="M132.947 177.733C131.238 178.099 129.529 178.466 127.79 178.862C125.043 179.473 122.327 180.052 119.581 180.663C118.94 180.815 118.299 180.937 117.689 181.09C116.712 181.304 117.14 182.799 118.086 182.585C119.795 182.219 121.503 181.853 123.243 181.456C125.989 180.846 128.705 180.266 131.452 179.656C132.092 179.503 132.733 179.381 133.344 179.229C134.32 179.015 133.923 177.52 132.947 177.733Z" fill="#FDB71D"></path><path d="M126.224 190.74C128.819 187.703 127.867 182.632 124.1 179.414C120.332 176.195 115.174 176.049 112.58 179.086C109.986 182.123 110.937 187.194 114.705 190.413C118.473 193.631 123.63 193.777 126.224 190.74Z" fill="#822E91"></path><path d="M89.8602 152.457C81.9682 152.307 75.4368 159.31 75.2554 168.065L103.83 168.608C104.012 159.854 97.7523 152.608 89.8602 152.457Z" fill="#11B790"></path><path d="M100.143 165.009C98.1591 163.086 95.3821 162.079 92.6052 162.232C92.178 162.262 91.8423 162.568 91.8423 162.995C91.8423 163.392 92.2085 163.788 92.6052 163.758C94.9854 163.636 97.3351 164.429 99.044 166.077C99.7764 166.809 100.844 165.711 100.143 165.009Z" fill="#1B5091"></path><path d="M101.058 163.209C99.9291 159.333 96.847 155.702 92.6968 155.092C91.5982 154.939 90.4997 155 89.4316 155.305C88.4856 155.58 88.8823 157.075 89.8283 156.801C91.3236 156.373 92.9104 156.526 94.3447 157.197C95.9315 157.93 97.2437 159.15 98.1897 160.615C98.8 161.561 99.2577 162.568 99.5629 163.636C99.8681 164.552 101.363 164.155 101.058 163.209Z" fill="#1B5091"></path><path d="M141.386 134.089C136.442 140.329 138.319 149.66 145.578 154.94L163.476 132.349C156.217 127.068 146.329 127.848 141.386 134.089Z" fill="#11B790"></path><path d="M142.926 147.278C141.552 142.456 143.261 137.055 147.35 134.065C148.541 133.21 149.853 132.539 151.257 132.142C152.203 131.867 151.806 130.372 150.86 130.647C148.144 131.44 145.703 133.058 143.933 135.285C142.193 137.482 141.156 140.107 140.942 142.914C140.82 144.532 141.003 146.149 141.461 147.705C141.705 148.621 143.2 148.224 142.926 147.278Z" fill="#1B5091"></path><path d="M125.963 149.433C115.766 154.948 111.041 165.765 115.393 173.578L152.293 153.6C147.941 145.756 136.159 143.887 125.963 149.433Z" fill="#11B790"></path><path d="M101.97 171.093C104.372 171.093 106.319 168.868 106.319 166.123C106.319 163.378 104.372 161.153 101.97 161.153C99.5687 161.153 97.6216 163.378 97.6216 166.123C97.6216 168.868 99.5687 171.093 101.97 171.093Z" fill="#F15A4C"></path><path d="M129.011 149.08C127.912 149.446 126.875 149.904 125.868 150.483C125.501 150.666 125.379 151.185 125.593 151.551C125.837 151.918 126.264 152.04 126.661 151.826C127.119 151.582 127.607 151.338 128.095 151.124C128.156 151.094 128.217 151.063 128.278 151.033C128.461 150.941 128.187 151.063 128.309 151.002C128.431 150.941 128.553 150.911 128.675 150.85C128.919 150.758 129.194 150.666 129.438 150.575C129.804 150.453 130.109 150.026 129.987 149.629C129.835 149.232 129.438 148.927 129.011 149.08Z" fill="#1B5091"></path><path d="M145.947 152.345C143.567 149.293 139.722 147.798 135.907 147.798C134.9 147.798 134.9 149.354 135.907 149.354C139.355 149.354 142.712 150.727 144.848 153.443C145.092 153.779 145.672 153.718 145.947 153.443C146.252 153.108 146.191 152.68 145.947 152.345Z" fill="#1B5091"></path><path d="M116.285 179.473C115.034 179.961 113.844 180.724 113.325 182.006C112.867 183.105 113.02 184.295 113.478 185.363C114.485 187.682 116.804 189.421 119.184 190.154C120.557 190.581 122.114 190.642 123.487 190.154C123.884 190.001 124.128 189.635 124.036 189.208C123.945 188.842 123.487 188.536 123.09 188.658C122.053 189.055 121.076 189.055 120.069 188.78C118.971 188.506 118.086 188.048 117.14 187.377C116.987 187.285 117.048 187.316 116.926 187.194C116.804 187.102 116.712 187.011 116.59 186.919C116.377 186.736 116.163 186.522 115.98 186.309C115.614 185.912 115.431 185.668 115.126 185.149C115.065 185.027 115.004 184.935 114.943 184.813C114.912 184.783 114.912 184.722 114.882 184.691C114.79 184.478 114.943 184.844 114.851 184.63C114.759 184.417 114.698 184.173 114.637 183.959C114.637 183.898 114.576 183.593 114.607 183.806C114.607 183.684 114.576 183.562 114.576 183.44C114.576 183.349 114.576 183.257 114.576 183.135C114.546 183.257 114.576 182.952 114.576 183.135C114.576 183.074 114.607 183.013 114.607 182.921C114.637 182.799 114.668 182.708 114.698 182.586C114.759 182.403 114.637 182.738 114.729 182.555C114.759 182.494 114.79 182.433 114.82 182.403C114.882 182.281 114.943 182.189 115.034 182.098C114.943 182.25 115.065 182.067 115.065 182.036C115.095 181.975 115.156 181.945 115.187 181.884C115.278 181.792 115.4 181.701 115.492 181.609C115.37 181.701 115.553 181.548 115.583 181.548C115.644 181.518 115.705 181.457 115.766 181.426C116.072 181.243 116.377 181.09 116.682 180.968C117.079 180.816 117.353 180.45 117.231 180.022C117.109 179.626 116.651 179.321 116.285 179.473Z" fill="#11B790"></path><path d="M146.618 173.401C146.649 173.248 146.679 173.126 146.74 172.973C146.771 172.912 146.771 172.851 146.801 172.79C146.801 172.76 146.832 172.729 146.832 172.699C146.801 172.76 146.801 172.79 146.832 172.729C146.954 172.485 147.076 172.271 147.228 172.058C147.259 171.997 147.32 171.936 147.259 172.027C147.289 171.966 147.351 171.905 147.381 171.875C147.473 171.783 147.564 171.661 147.686 171.57C147.717 171.539 147.778 171.478 147.808 171.447C147.869 171.417 147.93 171.356 147.839 171.417C147.961 171.325 148.052 171.264 148.174 171.173C148.297 171.112 148.388 171.051 148.51 170.99C148.571 170.959 148.602 170.929 148.663 170.898C148.876 170.807 148.51 170.959 148.724 170.868C148.968 170.776 149.212 170.715 149.487 170.654C149.548 170.654 149.639 170.624 149.7 170.624C149.517 170.654 149.761 170.624 149.792 170.624C149.914 170.624 150.036 170.593 150.158 170.593C150.311 170.593 150.463 170.593 150.616 170.624C150.646 170.624 150.86 170.654 150.707 170.624C150.799 170.624 150.86 170.654 150.951 170.654C151.379 170.746 151.836 170.532 151.958 170.074C152.05 169.678 151.836 169.159 151.379 169.067C150.005 168.793 148.571 168.976 147.351 169.739C146.191 170.44 145.367 171.6 145.062 172.912C144.97 173.339 145.184 173.797 145.642 173.919C146.038 174.072 146.527 173.858 146.618 173.401Z" fill="#FDB71D"></path><path d="M150.372 172.027C151.653 172.546 152.965 172.943 154.278 173.401C155.285 173.736 156.322 174.011 157.085 174.804C158.336 176.147 157.94 178.222 156.688 179.412C155.987 180.084 155.071 180.389 154.125 180.175C153.149 179.962 152.752 181.457 153.728 181.67C156.2 182.22 158.519 180.541 159.221 178.192C159.557 177.032 159.465 175.72 158.886 174.652C158.245 173.523 157.177 172.79 155.987 172.363C154.278 171.753 152.538 171.264 150.829 170.563C150.433 170.41 149.975 170.746 149.883 171.112C149.731 171.539 150.005 171.875 150.372 172.027Z" fill="#11B790"></path><path d="M96.4503 225.888C101.607 225.095 104.354 223.935 104.415 222.531C104.506 220.395 97.1521 219.236 86.5936 219.419C85.9833 219.419 85.3425 219.449 84.6711 219.48C70.8169 218.961 68.6503 225.949 68.3757 226.834C66.6362 232.51 73.8685 239.742 91.5067 245.266C106.49 249.965 115.645 249.843 117.598 244.777C119.673 239.559 110.854 232.113 96.4503 225.888Z" fill="#822E91"></path><path d="M90.8047 229.428C98.8304 233.609 107.558 236.782 116.438 239.193C116.102 238.674 115.675 238.186 115.217 237.667C107.009 235.348 98.9219 232.358 91.4761 228.482C90.7742 228.116 90.1334 229.062 90.8047 229.428Z" fill="#11B790"></path><path d="M115.492 247.31C106.185 244.899 96.9691 241.634 88.5772 237.24C87.9059 236.904 87.265 237.85 87.9364 238.186C96.0536 242.428 104.903 245.632 113.844 248.043C114.455 247.859 115.004 247.615 115.492 247.31Z" fill="#11B790"></path><path d="M90.0118 232.845C89.3404 232.51 88.6996 233.456 89.371 233.791C98.2511 238.43 107.986 241.817 117.812 244.289C117.903 243.923 117.964 243.526 117.964 243.129C108.291 240.718 98.7088 237.392 90.0118 232.845Z" fill="#11B790"></path><path d="M179.575 225.888C174.418 225.095 171.672 223.935 171.611 222.531C171.519 220.395 178.873 219.236 189.432 219.419C190.042 219.419 190.683 219.449 191.354 219.48C205.209 218.961 207.375 225.949 207.65 226.834C209.389 232.51 202.157 239.742 184.519 245.266C169.535 249.965 160.381 249.843 158.428 244.777C156.353 239.559 165.172 232.113 179.575 225.888Z" fill="#822E91"></path><path d="M185.221 229.428C177.195 233.609 168.468 236.782 159.587 239.193C159.923 238.674 160.35 238.186 160.808 237.667C169.017 235.348 177.104 232.358 184.549 228.482C185.251 228.116 185.892 229.062 185.221 229.428Z" fill="#11B790"></path><path d="M160.534 247.31C169.841 244.899 179.057 241.634 187.449 237.24C188.12 236.904 188.761 237.85 188.09 238.186C180.003 242.428 171.153 245.632 162.212 248.043C161.571 247.859 161.022 247.615 160.534 247.31Z" fill="#11B790"></path><path d="M186.014 232.845C186.685 232.51 187.326 233.456 186.655 233.791C177.775 238.43 168.04 241.817 158.214 244.289C158.123 243.923 158.062 243.526 158.062 243.129C167.735 240.718 177.317 237.392 186.014 232.845Z" fill="#11B790"></path><path d="M150.89 211.76C150.463 212.767 150.066 213.805 149.639 214.812C148.632 217.253 147.655 219.664 146.648 222.105C145.458 225.034 144.237 227.964 143.047 230.924C142.01 233.457 140.972 235.99 139.935 238.553C139.416 239.774 138.836 240.994 138.409 242.276C138.409 242.306 138.409 242.306 138.378 242.337C138.134 242.917 138.653 243.71 139.233 243.832C139.935 243.985 140.453 243.619 140.728 242.978C141.155 241.971 141.552 240.933 141.979 239.926C142.986 237.485 143.963 235.074 144.97 232.633C146.16 229.703 147.38 226.774 148.571 223.814C149.608 221.281 150.646 218.748 151.683 216.185C152.202 214.964 152.782 213.744 153.209 212.462C153.209 212.431 153.209 212.431 153.239 212.401C153.484 211.821 152.965 211.028 152.385 210.906C151.683 210.753 151.134 211.119 150.89 211.76Z" fill="#302F2F"></path><path d="M149.395 197.264C144.573 193.907 137.951 195.097 134.595 199.919L152.05 212.064C155.407 207.273 154.216 200.621 149.395 197.264Z" fill="#FDB71D"></path><path d="M166.85 209.44C170.207 204.618 169.017 197.996 164.195 194.64L152.05 212.095C156.871 215.451 163.493 214.261 166.85 209.44Z" fill="#FDB71D"></path><path d="M154.704 226.894C159.526 230.251 166.148 229.061 169.505 224.24L152.05 212.094C148.693 216.916 149.883 223.538 154.704 226.894Z" fill="#FDB71D"></path><path d="M137.25 214.749C133.893 219.571 135.083 226.193 139.905 229.55L152.05 212.094C147.228 208.738 140.606 209.928 137.25 214.749Z" fill="#FDB71D"></path><path d="M152.05 216.397C154.426 216.397 156.353 214.471 156.353 212.095C156.353 209.718 154.426 207.792 152.05 207.792C149.673 207.792 147.747 209.718 147.747 212.095C147.747 214.471 149.673 216.397 152.05 216.397Z" fill="#F15A4C"></path><path d="M134.656 239.926C137.189 237.393 138.409 235.379 138.135 234.006C137.707 231.931 133.557 233.334 128.034 237.118C127.698 237.332 127.362 237.576 127.027 237.82C119.581 242.062 119.978 249.447 120.039 250.393C120.374 256.404 125.837 260.799 136.395 260.036C145.367 259.364 150.188 256.13 150.097 250.667C150.005 244.991 143.688 240.933 134.656 239.926Z" fill="#822E91"></path><path d="M132.459 245.235C137.646 246.487 142.987 246.517 148.205 245.785C147.9 245.419 147.564 245.083 147.198 244.747C142.346 245.358 137.402 245.266 132.581 244.106C132.154 243.984 132.031 245.113 132.459 245.235Z" fill="#11B790"></path><path d="M149.517 253.81C144.055 254.695 138.471 254.725 133.039 253.444C132.612 253.352 132.489 254.481 132.917 254.573C138.165 255.824 143.536 255.854 148.815 255.092C149.09 254.695 149.334 254.268 149.517 253.81Z" fill="#11B790"></path><path d="M132.825 248.775C132.398 248.684 132.276 249.813 132.703 249.904C138.44 251.278 144.329 251.186 150.097 250.179C150.066 249.782 150.005 249.416 149.914 249.05C144.238 250.026 138.44 250.118 132.825 248.775Z" fill="#11B790"></path></g></svg> 