<?xml version="1.0" encoding="UTF-8"?> <svg xmlns="http://www.w3.org/2000/svg" width="70" height="70" viewBox="0 0 70 70" fill="none"><ellipse cx="31" cy="44.5" rx="24" ry="24.5" fill="#06A6EA"></ellipse><path fill-rule="evenodd" clip-rule="evenodd" d="M42 1.99854C34.5804 1.99854 26.9062 7.75004 26.9062 17.3743C26.9062 27.4572 40.9388 41.809 41.536 42.4149C41.6587 42.54 41.8261 42.6099 42 42.6099C42.1739 42.6099 42.3413 42.54 42.464 42.4149C43.0612 41.809 57.0938 27.4572 57.0938 17.3743C57.0938 7.75004 49.4196 1.99854 42 1.99854ZM42 22.6371C39.1007 22.6371 36.75 20.2524 36.75 17.311C36.75 14.3697 39.1007 11.9849 42 11.9849C44.8993 11.9849 47.25 14.3697 47.25 17.311C47.25 20.2524 44.8993 22.6371 42 22.6371Z" fill="#FFB81C"></path><path fill-rule="evenodd" clip-rule="evenodd" d="M47.5781 17.2423C47.5781 20.3677 45.0807 22.9013 42 22.9013C38.9193 22.9013 36.4219 20.3677 36.4219 17.2423C36.4219 14.117 38.9193 11.5833 42 11.5833C45.0807 11.5833 47.5781 14.117 47.5781 17.2423ZM37.0781 17.2423C37.0781 20 39.2817 22.2355 42 22.2355C44.7183 22.2355 46.9219 20 46.9219 17.2423C46.9219 14.4846 44.7183 12.2491 42 12.2491C39.2817 12.2491 37.0781 14.4846 37.0781 17.2423Z" fill="black"></path><path fill-rule="evenodd" clip-rule="evenodd" d="M54.5755 25.2727C55.9985 22.3127 56.7656 19.6361 56.7656 17.3056C56.7656 8.53061 49.9407 2.2627 42 2.2627C34.0593 2.2627 27.2344 8.53061 27.2344 17.3056C27.2344 19.6361 28.0015 22.3127 29.4245 25.2727C30.6828 27.8903 32.4212 30.6626 34.5184 33.5109C36.1039 35.6643 37.802 37.7371 39.5001 39.6543C40.0945 40.3255 40.6466 40.9293 41.1422 41.4565C41.3159 41.6412 41.4701 41.8032 41.6033 41.9413C41.6834 42.0245 41.7389 42.0814 41.768 42.1108L42 42.3462L42.232 42.1108C42.2611 42.0814 42.3166 42.0245 42.3967 41.9413C42.5299 41.8032 42.6841 41.6412 42.8578 41.4565C43.3534 40.9293 43.9055 40.3255 44.4999 39.6543C46.198 37.7371 47.8961 35.6643 49.4816 33.5109C51.5788 30.6626 53.3172 27.8903 54.5755 25.2727ZM44.0118 39.2094C43.4219 39.8754 42.8742 40.4744 42.3829 40.997C42.2419 41.147 42.1139 41.2817 42 41.4005C41.8861 41.2817 41.7581 41.147 41.6171 40.997C41.1258 40.4744 40.5781 39.8754 39.9882 39.2094C38.3025 37.3062 36.6168 35.2484 35.0441 33.1125C32.9697 30.295 31.2525 27.5565 30.0143 24.9809C28.6313 22.104 27.8906 19.5197 27.8906 17.3056C27.8906 8.91389 34.4079 2.92846 42 2.92846C49.5921 2.92846 56.1094 8.91389 56.1094 17.3056C56.1094 19.5197 55.3687 22.104 53.9857 24.9809C52.7475 27.5565 51.0303 30.295 48.9559 33.1125C47.3832 35.2484 45.6975 37.3062 44.0118 39.2094Z" fill="black"></path><path fill-rule="evenodd" clip-rule="evenodd" d="M47.5781 17.2423C47.5781 20.3677 45.0807 22.9013 42 22.9013C38.9193 22.9013 36.4219 20.3677 36.4219 17.2423C36.4219 14.117 38.9193 11.5833 42 11.5833C45.0807 11.5833 47.5781 14.117 47.5781 17.2423ZM37.0781 17.2423C37.0781 20 39.2817 22.2355 42 22.2355C44.7183 22.2355 46.9219 20 46.9219 17.2423C46.9219 14.4846 44.7183 12.2491 42 12.2491C39.2817 12.2491 37.0781 14.4846 37.0781 17.2423Z" stroke="black"></path><path fill-rule="evenodd" clip-rule="evenodd" d="M54.5755 25.2727C55.9985 22.3127 56.7656 19.6361 56.7656 17.3056C56.7656 8.53061 49.9407 2.2627 42 2.2627C34.0593 2.2627 27.2344 8.53061 27.2344 17.3056C27.2344 19.6361 28.0015 22.3127 29.4245 25.2727C30.6828 27.8903 32.4212 30.6626 34.5184 33.5109C36.1039 35.6643 37.802 37.7371 39.5001 39.6543C40.0945 40.3255 40.6466 40.9293 41.1422 41.4565C41.3159 41.6412 41.4701 41.8032 41.6033 41.9413C41.6834 42.0245 41.7389 42.0814 41.768 42.1108L42 42.3462L42.232 42.1108C42.2611 42.0814 42.3166 42.0245 42.3967 41.9413C42.5299 41.8032 42.6841 41.6412 42.8578 41.4565C43.3534 40.9293 43.9055 40.3255 44.4999 39.6543C46.198 37.7371 47.8961 35.6643 49.4816 33.5109C51.5788 30.6626 53.3172 27.8903 54.5755 25.2727ZM44.0118 39.2094C43.4219 39.8754 42.8742 40.4744 42.3829 40.997C42.2419 41.147 42.1139 41.2817 42 41.4005C41.8861 41.2817 41.7581 41.147 41.6171 40.997C41.1258 40.4744 40.5781 39.8754 39.9882 39.2094C38.3025 37.3062 36.6168 35.2484 35.0441 33.1125C32.9697 30.295 31.2525 27.5565 30.0143 24.9809C28.6313 22.104 27.8906 19.5197 27.8906 17.3056C27.8906 8.91389 34.4079 2.92846 42 2.92846C49.5921 2.92846 56.1094 8.91389 56.1094 17.3056C56.1094 19.5197 55.3687 22.104 53.9857 24.9809C52.7475 27.5565 51.0303 30.295 48.9559 33.1125C47.3832 35.2484 45.6975 37.3062 44.0118 39.2094Z" stroke="black"></path><path d="M42 25C46.4183 25 50 21.4183 50 17C50 12.5817 46.4183 9 42 9C37.5817 9 34 12.5817 34 17C34 21.4183 37.5817 25 42 25Z" fill="#FF5848"></path></svg> 