<?xml version="1.0" encoding="UTF-8"?>
<svg xmlns="http://www.w3.org/2000/svg" width="222" height="29" viewBox="0 0 222 29" fill="none">
  <g clip-path="url(#clip0_260_4010)">
    <g clip-path="url(#clip1_260_4010)">
      <rect width="184" height="2" transform="translate(0 8.5)" fill="#D0D0D0"></rect>
      <rect y="8.5" width="146.5" height="2" fill="#00A9F4"></rect>
    </g>
    <circle cx="146" cy="9.5" r="8" fill="#00A9F4"></circle>
  </g>
  <path d="M194.952 14V12.04L198.816 8.54C199.059 8.30667 199.255 8.06867 199.404 7.826C199.553 7.58333 199.628 7.31267 199.628 7.014C199.628 6.65933 199.516 6.37467 199.292 6.16C199.068 5.936 198.769 5.824 198.396 5.824C198.004 5.824 197.682 5.964 197.43 6.244C197.187 6.51467 197.043 6.874 196.996 7.322L194.742 7.014C194.798 6.51 194.933 6.062 195.148 5.67C195.372 5.278 195.652 4.94667 195.988 4.676C196.324 4.396 196.707 4.186 197.136 4.046C197.575 3.89667 198.037 3.822 198.522 3.822C198.979 3.822 199.423 3.88267 199.852 4.004C200.281 4.12533 200.664 4.312 201 4.564C201.336 4.816 201.602 5.13333 201.798 5.516C202.003 5.89867 202.106 6.34667 202.106 6.86C202.106 7.21467 202.059 7.53667 201.966 7.826C201.873 8.106 201.742 8.36733 201.574 8.61C201.415 8.85267 201.229 9.08133 201.014 9.296C200.809 9.50133 200.594 9.70667 200.37 9.912L198.074 11.956H202.12V14H194.952ZM211.451 9.016C211.451 9.716 211.381 10.3833 211.241 11.018C211.101 11.6527 210.877 12.2127 210.569 12.698C210.261 13.174 209.859 13.5567 209.365 13.846C208.879 14.126 208.287 14.266 207.587 14.266C206.887 14.266 206.289 14.126 205.795 13.846C205.3 13.5567 204.894 13.174 204.577 12.698C204.269 12.2127 204.045 11.6527 203.905 11.018C203.765 10.3833 203.695 9.716 203.695 9.016C203.695 8.316 203.765 7.65333 203.905 7.028C204.045 6.39333 204.269 5.84267 204.577 5.376C204.894 4.9 205.3 4.522 205.795 4.242C206.289 3.962 206.887 3.822 207.587 3.822C208.287 3.822 208.879 3.962 209.365 4.242C209.859 4.522 210.261 4.9 210.569 5.376C210.877 5.84267 211.101 6.39333 211.241 7.028C211.381 7.65333 211.451 8.316 211.451 9.016ZM209.043 9.016C209.043 8.708 209.024 8.36733 208.987 7.994C208.949 7.62067 208.879 7.27533 208.777 6.958C208.674 6.63133 208.525 6.36067 208.329 6.146C208.142 5.922 207.895 5.81 207.587 5.81C207.279 5.81 207.027 5.922 206.831 6.146C206.635 6.36067 206.481 6.63133 206.369 6.958C206.266 7.27533 206.196 7.62067 206.159 7.994C206.121 8.36733 206.103 8.708 206.103 9.016C206.103 9.33333 206.121 9.68333 206.159 10.066C206.196 10.4393 206.266 10.7893 206.369 11.116C206.481 11.4333 206.635 11.704 206.831 11.928C207.027 12.1427 207.279 12.25 207.587 12.25C207.895 12.25 208.142 12.1427 208.329 11.928C208.525 11.704 208.674 11.4333 208.777 11.116C208.879 10.7893 208.949 10.4393 208.987 10.066C209.024 9.68333 209.043 9.33333 209.043 9.016ZM220.502 9.016C220.502 9.716 220.432 10.3833 220.292 11.018C220.152 11.6527 219.928 12.2127 219.62 12.698C219.312 13.174 218.91 13.5567 218.416 13.846C217.93 14.126 217.338 14.266 216.638 14.266C215.938 14.266 215.34 14.126 214.846 13.846C214.351 13.5567 213.945 13.174 213.628 12.698C213.32 12.2127 213.096 11.6527 212.956 11.018C212.816 10.3833 212.746 9.716 212.746 9.016C212.746 8.316 212.816 7.65333 212.956 7.028C213.096 6.39333 213.32 5.84267 213.628 5.376C213.945 4.9 214.351 4.522 214.846 4.242C215.34 3.962 215.938 3.822 216.638 3.822C217.338 3.822 217.93 3.962 218.416 4.242C218.91 4.522 219.312 4.9 219.62 5.376C219.928 5.84267 220.152 6.39333 220.292 7.028C220.432 7.65333 220.502 8.316 220.502 9.016ZM218.094 9.016C218.094 8.708 218.075 8.36733 218.038 7.994C218 7.62067 217.93 7.27533 217.828 6.958C217.725 6.63133 217.576 6.36067 217.38 6.146C217.193 5.922 216.946 5.81 216.638 5.81C216.33 5.81 216.078 5.922 215.882 6.146C215.686 6.36067 215.532 6.63133 215.42 6.958C215.317 7.27533 215.247 7.62067 215.21 7.994C215.172 8.36733 215.154 8.708 215.154 9.016C215.154 9.33333 215.172 9.68333 215.21 10.066C215.247 10.4393 215.317 10.7893 215.42 11.116C215.532 11.4333 215.686 11.704 215.882 11.928C216.078 12.1427 216.33 12.25 216.638 12.25C216.946 12.25 217.193 12.1427 217.38 11.928C217.576 11.704 217.725 11.4333 217.828 11.116C217.93 10.7893 218 10.4393 218.038 10.066C218.075 9.68333 218.094 9.33333 218.094 9.016Z" fill="black"></path>
  <path fill-rule="evenodd" clip-rule="evenodd" d="M178.638 23.3441L175.948 28.7236C175.742 29.1354 175.136 29.0737 175.017 28.6289L171.017 13.6289C170.918 13.2575 171.258 12.9179 171.629 13.0169L186.629 17.0169C187.074 17.1355 187.136 17.7414 186.724 17.9473L181.345 20.637L185.854 25.1464C186.213 25.5054 186.415 25.9923 186.415 26.5C186.415 27.0078 186.213 27.4947 185.854 27.8535C185.495 28.2126 185.008 28.4143 184.501 28.4143C183.993 28.4143 183.506 28.2126 183.147 27.8536L178.638 23.3441ZM172.206 14.2057L175.644 27.0959L178.053 22.2764C178.206 21.9712 178.613 21.9052 178.854 22.1465L183.854 27.1465C184.026 27.318 184.258 27.4143 184.501 27.4143C184.743 27.4143 184.976 27.318 185.147 27.1464C185.318 26.975 185.415 26.7425 185.415 26.5C185.415 26.2576 185.318 26.0251 185.147 25.8536L180.147 20.8536C179.906 20.6123 179.972 20.2054 180.277 20.0528L185.096 17.6431L172.206 14.2057Z" fill="#333333"></path>
  <defs>
    <clipPath id="clip0_260_4010">
      <rect width="184" height="16" fill="white" transform="translate(0 1.5)"></rect>
    </clipPath>
    <clipPath id="clip1_260_4010">
      <rect width="184" height="2" fill="white" transform="translate(0 8.5)"></rect>
    </clipPath>
  </defs>
</svg>
