<?xml version="1.0" encoding="UTF-8"?> <svg xmlns="http://www.w3.org/2000/svg" width="70" height="70" viewBox="0 0 70 70" fill="none"><path d="M15.3323 17.17C17.6287 17.17 19.4903 15.3084 19.4903 13.012C19.4903 10.7156 17.6287 8.854 15.3323 8.854C13.0359 8.854 11.1743 10.7156 11.1743 13.012C11.1743 15.3084 13.0359 17.17 15.3323 17.17Z" fill="white"></path><path d="M15.3322 17.7639C12.6922 17.7639 10.5142 15.5859 10.5142 12.9459C10.5142 10.3059 12.6922 8.12793 15.3322 8.12793C17.9722 8.12793 20.1502 10.3059 20.1502 12.9459C20.1502 15.5859 17.9722 17.7639 15.3322 17.7639ZM15.3322 9.57993C13.4182 9.57993 11.9002 11.1639 11.9002 13.0119C11.9002 14.9259 13.4842 16.4439 15.3322 16.4439C17.1802 16.4439 18.7642 14.8599 18.7642 13.0119C18.7642 11.1639 17.1802 9.57993 15.3322 9.57993Z" fill="black"></path><path d="M20.0181 57.5621C20.0181 58.7501 19.0281 59.8061 17.7741 59.8061C16.5861 59.8061 15.5301 58.8161 15.5301 57.5621V47.0681H14.2101V57.5621C14.2101 58.7501 13.2201 59.8061 11.9661 59.8061C10.7781 59.8061 9.72215 58.8161 9.72215 57.5621V30.1721L6.95015 38.2241C6.68615 39.2141 5.49815 39.7421 4.50815 39.3461C3.51815 39.0161 2.99015 37.8941 3.38615 36.9041L8.60015 22.6481C9.26015 20.8661 10.9101 19.7441 12.8241 19.7441H17.1801C19.0281 19.7441 20.7441 20.8661 21.4041 22.6481L26.6181 37.0361C26.9481 38.0261 26.4861 39.0821 25.4961 39.4781C24.5061 39.7421 23.4501 39.3461 23.0541 38.3561L20.1501 30.3041L20.0181 57.5621Z" fill="white"></path><path d="M20.7443 57.5617H19.4243L19.4903 26.3438L23.7143 38.0257L22.3943 38.5537L20.7443 33.9997V57.5617Z" fill="black"></path><path d="M16.2563 57.5617H14.9363V47.6617H14.3423V46.4077H16.2563V57.5617Z" fill="black"></path><path d="M17.84 60.4001C16.256 60.4001 14.936 59.0801 14.936 57.4961H16.322C16.322 58.3541 17.048 59.0801 17.906 59.0801C17.84 59.0801 17.84 60.4001 17.84 60.4001Z" fill="black"></path><path d="M17.8403 60.4001V59.0801C18.6983 59.0801 19.4243 58.3541 19.4243 57.4961H20.8103C20.7443 59.1461 19.4243 60.4001 17.8403 60.4001Z" fill="black"></path><path d="M25.0341 40.27C24.5721 40.27 24.2421 40.204 23.9121 40.072C23.1861 39.808 22.5921 39.214 22.3281 38.488L23.5161 37.96C23.6481 38.29 23.9781 38.686 24.3741 38.818C24.7041 38.95 25.1661 38.95 25.5621 38.818L26.0901 40.006C25.7601 40.204 25.4301 40.27 25.0341 40.27Z" fill="black"></path><path d="M55.3279 17.17C57.6243 17.17 59.4859 15.3084 59.4859 13.012C59.4859 10.7156 57.6243 8.854 55.3279 8.854C53.0315 8.854 51.1699 10.7156 51.1699 13.012C51.1699 15.3084 53.0315 17.17 55.3279 17.17Z" fill="#06A6EA"></path><path d="M55.3278 17.7639C52.6878 17.7639 50.5098 15.5859 50.5098 12.9459C50.5098 10.3059 52.6878 8.12793 55.3278 8.12793C57.9678 8.12793 60.1458 10.3059 60.1458 12.9459C60.1458 15.5859 57.9678 17.7639 55.3278 17.7639ZM55.3278 9.57993C53.4138 9.57993 51.8958 11.1639 51.8958 13.0119C51.8958 14.9259 53.4798 16.4439 55.3278 16.4439C57.1758 16.4439 58.7598 14.8599 58.7598 13.0119C58.7598 11.1639 57.1758 9.57993 55.3278 9.57993Z" fill="black"></path><path d="M60.0139 57.5617C60.0139 58.7497 59.0239 59.8057 57.7699 59.8057C56.5819 59.8057 55.5259 58.8157 55.5259 57.5617V47.0677H54.2059V57.5617C54.2059 58.7497 53.2159 59.8057 51.9619 59.8057C50.7739 59.8057 49.7179 58.8157 49.7179 57.5617V30.1717L46.8139 38.2237C46.5499 39.2137 45.3619 39.7417 44.3719 39.3457C43.3819 39.0157 42.8539 37.8937 43.2499 36.9037L48.4639 22.5817C49.1239 20.7997 50.7739 19.6777 52.6879 19.6777H57.0439C58.8919 19.6777 60.6079 20.7997 61.2679 22.5817L66.4819 36.9697C66.8119 37.9597 66.3499 39.0157 65.3599 39.4117C64.3699 39.6757 63.3139 39.2797 62.9179 38.2897L60.0139 30.2377V57.5617Z" fill="#06A6EA"></path><path d="M60.7399 57.5617H59.4199L59.4859 26.3438L63.7099 38.0257L62.3899 38.5537L60.7399 33.9997V57.5617Z" fill="black"></path><path d="M56.2519 57.5617H54.9979V47.6617H54.3379V46.4077H56.2519V57.5617Z" fill="black"></path><path d="M57.8361 60.4001C56.2521 60.4001 54.9321 59.0801 54.9321 57.4961H56.3181C56.3181 58.3541 57.0441 59.0801 57.9021 59.0801C57.8361 59.0801 57.8361 60.4001 57.8361 60.4001Z" fill="black"></path><path d="M57.8359 60.4001V59.0801C58.6939 59.0801 59.4199 58.3541 59.4199 57.4961H60.7399C60.7399 59.1461 59.4199 60.4001 57.8359 60.4001Z" fill="black"></path><path d="M65.0297 40.27C64.5677 40.27 64.2377 40.204 63.9077 40.072C63.1817 39.808 62.5877 39.214 62.3237 38.488L63.5117 37.96C63.6437 38.29 63.9737 38.686 64.3697 38.818C64.6997 38.95 65.1617 38.95 65.5577 38.818L66.0857 40.006C65.7557 40.204 65.4257 40.27 65.0297 40.27Z" fill="black"></path><path d="M35.5281 17.17C37.8245 17.17 39.6861 15.3084 39.6861 13.012C39.6861 10.7156 37.8245 8.854 35.5281 8.854C33.2317 8.854 31.3701 10.7156 31.3701 13.012C31.3701 15.3084 33.2317 17.17 35.5281 17.17Z" fill="#FFB81C"></path><path d="M35.528 17.7639C32.888 17.7639 30.71 15.5859 30.71 12.9459C30.71 10.3059 32.888 8.12793 35.528 8.12793C38.168 8.12793 40.346 10.3059 40.346 12.9459C40.346 15.5859 38.168 17.7639 35.528 17.7639ZM35.528 9.57993C33.614 9.57993 32.096 11.1639 32.096 13.0119C32.096 14.9259 33.68 16.4439 35.528 16.4439C37.376 16.4439 38.96 14.8599 38.96 13.0119C38.96 11.1639 37.376 9.57993 35.528 9.57993Z" fill="black"></path><path d="M40.2141 57.5617C40.2141 58.7497 39.2241 59.8057 37.9701 59.8057C36.7821 59.8057 35.7261 58.8157 35.7261 57.5617V47.0677H34.4061V57.5617C34.4061 58.7497 33.4161 59.8057 32.1621 59.8057C30.9741 59.8057 29.9181 58.8157 29.9181 57.5617V30.1717L27.0141 38.2237C26.7501 39.2137 25.5621 39.7417 24.5721 39.3457C23.5821 39.0157 23.0541 37.8937 23.4501 36.9037L28.6641 22.5817C29.3241 20.7997 30.9741 19.6777 32.8881 19.6777H37.2441C39.0921 19.6777 40.8081 20.7997 41.4681 22.5817L46.6821 36.9697C47.0121 37.9597 46.5501 39.0157 45.5601 39.4117C44.5701 39.6757 43.5141 39.2797 43.1181 38.2897L40.2801 30.2377L40.2141 57.5617Z" fill="#FFB81C"></path><path d="M40.9402 57.5617H39.5542L39.6862 26.3438L43.9102 38.0257L42.5902 38.5537L40.9402 33.9997V57.5617Z" fill="black"></path><path d="M36.4521 57.5617H35.1321V47.6617H34.5381V46.4077H36.4521V57.5617Z" fill="black"></path><path d="M38.0363 60.4001C36.4523 60.4001 35.1323 59.0801 35.1323 57.4961H36.5183C36.5183 58.3541 37.2443 59.0801 38.1023 59.0801C38.0363 59.0801 38.0363 60.4001 38.0363 60.4001Z" fill="black"></path><path d="M38.0361 60.4001V59.0801C38.8941 59.0801 39.6201 58.3541 39.6201 57.4961H40.9401C40.9401 59.1461 39.5541 60.4001 38.0361 60.4001Z" fill="black"></path><path d="M45.2299 40.27C44.7679 40.27 44.4379 40.204 44.1079 40.072C43.3819 39.808 42.7879 39.214 42.5239 38.488L43.7119 37.96C43.8439 38.29 44.1739 38.686 44.5699 38.818C44.8999 38.95 45.3619 38.95 45.7579 38.818L46.2859 40.006C45.9559 40.204 45.6259 40.27 45.2299 40.27Z" fill="black"></path></svg> 